kMon50V8_clean.ufo
<glyph name="quotedbl" format="2">
  <advance width="696"/>
  <unicode hex="0022"/>
  <outline>
    <contour>
      <point x="191" y="853" type="line"/>
      <point x="217" y="1067"/>
      <point x="273" y="1187"/>
      <point x="273" y="1362" type="curve" smooth="yes"/>
      <point x="273" y="1422"/>
      <point x="225" y="1471"/>
      <point x="164" y="1471" type="curve" smooth="yes"/>
      <point x="104" y="1471"/>
      <point x="56" y="1422"/>
      <point x="56" y="1362" type="curve" smooth="yes"/>
      <point x="56" y="1187"/>
      <point x="112" y="1067"/>
      <point x="139" y="853" type="curve"/>
    </contour>
    <contour>
      <point x="547" y="853" type="line"/>
      <point x="572" y="1067"/>
      <point x="632" y="1187"/>
      <point x="632" y="1362" type="curve" smooth="yes"/>
      <point x="632" y="1422"/>
      <point x="584" y="1471"/>
      <point x="520" y="1471" type="curve" smooth="yes"/>
      <point x="460" y="1471"/>
      <point x="412" y="1422"/>
      <point x="412" y="1362" type="curve" smooth="yes"/>
      <point x="412" y="1187"/>
      <point x="468" y="1067"/>
      <point x="497" y="853" type="curve"/>
    </contour>
  </outline>
</glyph>
<glyph name="parenleft" format="2">
  <advance width="996"/>
  <unicode hex="0028"/>
  <outline>
    <contour>
      <point x="479" y="736" type="curve" smooth="yes"/>
      <point x="479" y="950"/>
      <point x="618" y="1484"/>
      <point x="775" y="1599" type="curve"/>
      <point x="786" y="1605"/>
      <point x="790" y="1609"/>
      <point x="790" y="1613" type="curve"/>
      <point x="790" y="1620"/>
      <point x="782" y="1628"/>
      <point x="771" y="1628" type="curve" smooth="yes"/>
      <point x="763" y="1628"/>
      <point x="754" y="1628"/>
      <point x="743" y="1624" type="curve"/>
      <point x="625" y="1595"/>
      <point x="289" y="1134"/>
      <point x="289" y="736" type="curve"/>
      <point x="289" y="345"/>
      <point x="625" y="-123"/>
      <point x="743" y="-154" type="curve"/>
      <point x="754" y="-158"/>
      <point x="763" y="-158"/>
      <point x="771" y="-158" type="curve" smooth="yes"/>
      <point x="782" y="-158"/>
      <point x="790" y="-150"/>
      <point x="790" y="-142" type="curve"/>
      <point x="790" y="-139"/>
      <point x="786" y="-135"/>
      <point x="775" y="-127" type="curve"/>
      <point x="618" y="-11"/>
      <point x="479" y="522"/>
    </contour>
  </outline>
</glyph>
<glyph name="parenright" format="2">
  <advance width="996"/>
  <unicode hex="0029"/>
  <outline>
    <contour>
      <point x="593" y="736" type="curve" smooth="yes"/>
      <point x="593" y="522"/>
      <point x="457" y="-11"/>
      <point x="299" y="-127" type="curve"/>
      <point x="289" y="-135"/>
      <point x="285" y="-139"/>
      <point x="285" y="-142" type="curve"/>
      <point x="285" y="-150"/>
      <point x="292" y="-158"/>
      <point x="303" y="-158" type="curve" smooth="yes"/>
      <point x="310" y="-158"/>
      <point x="318" y="-158"/>
      <point x="329" y="-154" type="curve"/>
      <point x="445" y="-123"/>
      <point x="786" y="337"/>
      <point x="786" y="736" type="curve"/>
      <point x="786" y="1134"/>
      <point x="445" y="1595"/>
      <point x="329" y="1624" type="curve"/>
      <point x="318" y="1628"/>
      <point x="310" y="1628"/>
      <point x="303" y="1628" type="curve" smooth="yes"/>
      <point x="292" y="1628"/>
      <point x="285" y="1620"/>
      <point x="285" y="1613" type="curve"/>
      <point x="285" y="1609"/>
      <point x="289" y="1605"/>
      <point x="299" y="1599" type="curve"/>
      <point x="457" y="1484"/>
      <point x="593" y="950"/>
    </contour>
  </outline>
</glyph>
<glyph name="bracketleft" format="2">
  <advance width="655"/>
  <unicode hex="005B"/>
  <outline>
    <contour>
      <point x="148" y="-392" type="line"/>
      <point x="630" y="-392" type="line"/>
      <point x="630" y="-295" type="line"/>
      <point x="336" y="-295" type="line"/>
      <point x="336" y="1714" type="line"/>
      <point x="630" y="1714" type="line"/>
      <point x="630" y="1810" type="line"/>
      <point x="148" y="1810" type="line"/>
    </contour>
  </outline>
</glyph>
<glyph name="threesuperior" format="2">
  <advance width="632"/>
  <unicode hex="00B3"/>
  <outline>
    <contour>
      <point x="206" y="1067" type="line"/>
      <point x="348" y="1067"/>
      <point x="460" y="1021"/>
      <point x="460" y="890" type="curve" smooth="yes"/>
      <point x="460" y="813"/>
      <point x="389" y="745"/>
      <point x="314" y="745" type="curve" smooth="yes"/>
      <point x="235" y="745"/>
      <point x="179" y="801"/>
      <point x="123" y="801" type="curve" smooth="yes"/>
      <point x="94" y="801"/>
      <point x="64" y="790"/>
      <point x="64" y="759" type="curve" smooth="yes"/>
      <point x="64" y="700"/>
      <point x="183" y="685"/>
      <point x="225" y="685" type="curve" smooth="yes"/>
      <point x="393" y="685"/>
      <point x="576" y="763"/>
      <point x="576" y="954" type="curve" smooth="yes"/>
      <point x="576" y="1056"/>
      <point x="520" y="1115"/>
      <point x="430" y="1149" type="curve"/>
      <point x="483" y="1187"/>
      <point x="528" y="1250"/>
      <point x="528" y="1314" type="curve" smooth="yes"/>
      <point x="528" y="1422"/>
      <point x="423" y="1471"/>
      <point x="326" y="1471" type="curve" smooth="yes"/>
      <point x="206" y="1471"/>
      <point x="116" y="1407"/>
      <point x="71" y="1306" type="curve"/>
      <point x="112" y="1287" type="line"/>
      <point x="150" y="1340"/>
      <point x="206" y="1381"/>
      <point x="273" y="1381" type="curve" smooth="yes"/>
      <point x="352" y="1381"/>
      <point x="401" y="1343"/>
      <point x="401" y="1265" type="curve" smooth="yes"/>
      <point x="401" y="1164"/>
      <point x="303" y="1104"/>
      <point x="206" y="1104" type="curve"/>
    </contour>
  </outline>
</glyph>
<glyph name="Eacute" format="2">
  <advance width="1321"/>
  <unicode hex="00C9"/>
  <outline>
    <contour>
      <point x="41" y="1437" type="line"/>
      <point x="41" y="1400" type="line"/>
      <point x="191" y="1400"/>
      <point x="247" y="1362"/>
      <point x="247" y="1209" type="curve" smooth="yes"/>
      <point x="247" y="229" type="line" smooth="yes"/>
      <point x="247" y="75"/>
      <point x="191" y="37"/>
      <point x="41" y="37" type="curve"/>
      <point x="41" y="0" type="line"/>
      <point x="1152" y="0" type="line"/>
      <point x="1283" y="404" type="line"/>
      <point x="1231" y="404" type="line"/>
      <point x="1175" y="221"/>
      <point x="1052" y="71"/>
      <point x="850" y="71" type="curve" smooth="yes"/>
      <point x="551" y="71" type="line" smooth="yes"/>
      <point x="501" y="71"/>
      <point x="468" y="112"/>
      <point x="464" y="161" type="curve"/>
      <point x="464" y="749" type="line"/>
      <point x="778" y="749" type="line" smooth="yes"/>
      <point x="894" y="749"/>
      <point x="992" y="692"/>
      <point x="992" y="520" type="curve"/>
      <point x="1029" y="520" type="line"/>
      <point x="1029" y="1007" type="line"/>
      <point x="992" y="1007" type="line"/>
      <point x="992" y="869"/>
      <point x="894" y="819"/>
      <point x="775" y="819" type="curve" smooth="yes"/>
      <point x="464" y="819" type="line"/>
      <point x="464" y="1366" type="line"/>
      <point x="827" y="1366" type="line" smooth="yes"/>
      <point x="1018" y="1366"/>
      <point x="1089" y="1269"/>
      <point x="1123" y="1096" type="curve"/>
      <point x="1164" y="1096" type="line"/>
      <point x="1145" y="1437" type="line"/>
    </contour>
    <contour>
      <point x="978" y="1857" type="line"/>
      <point x="712" y="1857" type="line"/>
      <point x="525" y="1558" type="line"/>
      <point x="581" y="1558" type="line"/>
    </contour>
  </outline>
</glyph>
<glyph name="uni016C" format="2">
  <advance width="1594"/>
  <unicode hex="016C"/>
  <outline>
    <contour>
      <point x="240" y="510" type="line" smooth="yes"/>
      <point x="240" y="210"/>
      <point x="435" y="-34"/>
      <point x="795" y="-34" type="curve" smooth="yes"/>
      <point x="1204" y="-34"/>
      <point x="1369" y="210"/>
      <point x="1369" y="506" type="curve" smooth="yes"/>
      <point x="1369" y="1211" type="line" smooth="yes"/>
      <point x="1369" y="1365"/>
      <point x="1425" y="1402"/>
      <point x="1575" y="1402" type="curve"/>
      <point x="1575" y="1440" type="line"/>
      <point x="1069" y="1440" type="line"/>
      <point x="1069" y="1402" type="line"/>
      <point x="1219" y="1402"/>
      <point x="1271" y="1365"/>
      <point x="1271" y="1211" type="curve" smooth="yes"/>
      <point x="1271" y="506" type="line" smooth="yes"/>
      <point x="1271" y="259"/>
      <point x="1117" y="60"/>
      <point x="866" y="60" type="curve" smooth="yes"/>
      <point x="619" y="60"/>
      <point x="461" y="259"/>
      <point x="461" y="506" type="curve" smooth="yes"/>
      <point x="461" y="1211" type="line" smooth="yes"/>
      <point x="461" y="1365"/>
      <point x="514" y="1402"/>
      <point x="664" y="1402" type="curve"/>
      <point x="664" y="1440" type="line"/>
      <point x="37" y="1440" type="line"/>
      <point x="37" y="1402" type="line"/>
      <point x="184" y="1402"/>
      <point x="240" y="1365"/>
      <point x="240" y="1211" type="curve" smooth="yes"/>
    </contour>
    <contour>
      <point x="1148" y="1798" type="line"/>
      <point x="1126" y="1742"/>
      <point x="1021" y="1657"/>
      <point x="871" y="1657" type="curve" smooth="yes"/>
      <point x="722" y="1657"/>
      <point x="616" y="1742"/>
      <point x="594" y="1798" type="curve"/>
      <point x="556" y="1798" type="line"/>
      <point x="575" y="1704"/>
      <point x="666" y="1530"/>
      <point x="871" y="1530" type="curve" smooth="yes"/>
      <point x="1077" y="1530"/>
      <point x="1163" y="1704"/>
      <point x="1182" y="1798" type="curve"/>
    </contour>
  </outline>
</glyph>
<glyph name="uni01C1" format="2">
  <advance width="1048"/>
  <unicode hex="01C1"/>
  <outline>
    <contour>
      <point x="225" y="0" type="line"/>
      <point x="412" y="0" type="line"/>
      <point x="412" y="1583" type="line"/>
      <point x="225" y="1583" type="line"/>
    </contour>
    <contour>
      <point x="636" y="0" type="line"/>
      <point x="823" y="0" type="line"/>
      <point x="823" y="1583" type="line"/>
      <point x="636" y="1583" type="line"/>
    </contour>
  </outline>
</glyph>
<glyph name="uni025A" format="2">
  <advance width="1263"/>
  <unicode hex="025A"/>
  <outline>
    <contour>
      <point x="487" y="992" type="curve" smooth="yes"/>
      <point x="307" y="992"/>
      <point x="120" y="827"/>
      <point x="67" y="628" type="curve"/>
      <point x="108" y="622" type="line"/>
      <point x="139" y="745"/>
      <point x="289" y="842"/>
      <point x="438" y="842" type="curve" smooth="yes"/>
      <point x="523" y="842"/>
      <point x="597" y="796"/>
      <point x="652" y="722" type="curve"/>
      <point x="94" y="370" type="line"/>
      <point x="94" y="154"/>
      <point x="254" y="-23"/>
      <point x="487" y="-23" type="curve" smooth="yes"/>
      <point x="749" y="-23"/>
      <point x="921" y="206"/>
      <point x="921" y="520" type="curve" smooth="yes"/>
      <point x="921" y="616"/>
      <point x="893" y="707"/>
      <point x="846" y="782" type="curve"/>
      <point x="1011" y="886" type="line"/>
      <point x="1011" y="745" type="line" smooth="yes"/>
      <point x="1011" y="669"/>
      <point x="1058" y="603"/>
      <point x="1147" y="603" type="curve" smooth="yes"/>
      <point x="1245" y="603"/>
      <point x="1294" y="699"/>
      <point x="1302" y="786" type="curve"/>
      <point x="1263" y="808" type="line"/>
      <point x="1242" y="718"/>
      <point x="1218" y="660"/>
      <point x="1148" y="660" type="curve" smooth="yes"/>
      <point x="1081" y="660"/>
      <point x="1070" y="727"/>
      <point x="1070" y="782" type="curve" smooth="yes"/>
      <point x="1070" y="938" type="line"/>
      <point x="1030" y="960" type="line"/>
      <point x="816" y="826" type="line"/>
      <point x="737" y="927"/>
      <point x="618" y="992"/>
    </contour>
    <contour>
      <point x="753" y="368" type="curve" smooth="yes"/>
      <point x="753" y="142"/>
      <point x="629" y="48"/>
      <point x="539" y="48" type="curve" smooth="yes"/>
      <point x="461" y="48"/>
      <point x="303" y="92"/>
      <point x="300" y="438" type="curve"/>
      <point x="680" y="678" type="line"/>
      <point x="722" y="606"/>
      <point x="753" y="492"/>
    </contour>
  </outline>
</glyph>
<glyph name="uni0265" format="2">
  <advance width="1100"/>
  <unicode hex="0265"/>
  <outline>
    <contour>
      <point x="730" y="-502" type="line"/>
      <point x="778" y="-502" type="line"/>
      <point x="1071" y="-375" type="line"/>
      <point x="1056" y="-333" type="line"/>
      <point x="1015" y="-345"/>
      <point x="988" y="-352"/>
      <point x="969" y="-352" type="curve" smooth="yes"/>
      <point x="906" y="-352"/>
      <point x="906" y="-304"/>
      <point x="906" y="-195" type="curve" smooth="yes"/>
      <point x="906" y="744" type="line" smooth="yes"/>
      <point x="906" y="879"/>
      <point x="928" y="931"/>
      <point x="1056" y="931" type="curve"/>
      <point x="1056" y="969" type="line"/>
      <point x="576" y="969" type="line"/>
      <point x="576" y="931" type="line"/>
      <point x="703" y="931"/>
      <point x="730" y="879"/>
      <point x="730" y="744" type="curve" smooth="yes"/>
      <point x="730" y="247" type="line"/>
      <point x="651" y="164"/>
      <point x="554" y="108"/>
      <point x="483" y="108" type="curve" smooth="yes"/>
      <point x="401" y="108"/>
      <point x="341" y="175"/>
      <point x="341" y="303" type="curve" smooth="yes"/>
      <point x="341" y="744" type="line" smooth="yes"/>
      <point x="341" y="879"/>
      <point x="363" y="931"/>
      <point x="491" y="931" type="curve"/>
      <point x="491" y="969" type="line"/>
      <point x="11" y="969" type="line"/>
      <point x="11" y="931" type="line"/>
      <point x="139" y="931"/>
      <point x="164" y="879"/>
      <point x="164" y="744" type="curve" smooth="yes"/>
      <point x="164" y="272" type="line" smooth="yes"/>
      <point x="164" y="108"/>
      <point x="262" y="-23"/>
      <point x="385" y="-23" type="curve" smooth="yes"/>
      <point x="505" y="-23"/>
      <point x="622" y="44"/>
      <point x="730" y="175" type="curve"/>
    </contour>
  </outline>
</glyph>
<glyph name="uni027F" format="2">
  <advance width="726"/>
  <unicode hex="027F"/>
  <outline>
    <contour>
      <point x="543" y="636" type="line"/>
      <point x="543" y="834"/>
      <point x="397" y="992"/>
      <point x="213" y="992" type="curve" smooth="yes"/>
      <point x="38" y="992"/>
      <point x="-97" y="940"/>
      <point x="-97" y="819" type="curve" smooth="yes"/>
      <point x="-97" y="763"/>
      <point x="-60" y="738"/>
      <point x="-12" y="738" type="curve" smooth="yes"/>
      <point x="119" y="738"/>
      <point x="79" y="921"/>
      <point x="221" y="921" type="curve" smooth="yes"/>
      <point x="296" y="921"/>
      <point x="366" y="838"/>
      <point x="366" y="738" type="curve" smooth="yes"/>
      <point x="366" y="-224" type="line"/>
      <point x="366" y="-359"/>
      <point x="341" y="-412"/>
      <point x="213" y="-412" type="curve"/>
      <point x="213" y="-449" type="line"/>
      <point x="696" y="-449" type="line"/>
      <point x="696" y="-412" type="line"/>
      <point x="568" y="-412"/>
      <point x="543" y="-359"/>
      <point x="543" y="-224" type="curve"/>
    </contour>
  </outline>
</glyph>
<glyph name="uni0280" format="2">
  <advance width="1214"/>
  <unicode hex="0280"/>
  <outline>
    <contour>
      <point x="214" y="158" type="line"/>
      <point x="214" y="52"/>
      <point x="164" y="27"/>
      <point x="37" y="27" type="curve"/>
      <point x="37" y="0" type="line"/>
      <point x="572" y="0" type="line"/>
      <point x="572" y="27" type="line"/>
      <point x="447" y="27"/>
      <point x="399" y="52"/>
      <point x="399" y="158" type="curve" smooth="yes"/>
      <point x="399" y="456" type="line"/>
      <point x="532" y="456" type="line"/>
      <point x="865" y="0" type="line"/>
      <point x="1177" y="0" type="line"/>
      <point x="1177" y="27" type="line"/>
      <point x="1100" y="27"/>
      <point x="1050" y="60"/>
      <point x="956" y="170" type="curve"/>
      <point x="734" y="469" type="line"/>
      <point x="932" y="504"/>
      <point x="1042" y="593"/>
      <point x="1042" y="717" type="curve" smooth="yes"/>
      <point x="1042" y="867"/>
      <point x="904" y="969"/>
      <point x="599" y="969" type="curve" smooth="yes"/>
      <point x="37" y="969" type="line"/>
      <point x="37" y="944" type="line"/>
      <point x="164" y="944"/>
      <point x="214" y="919"/>
      <point x="214" y="813" type="curve" smooth="yes"/>
    </contour>
    <contour>
      <point x="399" y="898" type="line"/>
      <point x="428" y="909"/>
      <point x="514" y="919"/>
      <point x="565" y="919" type="curve" smooth="yes"/>
      <point x="722" y="919"/>
      <point x="840" y="829"/>
      <point x="840" y="711" type="curve" smooth="yes"/>
      <point x="840" y="582"/>
      <point x="696" y="504"/>
      <point x="509" y="504" type="curve" smooth="yes"/>
      <point x="399" y="504" type="line"/>
    </contour>
  </outline>
  <guideline angle="125.443" x="865" y="0"/>
  <guideline angle="125.443" x="1076" y="0"/>
</glyph>
<glyph name="uni0288" format="2">
  <advance width="614"/>
  <unicode hex="0288"/>
  <outline>
    <contour>
      <point x="345" y="898" type="line"/>
      <point x="580" y="898" type="line"/>
      <point x="580" y="969" type="line"/>
      <point x="345" y="969" type="line"/>
      <point x="345" y="1302" type="line"/>
      <point x="292" y="1302" type="line"/>
      <point x="258" y="1108"/>
      <point x="154" y="950"/>
      <point x="19" y="950" type="curve"/>
      <point x="19" y="898" type="line"/>
      <point x="168" y="898" type="line"/>
      <point x="168" y="-94" type="line" smooth="yes"/>
      <point x="168" y="-292"/>
      <point x="314" y="-449"/>
      <point x="497" y="-449" type="curve" smooth="yes"/>
      <point x="674" y="-449"/>
      <point x="809" y="-397"/>
      <point x="809" y="-277" type="curve" smooth="yes"/>
      <point x="809" y="-221"/>
      <point x="771" y="-195"/>
      <point x="722" y="-195" type="curve" smooth="yes"/>
      <point x="591" y="-195"/>
      <point x="632" y="-378"/>
      <point x="491" y="-378" type="curve" smooth="yes"/>
      <point x="416" y="-378"/>
      <point x="345" y="-295"/>
      <point x="345" y="-195" type="curve" smooth="yes"/>
    </contour>
  </outline>
</glyph>
<glyph name="uni028A" format="2">
  <advance width="1071"/>
  <unicode hex="028A"/>
  <outline>
    <contour>
      <point x="67" y="422" type="curve" smooth="yes"/>
      <point x="67" y="190"/>
      <point x="266" y="-23"/>
      <point x="535" y="-23" type="curve" smooth="yes"/>
      <point x="805" y="-23"/>
      <point x="1003" y="190"/>
      <point x="1003" y="422" type="curve" smooth="yes"/>
      <point x="1003" y="676"/>
      <point x="872" y="740"/>
      <point x="872" y="838" type="curve" smooth="yes"/>
      <point x="872" y="898"/>
      <point x="894" y="931"/>
      <point x="1021" y="931" type="curve"/>
      <point x="1021" y="969" type="line"/>
      <point x="674" y="969" type="line"/>
      <point x="753" y="866"/>
      <point x="805" y="726"/>
      <point x="805" y="475" type="curve" smooth="yes"/>
      <point x="805" y="277"/>
      <point x="711" y="71"/>
      <point x="535" y="71" type="curve" smooth="yes"/>
      <point x="360" y="71"/>
      <point x="266" y="277"/>
      <point x="266" y="475" type="curve" smooth="yes"/>
      <point x="266" y="726"/>
      <point x="318" y="866"/>
      <point x="397" y="969" type="curve"/>
      <point x="48" y="969" type="line"/>
      <point x="48" y="931" type="line"/>
      <point x="176" y="931"/>
      <point x="198" y="898"/>
      <point x="198" y="838" type="curve" smooth="yes"/>
      <point x="198" y="740"/>
      <point x="67" y="676"/>
    </contour>
  </outline>
</glyph>
<glyph name="uni028D" format="2">
  <advance width="1591"/>
  <unicode hex="028D"/>
  <outline>
    <contour>
      <point x="1591" y="0" type="line"/>
      <point x="1591" y="37" type="line"/>
      <point x="1482" y="37"/>
      <point x="1468" y="57"/>
      <point x="1396" y="243" type="curve" smooth="yes"/>
      <point x="1104" y="992" type="line"/>
      <point x="1052" y="992" type="line"/>
      <point x="801" y="341" type="line"/>
      <point x="551" y="992" type="line"/>
      <point x="497" y="992" type="line"/>
      <point x="221" y="232" type="line" smooth="yes"/>
      <point x="158" y="60"/>
      <point x="94" y="37"/>
      <point x="0" y="37" type="curve"/>
      <point x="0" y="0" type="line"/>
      <point x="360" y="0" type="line"/>
      <point x="360" y="37" type="line"/>
      <point x="289" y="37"/>
      <point x="266" y="60"/>
      <point x="266" y="101" type="curve" smooth="yes"/>
      <point x="266" y="131"/>
      <point x="290" y="206"/>
      <point x="307" y="254" type="curve" smooth="yes"/>
      <point x="468" y="707" type="line"/>
      <point x="655" y="232" type="line"/>
      <point x="682" y="176"/>
      <point x="692" y="127"/>
      <point x="692" y="108" type="curve" smooth="yes"/>
      <point x="692" y="60"/>
      <point x="632" y="37"/>
      <point x="557" y="37" type="curve"/>
      <point x="557" y="0" type="line"/>
      <point x="1048" y="0" type="line"/>
      <point x="1048" y="37" type="line"/>
      <point x="944" y="37"/>
      <point x="878" y="138"/>
      <point x="861" y="187" type="curve" smooth="yes"/>
      <point x="842" y="243" type="line"/>
      <point x="1021" y="707" type="line"/>
      <point x="1212" y="232" type="line" smooth="yes"/>
      <point x="1231" y="183"/>
      <point x="1250" y="123"/>
      <point x="1250" y="90" type="curve" smooth="yes"/>
      <point x="1250" y="52"/>
      <point x="1224" y="37"/>
      <point x="1168" y="37" type="curve"/>
      <point x="1168" y="0" type="line"/>
    </contour>
  </outline>
</glyph>
<glyph name="uni0290" format="2">
  <advance width="977"/>
  <unicode hex="0290"/>
  <outline>
    <contour>
      <point x="906" y="0" type="line"/>
      <point x="925" y="307" type="line"/>
      <point x="887" y="307" type="line"/>
      <point x="880" y="221"/>
      <point x="853" y="127"/>
      <point x="819" y="104" type="curve" smooth="yes"/>
      <point x="794" y="86"/>
      <point x="738" y="71"/>
      <point x="692" y="71" type="curve" smooth="yes"/>
      <point x="281" y="71" type="line"/>
      <point x="928" y="932" type="line"/>
      <point x="928" y="969" type="line"/>
      <point x="123" y="969" type="line"/>
      <point x="123" y="700" type="line"/>
      <point x="161" y="700" type="line"/>
      <point x="161" y="763"/>
      <point x="183" y="834"/>
      <point x="210" y="861" type="curve"/>
      <point x="232" y="880"/>
      <point x="285" y="898"/>
      <point x="333" y="898" type="curve" smooth="yes"/>
      <point x="682" y="898" type="line"/>
      <point x="41" y="52" type="line"/>
      <point x="41" y="0" type="line"/>
      <point x="865" y="0" type="line"/>
      <point x="865" y="-94" type="line"/>
      <point x="865" y="-292"/>
      <point x="954" y="-449"/>
      <point x="1119" y="-449" type="curve" smooth="yes"/>
      <point x="1258" y="-449"/>
      <point x="1374" y="-397"/>
      <point x="1374" y="-277" type="curve" smooth="yes"/>
      <point x="1374" y="-221"/>
      <point x="1337" y="-195"/>
      <point x="1287" y="-195" type="curve" smooth="yes"/>
      <point x="1156" y="-195"/>
      <point x="1198" y="-378"/>
      <point x="1093" y="-378" type="curve" smooth="yes"/>
      <point x="944" y="-378"/>
      <point x="906" y="-212"/>
      <point x="906" y="-83" type="curve"/>
    </contour>
  </outline>
</glyph>
<glyph name="uni0296" format="2">
  <advance width="909"/>
  <unicode hex="0296"/>
  <outline>
    <contour>
      <point x="355" y="1215" type="curve" smooth="yes"/>
      <point x="355" y="837"/>
      <point x="639" y="665"/>
      <point x="639" y="325" type="curve" smooth="yes"/>
      <point x="639" y="141"/>
      <point x="542" y="47"/>
      <point x="400" y="47" type="curve" smooth="yes"/>
      <point x="296" y="47"/>
      <point x="202" y="97"/>
      <point x="202" y="167" type="curve" smooth="yes"/>
      <point x="202" y="234"/>
      <point x="269" y="283"/>
      <point x="269" y="351" type="curve"/>
      <point x="269" y="407"/>
      <point x="232" y="437"/>
      <point x="186" y="437" type="curve" smooth="yes"/>
      <point x="119" y="437"/>
      <point x="67" y="384"/>
      <point x="67" y="291" type="curve" smooth="yes"/>
      <point x="67" y="70"/>
      <point x="280" y="-31"/>
      <point x="452" y="-31" type="curve" smooth="yes"/>
      <point x="689" y="-31"/>
      <point x="857" y="97"/>
      <point x="857" y="309" type="curve" smooth="yes"/>
      <point x="857" y="662"/>
      <point x="492" y="804"/>
      <point x="492" y="1219" type="curve"/>
      <point x="492" y="1354"/>
      <point x="520" y="1403"/>
      <point x="647" y="1403" type="curve"/>
      <point x="647" y="1440" type="line"/>
      <point x="205" y="1440" type="line"/>
      <point x="205" y="1403" type="line"/>
      <point x="333" y="1403"/>
      <point x="355" y="1350"/>
    </contour>
  </outline>
</glyph>
<glyph name="uni02A1" format="2">
  <advance width="909"/>
  <unicode hex="02A1"/>
  <outline>
    <contour>
      <point x="179" y="412" type="line"/>
      <point x="380" y="412" type="line"/>
      <point x="365" y="355"/>
      <point x="356" y="293"/>
      <point x="356" y="225" type="curve" smooth="yes"/>
      <point x="356" y="90"/>
      <point x="333" y="37"/>
      <point x="206" y="37" type="curve"/>
      <point x="206" y="0" type="line"/>
      <point x="647" y="0" type="line"/>
      <point x="647" y="37" type="line"/>
      <point x="520" y="37"/>
      <point x="492" y="86"/>
      <point x="492" y="221" type="curve" smooth="yes"/>
      <point x="492" y="292"/>
      <point x="502" y="354"/>
      <point x="520" y="412" type="curve"/>
      <point x="767" y="412" type="line"/>
      <point x="767" y="551" type="line"/>
      <point x="580" y="551" type="line"/>
      <point x="688" y="748"/>
      <point x="857" y="891"/>
      <point x="857" y="1131" type="curve" smooth="yes"/>
      <point x="857" y="1343"/>
      <point x="688" y="1471"/>
      <point x="453" y="1471" type="curve" smooth="yes"/>
      <point x="281" y="1471"/>
      <point x="67" y="1370"/>
      <point x="67" y="1149" type="curve" smooth="yes"/>
      <point x="67" y="1056"/>
      <point x="120" y="1003"/>
      <point x="187" y="1003" type="curve" smooth="yes"/>
      <point x="232" y="1003"/>
      <point x="270" y="1033"/>
      <point x="270" y="1089" type="curve"/>
      <point x="270" y="1157"/>
      <point x="202" y="1206"/>
      <point x="202" y="1273" type="curve" smooth="yes"/>
      <point x="202" y="1343"/>
      <point x="295" y="1393"/>
      <point x="401" y="1393" type="curve" smooth="yes"/>
      <point x="543" y="1393"/>
      <point x="640" y="1299"/>
      <point x="640" y="1115" type="curve" smooth="yes"/>
      <point x="640" y="889"/>
      <point x="515" y="738"/>
      <point x="431" y="551" type="curve"/>
      <point x="179" y="551" type="line"/>
    </contour>
  </outline>
</glyph>
<glyph name="uni02C8" format="2">
  <advance width="449"/>
  <unicode hex="02C8"/>
  <outline>
    <contour>
      <point x="150" y="898" type="line"/>
      <point x="299" y="898" type="line"/>
      <point x="299" y="1583" type="line"/>
      <point x="150" y="1583" type="line"/>
    </contour>
  </outline>
</glyph>
<glyph name="uni02DB" format="2">
  <advance width="686"/>
  <unicode hex="02DB"/>
  <outline>
    <contour>
      <point x="524" y="-219" type="line"/>
      <point x="476" y="-263"/>
      <point x="426" y="-284"/>
      <point x="385" y="-284" type="curve"/>
      <point x="338" y="-284"/>
      <point x="310" y="-236"/>
      <point x="310" y="-199" type="curve" smooth="yes"/>
      <point x="310" y="-100"/>
      <point x="386" y="-29"/>
      <point x="434" y="0" type="curve"/>
      <point x="357" y="0" type="line"/>
      <point x="241" y="-64"/>
      <point x="194" y="-141"/>
      <point x="194" y="-234" type="curve"/>
      <point x="194" y="-311"/>
      <point x="252" y="-377"/>
      <point x="327" y="-377" type="curve" smooth="yes"/>
      <point x="416" y="-377"/>
      <point x="507" y="-299"/>
      <point x="553" y="-253" type="curve"/>
    </contour>
  </outline>
</glyph>
<glyph name="tilde" format="2">
  <advance width="1422"/>
  <unicode hex="02DC"/>
  <outline>
    <contour>
      <point x="618" y="850" type="curve" smooth="yes"/>
      <point x="378" y="850"/>
      <point x="292" y="685"/>
      <point x="262" y="588" type="curve"/>
      <point x="337" y="663"/>
      <point x="445" y="711"/>
      <point x="561" y="711" type="curve" smooth="yes"/>
      <point x="688" y="711"/>
      <point x="826" y="588"/>
      <point x="954" y="588" type="curve" smooth="yes"/>
      <point x="1194" y="588"/>
      <point x="1280" y="753"/>
      <point x="1310" y="850" type="curve"/>
      <point x="1235" y="775"/>
      <point x="1127" y="726"/>
      <point x="1011" y="726" type="curve" smooth="yes"/>
      <point x="884" y="726"/>
      <point x="746" y="850"/>
    </contour>
  </outline>
</glyph>
<glyph name="uni0303" format="2">
  <unicode hex="0303"/>
  <outline>
    <contour>
      <point x="-865" y="1197" type="line"/>
      <point x="-853" y="1257"/>
      <point x="-831" y="1347"/>
      <point x="-756" y="1347" type="curve" smooth="yes"/>
      <point x="-711" y="1347"/>
      <point x="-655" y="1309"/>
      <point x="-595" y="1272" type="curve" smooth="yes"/>
      <point x="-535" y="1234"/>
      <point x="-472" y="1197"/>
      <point x="-401" y="1197" type="curve" smooth="yes"/>
      <point x="-243" y="1197"/>
      <point x="-191" y="1347"/>
      <point x="-191" y="1478" type="curve"/>
      <point x="-221" y="1478" type="line"/>
      <point x="-232" y="1418"/>
      <point x="-254" y="1332"/>
      <point x="-329" y="1332" type="curve" smooth="yes"/>
      <point x="-374" y="1332"/>
      <point x="-430" y="1365"/>
      <point x="-491" y="1403" type="curve" smooth="yes"/>
      <point x="-551" y="1440"/>
      <point x="-614" y="1478"/>
      <point x="-685" y="1478" type="curve" smooth="yes"/>
      <point x="-842" y="1478"/>
      <point x="-898" y="1332"/>
      <point x="-898" y="1197" type="curve"/>
    </contour>
  </outline>
</glyph>
<glyph name="uni031A" format="2">
  <advance width="561"/>
  <unicode hex="031A"/>
  <outline>
    <contour>
      <point x="337" y="988" type="line"/>
      <point x="449" y="988" type="line"/>
      <point x="449" y="1437" type="line"/>
      <point x="56" y="1437" type="line"/>
      <point x="56" y="1325" type="line"/>
      <point x="337" y="1325" type="line"/>
    </contour>
  </outline>
</glyph>
<glyph name="uni031E" format="2">
  <unicode hex="031E"/>
  <outline>
    <contour>
      <point x="-318" y="-262" type="line"/>
      <point x="-318" y="-150" type="line"/>
      <point x="-692" y="-150" type="line"/>
      <point x="-692" y="-262" type="line"/>
      <point x="-561" y="-262" type="line"/>
      <point x="-561" y="-487" type="line"/>
      <point x="-449" y="-487" type="line"/>
      <point x="-449" y="-262" type="line"/>
    </contour>
  </outline>
</glyph>
<glyph name="uni031F" format="2">
  <unicode hex="031F"/>
  <outline>
    <contour>
      <point x="-356" y="-393" type="line"/>
      <point x="-356" y="-281" type="line"/>
      <point x="-487" y="-281" type="line"/>
      <point x="-487" y="-150" type="line"/>
      <point x="-599" y="-150" type="line"/>
      <point x="-599" y="-281" type="line"/>
      <point x="-730" y="-281" type="line"/>
      <point x="-730" y="-393" type="line"/>
      <point x="-599" y="-393" type="line"/>
      <point x="-599" y="-524" type="line"/>
      <point x="-487" y="-524" type="line"/>
      <point x="-487" y="-393" type="line"/>
    </contour>
  </outline>
</glyph>
<glyph name="uni0329" format="2">
  <unicode hex="0329"/>
  <outline>
    <contour>
      <point x="-580" y="-524" type="line"/>
      <point x="-468" y="-524" type="line"/>
      <point x="-468" y="-150" type="line"/>
      <point x="-580" y="-150" type="line"/>
    </contour>
  </outline>
</glyph>
<glyph name="uni032F" format="2">
  <unicode hex="032F"/>
  <outline>
    <contour>
      <point x="-816" y="-468" type="line"/>
      <point x="-794" y="-412"/>
      <point x="-688" y="-277"/>
      <point x="-539" y="-277" type="curve" smooth="yes"/>
      <point x="-389" y="-277"/>
      <point x="-285" y="-412"/>
      <point x="-262" y="-468" type="curve"/>
      <point x="-225" y="-468" type="line"/>
      <point x="-243" y="-374"/>
      <point x="-333" y="-150"/>
      <point x="-539" y="-150" type="curve" smooth="yes"/>
      <point x="-745" y="-150"/>
      <point x="-831" y="-374"/>
      <point x="-850" y="-468" type="curve"/>
    </contour>
  </outline>
</glyph>
<glyph name="uni0330" format="2">
  <unicode hex="0330"/>
  <outline>
    <contour>
      <point x="-880" y="-449" type="line"/>
      <point x="-869" y="-389"/>
      <point x="-846" y="-299"/>
      <point x="-771" y="-299" type="curve" smooth="yes"/>
      <point x="-729" y="-299"/>
      <point x="-670" y="-337"/>
      <point x="-610" y="-375" type="curve" smooth="yes"/>
      <point x="-551" y="-412"/>
      <point x="-487" y="-449"/>
      <point x="-416" y="-449" type="curve" smooth="yes"/>
      <point x="-258" y="-449"/>
      <point x="-206" y="-299"/>
      <point x="-206" y="-168" type="curve"/>
      <point x="-235" y="-168" type="line"/>
      <point x="-247" y="-229"/>
      <point x="-270" y="-314"/>
      <point x="-345" y="-314" type="curve" smooth="yes"/>
      <point x="-389" y="-314"/>
      <point x="-445" y="-281"/>
      <point x="-505" y="-243" type="curve" smooth="yes"/>
      <point x="-565" y="-206"/>
      <point x="-628" y="-168"/>
      <point x="-700" y="-168" type="curve" smooth="yes"/>
      <point x="-857" y="-168"/>
      <point x="-913" y="-314"/>
      <point x="-913" y="-449" type="curve"/>
    </contour>
  </outline>
</glyph>
<glyph name="uni0334" format="2">
  <unicode hex="0334"/>
  <outline>
    <contour>
      <point x="-854" y="345" type="line"/>
      <point x="-842" y="405"/>
      <point x="-817" y="495"/>
      <point x="-742" y="495" type="curve" smooth="yes"/>
      <point x="-697" y="495"/>
      <point x="-643" y="460"/>
      <point x="-583" y="420" type="curve" smooth="yes"/>
      <point x="-523" y="380"/>
      <point x="-460" y="345"/>
      <point x="-389" y="345" type="curve" smooth="yes"/>
      <point x="-231" y="345"/>
      <point x="-176" y="495"/>
      <point x="-176" y="626" type="curve"/>
      <point x="-206" y="626" type="line"/>
      <point x="-217" y="566"/>
      <point x="-243" y="480"/>
      <point x="-318" y="480" type="curve" smooth="yes"/>
      <point x="-363" y="480"/>
      <point x="-417" y="511"/>
      <point x="-477" y="551" type="curve" smooth="yes"/>
      <point x="-537" y="591"/>
      <point x="-600" y="626"/>
      <point x="-671" y="626" type="curve" smooth="yes"/>
      <point x="-829" y="626"/>
      <point x="-884" y="480"/>
      <point x="-884" y="345" type="curve"/>
    </contour>
  </outline>
</glyph>
<glyph name="uni033C" format="2">
  <unicode hex="033C"/>
  <outline>
    <contour>
      <point x="-805" y="-356" type="line"/>
      <point x="-782" y="-299"/>
      <point x="-749" y="-243"/>
      <point x="-674" y="-243" type="curve" smooth="yes"/>
      <point x="-618" y="-243"/>
      <point x="-565" y="-299"/>
      <point x="-543" y="-356" type="curve"/>
      <point x="-505" y="-356" type="line"/>
      <point x="-483" y="-299"/>
      <point x="-449" y="-243"/>
      <point x="-374" y="-243" type="curve" smooth="yes"/>
      <point x="-318" y="-243"/>
      <point x="-266" y="-299"/>
      <point x="-243" y="-356" type="curve"/>
      <point x="-206" y="-356" type="line"/>
      <point x="-225" y="-262"/>
      <point x="-281" y="-150"/>
      <point x="-374" y="-150" type="curve" smooth="yes"/>
      <point x="-459" y="-150"/>
      <point x="-501" y="-214"/>
      <point x="-525" y="-286" type="curve"/>
      <point x="-553" y="-214"/>
      <point x="-603" y="-150"/>
      <point x="-674" y="-150" type="curve" smooth="yes"/>
      <point x="-786" y="-150"/>
      <point x="-823" y="-262"/>
      <point x="-842" y="-356" type="curve"/>
    </contour>
  </outline>
</glyph>
<glyph name="uni1786" format="2">
  <advance width="1516"/>
  <unicode hex="1786"/>
  <anchor x="1271" y="1440" name="U"/>
  <anchor x="1271" y="0" name="L"/>
  <anchor x="803" y="1440" name="um"/>
  <anchor x="803" y="0" name="lm"/>
  <outline>
    <contour>
      <point x="523" y="1049" type="line"/>
      <point x="439" y="1052"/>
      <point x="339" y="1104"/>
      <point x="339" y="1164" type="curve" smooth="yes"/>
      <point x="339" y="1241"/>
      <point x="414" y="1286"/>
      <point x="489" y="1286" type="curve" smooth="yes"/>
      <point x="619" y="1286"/>
      <point x="709" y="1235"/>
      <point x="798" y="1178" type="curve"/>
      <point x="862" y="1238"/>
      <point x="984" y="1291"/>
      <point x="1070" y="1291" type="curve" smooth="yes"/>
      <point x="1105" y="1291"/>
      <point x="1145" y="1272"/>
      <point x="1167" y="1253" type="curve"/>
      <point x="1198" y="1231"/>
      <point x="1229" y="1208"/>
      <point x="1285" y="1208" type="curve" smooth="yes"/>
      <point x="1371" y="1208"/>
      <point x="1420" y="1242"/>
      <point x="1424" y="1357" type="curve"/>
      <point x="1405" y="1340"/>
      <point x="1385" y="1332"/>
      <point x="1367" y="1332" type="curve" smooth="yes"/>
      <point x="1334" y="1332"/>
      <point x="1300" y="1351"/>
      <point x="1270" y="1374" type="curve" smooth="yes"/>
      <point x="1214" y="1418"/>
      <point x="1156" y="1440"/>
      <point x="1074" y="1440" type="curve" smooth="yes"/>
      <point x="936" y="1440"/>
      <point x="873" y="1393"/>
      <point x="798" y="1321" type="curve"/>
      <point x="705" y="1396"/>
      <point x="591" y="1440"/>
      <point x="447" y="1440" type="curve" smooth="yes"/>
      <point x="297" y="1440"/>
      <point x="203" y="1329"/>
      <point x="203" y="1209" type="curve" smooth="yes"/>
      <point x="203" y="1116"/>
      <point x="266" y="1062"/>
      <point x="335" y="1029" type="curve"/>
      <point x="335" y="451" type="line"/>
      <point x="209" y="439"/>
      <point x="108" y="363"/>
      <point x="108" y="248" type="curve" smooth="yes"/>
      <point x="108" y="169"/>
      <point x="186" y="31"/>
      <point x="352" y="0" type="curve"/>
      <point x="417" y="0"/>
      <point x="498" y="15"/>
      <point x="523" y="78" type="curve"/>
      <point x="523" y="315" type="line"/>
      <point x="559" y="300"/>
      <point x="605" y="251"/>
      <point x="656" y="200" type="curve" smooth="yes"/>
      <point x="748" y="108"/>
      <point x="854" y="0"/>
      <point x="1019" y="0" type="curve" smooth="yes"/>
      <point x="1199" y="0"/>
      <point x="1271" y="104"/>
      <point x="1271" y="207" type="curve" smooth="yes"/>
      <point x="1271" y="817" type="line"/>
      <point x="1245" y="880"/>
      <point x="1166" y="896"/>
      <point x="1098" y="896" type="curve"/>
      <point x="933" y="865"/>
      <point x="856" y="727"/>
      <point x="856" y="648" type="curve" smooth="yes"/>
      <point x="856" y="520"/>
      <point x="955" y="452"/>
      <point x="1083" y="445" type="curve"/>
      <point x="1083" y="226" type="line" smooth="yes"/>
      <point x="1083" y="168"/>
      <point x="1048" y="136"/>
      <point x="994" y="136" type="curve" smooth="yes"/>
      <point x="933" y="136"/>
      <point x="848" y="194"/>
      <point x="777" y="267" type="curve" smooth="yes"/>
      <point x="701" y="345"/>
      <point x="613" y="432"/>
      <point x="523" y="451" type="curve"/>
    </contour>
    <contour>
      <point x="978" y="639" type="curve" smooth="yes"/>
      <point x="978" y="700"/>
      <point x="1032" y="737"/>
      <point x="1083" y="759" type="curve"/>
      <point x="1083" y="551" type="line"/>
      <point x="1035" y="558"/>
      <point x="978" y="589"/>
    </contour>
    <contour>
      <point x="230" y="257" type="curve" smooth="yes"/>
      <point x="230" y="307"/>
      <point x="287" y="338"/>
      <point x="335" y="345" type="curve"/>
      <point x="335" y="137" type="line"/>
      <point x="284" y="159"/>
      <point x="230" y="196"/>
    </contour>
  </outline>
</glyph>
<glyph name="uni1787" format="2">
  <advance width="1476"/>
  <unicode hex="1787"/>
  <anchor x="1231" y="1743" name="U"/>
  <anchor x="1231" y="0" name="L"/>
  <anchor x="763" y="0" name="lm"/>
  <anchor x="763" y="1743" name="um"/>
  <outline>
    <contour>
      <point x="1043" y="896" type="line"/>
      <point x="1043" y="215" type="line" smooth="yes"/>
      <point x="1043" y="172"/>
      <point x="1038" y="150"/>
      <point x="1014" y="150" type="curve" smooth="yes"/>
      <point x="1003" y="150"/>
      <point x="944" y="191"/>
      <point x="873" y="247" type="curve" smooth="yes"/>
      <point x="837" y="275"/>
      <point x="799" y="300"/>
      <point x="763" y="300" type="curve" smooth="yes"/>
      <point x="727" y="300"/>
      <point x="689" y="275"/>
      <point x="653" y="247" type="curve" smooth="yes"/>
      <point x="582" y="191"/>
      <point x="523" y="150"/>
      <point x="512" y="150" type="curve" smooth="yes"/>
      <point x="488" y="150"/>
      <point x="483" y="172"/>
      <point x="483" y="215" type="curve" smooth="yes"/>
      <point x="483" y="1049" type="line"/>
      <point x="431" y="1049"/>
      <point x="299" y="1110"/>
      <point x="299" y="1171" type="curve" smooth="yes"/>
      <point x="299" y="1257"/>
      <point x="374" y="1290"/>
      <point x="449" y="1290" type="curve" smooth="yes"/>
      <point x="532" y="1290"/>
      <point x="615" y="1242"/>
      <point x="682" y="1197" type="curve" smooth="yes"/>
      <point x="757" y="1148"/>
      <point x="832" y="1103"/>
      <point x="941" y="1103" type="curve" smooth="yes"/>
      <point x="1083" y="1103"/>
      <point x="1231" y="1216"/>
      <point x="1231" y="1374" type="curve" smooth="yes"/>
      <point x="1231" y="1468"/>
      <point x="1215" y="1519"/>
      <point x="1158" y="1602" type="curve" smooth="yes"/>
      <point x="1098" y="1689"/>
      <point x="1026" y="1743"/>
      <point x="930" y="1743" type="curve" smooth="yes"/>
      <point x="843" y="1743"/>
      <point x="813" y="1704"/>
      <point x="813" y="1658" type="curve" smooth="yes"/>
      <point x="813" y="1594"/>
      <point x="887" y="1550"/>
      <point x="951" y="1531" type="curve" smooth="yes"/>
      <point x="1027" y="1509"/>
      <point x="1081" y="1458"/>
      <point x="1081" y="1374" type="curve" smooth="yes"/>
      <point x="1081" y="1325"/>
      <point x="1030" y="1253"/>
      <point x="918" y="1253" type="curve" smooth="yes"/>
      <point x="838" y="1253"/>
      <point x="764" y="1299"/>
      <point x="693" y="1342" type="curve"/>
      <point x="618" y="1393"/>
      <point x="539" y="1440"/>
      <point x="411" y="1440" type="curve" smooth="yes"/>
      <point x="281" y="1440"/>
      <point x="163" y="1336"/>
      <point x="163" y="1197" type="curve" smooth="yes"/>
      <point x="163" y="1118"/>
      <point x="235" y="1061"/>
      <point x="295" y="1029" type="curve"/>
      <point x="295" y="68" type="line" smooth="yes"/>
      <point x="295" y="33"/>
      <point x="338" y="0"/>
      <point x="382" y="0" type="curve" smooth="yes"/>
      <point x="463" y="0" type="line" smooth="yes"/>
      <point x="516" y="0"/>
      <point x="581" y="46"/>
      <point x="613" y="72" type="curve" smooth="yes"/>
      <point x="683" y="128"/>
      <point x="737" y="168"/>
      <point x="763" y="168" type="curve" smooth="yes"/>
      <point x="789" y="168"/>
      <point x="843" y="128"/>
      <point x="913" y="72" type="curve" smooth="yes"/>
      <point x="945" y="46"/>
      <point x="1010" y="0"/>
      <point x="1063" y="0" type="curve" smooth="yes"/>
      <point x="1144" y="0" type="line" smooth="yes"/>
      <point x="1186" y="0"/>
      <point x="1231" y="33"/>
      <point x="1231" y="68" type="curve" smooth="yes"/>
      <point x="1231" y="896" type="line"/>
    </contour>
  </outline>
</glyph>
<glyph name="uni1799" format="2">
  <advance width="2008"/>
  <unicode hex="1799"/>
  <anchor x="1763" y="0" name="L"/>
  <anchor x="1763" y="1440" name="U"/>
  <anchor x="1369" y="1440" name="um"/>
  <anchor x="1369" y="0" name="lm"/>
  <outline>
    <contour>
      <point x="295" y="1361" type="curve"/>
      <point x="295" y="187" type="line" smooth="yes"/>
      <point x="295" y="87"/>
      <point x="533" y="0"/>
      <point x="729" y="0" type="curve" smooth="yes"/>
      <point x="842" y="0"/>
      <point x="975" y="26"/>
      <point x="1063" y="72" type="curve"/>
      <point x="1138" y="26"/>
      <point x="1252" y="0"/>
      <point x="1369" y="0" type="curve" smooth="yes"/>
      <point x="1565" y="0"/>
      <point x="1763" y="87"/>
      <point x="1763" y="187" type="curve" smooth="yes"/>
      <point x="1763" y="980" type="line" smooth="yes"/>
      <point x="1763" y="1024"/>
      <point x="1700" y="1054"/>
      <point x="1621" y="1092" type="curve" smooth="yes"/>
      <point x="1573" y="1115"/>
      <point x="1525" y="1138"/>
      <point x="1525" y="1193" type="curve" smooth="yes"/>
      <point x="1525" y="1242"/>
      <point x="1553" y="1282"/>
      <point x="1589" y="1282" type="curve" smooth="yes"/>
      <point x="1600" y="1282"/>
      <point x="1621" y="1276"/>
      <point x="1651" y="1253" type="curve" smooth="yes"/>
      <point x="1679" y="1231"/>
      <point x="1718" y="1204"/>
      <point x="1782" y="1204" type="curve" smooth="yes"/>
      <point x="1879" y="1204"/>
      <point x="1932" y="1257"/>
      <point x="1936" y="1374" type="curve"/>
      <point x="1913" y="1354"/>
      <point x="1890" y="1346"/>
      <point x="1875" y="1346" type="curve" smooth="yes"/>
      <point x="1834" y="1346"/>
      <point x="1793" y="1370"/>
      <point x="1755" y="1396" type="curve" smooth="yes"/>
      <point x="1721" y="1418"/>
      <point x="1687" y="1440"/>
      <point x="1639" y="1440" type="curve" smooth="yes"/>
      <point x="1525" y="1440"/>
      <point x="1402" y="1306"/>
      <point x="1402" y="1189" type="curve" smooth="yes"/>
      <point x="1402" y="1118"/>
      <point x="1425" y="1063"/>
      <point x="1507" y="1016" type="curve"/>
      <point x="1542" y="1002"/>
      <point x="1575" y="980"/>
      <point x="1575" y="923" type="curve" smooth="yes"/>
      <point x="1575" y="194" type="line" smooth="yes"/>
      <point x="1575" y="139"/>
      <point x="1455" y="112"/>
      <point x="1369" y="112" type="curve" smooth="yes"/>
      <point x="1283" y="112"/>
      <point x="1163" y="139"/>
      <point x="1163" y="194" type="curve" smooth="yes"/>
      <point x="1163" y="980" type="line" smooth="yes"/>
      <point x="1163" y="1024"/>
      <point x="1100" y="1054"/>
      <point x="1021" y="1092" type="curve" smooth="yes"/>
      <point x="973" y="1115"/>
      <point x="925" y="1138"/>
      <point x="925" y="1193" type="curve" smooth="yes"/>
      <point x="925" y="1242"/>
      <point x="953" y="1282"/>
      <point x="989" y="1282" type="curve" smooth="yes"/>
      <point x="1000" y="1282"/>
      <point x="1021" y="1276"/>
      <point x="1051" y="1253" type="curve" smooth="yes"/>
      <point x="1079" y="1231"/>
      <point x="1118" y="1204"/>
      <point x="1182" y="1204" type="curve" smooth="yes"/>
      <point x="1279" y="1204"/>
      <point x="1332" y="1257"/>
      <point x="1336" y="1374" type="curve"/>
      <point x="1313" y="1354"/>
      <point x="1290" y="1346"/>
      <point x="1275" y="1346" type="curve" smooth="yes"/>
      <point x="1234" y="1346"/>
      <point x="1193" y="1370"/>
      <point x="1155" y="1396" type="curve" smooth="yes"/>
      <point x="1121" y="1418"/>
      <point x="1087" y="1440"/>
      <point x="1039" y="1440" type="curve" smooth="yes"/>
      <point x="925" y="1440"/>
      <point x="802" y="1306"/>
      <point x="802" y="1189" type="curve" smooth="yes"/>
      <point x="802" y="1118"/>
      <point x="825" y="1063"/>
      <point x="907" y="1016" type="curve"/>
      <point x="942" y="1002"/>
      <point x="975" y="980"/>
      <point x="975" y="923" type="curve" smooth="yes"/>
      <point x="975" y="194" type="line" smooth="yes"/>
      <point x="975" y="139"/>
      <point x="815" y="112"/>
      <point x="729" y="112" type="curve" smooth="yes"/>
      <point x="643" y="112"/>
      <point x="483" y="139"/>
      <point x="483" y="194" type="curve" smooth="yes"/>
      <point x="483" y="989" type="line"/>
      <point x="610" y="996"/>
      <point x="710" y="1064"/>
      <point x="710" y="1192" type="curve" smooth="yes"/>
      <point x="710" y="1271"/>
      <point x="632" y="1409"/>
      <point x="466" y="1440" type="curve"/>
      <point x="401" y="1440"/>
      <point x="320" y="1424"/>
    </contour>
    <contour>
      <point x="588" y="1183" type="curve" smooth="yes"/>
      <point x="588" y="1133"/>
      <point x="531" y="1102"/>
      <point x="483" y="1095" type="curve"/>
      <point x="483" y="1303" type="line"/>
      <point x="534" y="1281"/>
      <point x="588" y="1244"/>
    </contour>
  </outline>
</glyph>
<glyph name="uni179A" format="2">
  <advance width="768"/>
  <unicode hex="179A"/>
  <anchor x="523" y="1440" name="U"/>
  <anchor x="399" y="1440" name="um"/>
  <anchor x="372" y="0" name="lm"/>
  <outline>
    <contour>
      <point x="523" y="980" type="line" smooth="yes"/>
      <point x="523" y="1024"/>
      <point x="460" y="1054"/>
      <point x="381" y="1092" type="curve" smooth="yes"/>
      <point x="333" y="1115"/>
      <point x="285" y="1138"/>
      <point x="285" y="1193" type="curve" smooth="yes"/>
      <point x="285" y="1242"/>
      <point x="313" y="1282"/>
      <point x="349" y="1282" type="curve" smooth="yes"/>
      <point x="360" y="1282"/>
      <point x="381" y="1276"/>
      <point x="411" y="1253" type="curve" smooth="yes"/>
      <point x="439" y="1231"/>
      <point x="478" y="1204"/>
      <point x="542" y="1204" type="curve" smooth="yes"/>
      <point x="639" y="1204"/>
      <point x="692" y="1257"/>
      <point x="696" y="1374" type="curve"/>
      <point x="673" y="1354"/>
      <point x="650" y="1346"/>
      <point x="635" y="1346" type="curve" smooth="yes"/>
      <point x="594" y="1346"/>
      <point x="553" y="1370"/>
      <point x="515" y="1396" type="curve" smooth="yes"/>
      <point x="481" y="1418"/>
      <point x="447" y="1440"/>
      <point x="399" y="1440" type="curve" smooth="yes"/>
      <point x="285" y="1440"/>
      <point x="162" y="1306"/>
      <point x="162" y="1189" type="curve" smooth="yes"/>
      <point x="162" y="1118"/>
      <point x="185" y="1063"/>
      <point x="267" y="1016" type="curve"/>
      <point x="302" y="1002"/>
      <point x="335" y="980"/>
      <point x="335" y="923" type="curve" smooth="yes"/>
      <point x="335" y="451" type="line"/>
      <point x="208" y="444"/>
      <point x="108" y="376"/>
      <point x="108" y="248" type="curve" smooth="yes"/>
      <point x="108" y="169"/>
      <point x="186" y="31"/>
      <point x="352" y="0" type="curve"/>
      <point x="417" y="0"/>
      <point x="498" y="16"/>
      <point x="523" y="79" type="curve"/>
    </contour>
    <contour>
      <point x="230" y="257" type="curve" smooth="yes"/>
      <point x="230" y="307"/>
      <point x="287" y="338"/>
      <point x="335" y="345" type="curve"/>
      <point x="335" y="137" type="line"/>
      <point x="284" y="159"/>
      <point x="230" y="196"/>
    </contour>
  </outline>
</glyph>
<glyph name="uni179D" format="2">
  <advance width="1476"/>
  <unicode hex="179D"/>
  <anchor x="1231" y="0" name="L"/>
  <anchor x="1231" y="1440" name="U"/>
  <anchor x="763" y="1440" name="um"/>
  <anchor x="763" y="0" name="lm"/>
  <outline>
    <contour>
      <point x="483" y="266" type="curve"/>
      <point x="483" y="920" type="line" smooth="yes"/>
      <point x="483" y="984"/>
      <point x="685" y="1013"/>
      <point x="763" y="1013" type="curve" smooth="yes"/>
      <point x="841" y="1013"/>
      <point x="1043" y="984"/>
      <point x="1043" y="920" type="curve" smooth="yes"/>
      <point x="1043" y="473" type="line"/>
      <point x="1001" y="473"/>
      <point x="985" y="488"/>
      <point x="985" y="515" type="curve" smooth="yes"/>
      <point x="985" y="533"/>
      <point x="1007" y="558"/>
      <point x="1024" y="569" type="curve"/>
      <point x="1007" y="581"/>
      <point x="979" y="590"/>
      <point x="941" y="590" type="curve" smooth="yes"/>
      <point x="865" y="590"/>
      <point x="813" y="541"/>
      <point x="813" y="484" type="curve" smooth="yes"/>
      <point x="813" y="412"/>
      <point x="873" y="334"/>
      <point x="1043" y="334" type="curve"/>
      <point x="1043" y="0" type="line"/>
      <point x="1231" y="0" type="line"/>
      <point x="1231" y="373" type="line"/>
      <point x="1254" y="383"/>
      <point x="1278" y="395"/>
      <point x="1305" y="410" type="curve" smooth="yes"/>
      <point x="1406" y="465"/>
      <point x="1468" y="569"/>
      <point x="1468" y="597" type="curve" smooth="yes"/>
      <point x="1468" y="601"/>
      <point x="1463" y="605"/>
      <point x="1459" y="605" type="curve" smooth="yes"/>
      <point x="1439" y="605"/>
      <point x="1352" y="552"/>
      <point x="1297" y="533" type="curve"/>
      <point x="1282" y="527"/>
      <point x="1258" y="519"/>
      <point x="1231" y="512" type="curve"/>
      <point x="1231" y="938" type="line" smooth="yes"/>
      <point x="1231" y="1038"/>
      <point x="959" y="1123"/>
      <point x="763" y="1123" type="curve" smooth="yes"/>
      <point x="625" y="1123"/>
      <point x="450" y="1078"/>
      <point x="360" y="1016" type="curve"/>
      <point x="325" y="1047"/>
      <point x="299" y="1084"/>
      <point x="299" y="1125" type="curve" smooth="yes"/>
      <point x="299" y="1231"/>
      <point x="374" y="1286"/>
      <point x="449" y="1286" type="curve" smooth="yes"/>
      <point x="577" y="1286"/>
      <point x="670" y="1237"/>
      <point x="758" y="1178" type="curve"/>
      <point x="822" y="1239"/>
      <point x="945" y="1291"/>
      <point x="1030" y="1291" type="curve" smooth="yes"/>
      <point x="1065" y="1291"/>
      <point x="1104" y="1272"/>
      <point x="1127" y="1253" type="curve"/>
      <point x="1160" y="1231"/>
      <point x="1186" y="1208"/>
      <point x="1245" y="1208" type="curve" smooth="yes"/>
      <point x="1333" y="1208"/>
      <point x="1379" y="1244"/>
      <point x="1384" y="1357" type="curve"/>
      <point x="1365" y="1340"/>
      <point x="1346" y="1332"/>
      <point x="1327" y="1332" type="curve" smooth="yes"/>
      <point x="1294" y="1332"/>
      <point x="1259" y="1350"/>
      <point x="1230" y="1374" type="curve" smooth="yes"/>
      <point x="1174" y="1419"/>
      <point x="1117" y="1440"/>
      <point x="1034" y="1440" type="curve" smooth="yes"/>
      <point x="895" y="1440"/>
      <point x="834" y="1392"/>
      <point x="758" y="1321" type="curve"/>
      <point x="663" y="1396"/>
      <point x="554" y="1440"/>
      <point x="407" y="1440" type="curve" smooth="yes"/>
      <point x="257" y="1440"/>
      <point x="163" y="1300"/>
      <point x="163" y="1159" type="curve" smooth="yes"/>
      <point x="163" y="1066"/>
      <point x="239" y="1001"/>
      <point x="302" y="960" type="curve"/>
      <point x="299" y="952"/>
      <point x="295" y="946"/>
      <point x="295" y="938" type="curve" smooth="yes"/>
      <point x="295" y="0" type="line"/>
      <point x="483" y="0" type="line"/>
      <point x="539" y="168"/>
      <point x="585" y="247"/>
      <point x="686" y="247" type="curve" smooth="yes"/>
      <point x="739" y="247"/>
      <point x="783" y="294"/>
      <point x="783" y="330" type="curve" smooth="yes"/>
      <point x="783" y="364"/>
      <point x="760" y="416"/>
      <point x="689" y="416" type="curve" smooth="yes"/>
      <point x="600" y="416"/>
      <point x="525" y="341"/>
    </contour>
  </outline>
</glyph>
<glyph name="uni179F" format="2">
  <advance width="1928"/>
  <unicode hex="179F"/>
  <anchor x="1683" y="0" name="L"/>
  <anchor x="1683" y="1440" name="U"/>
  <anchor x="1289" y="1440" name="um"/>
  <anchor x="989" y="0" name="lm"/>
  <outline>
    <contour>
      <point x="1495" y="923" type="curve" smooth="yes"/>
      <point x="1495" y="194" type="line" smooth="yes"/>
      <point x="1495" y="139"/>
      <point x="1375" y="112"/>
      <point x="1289" y="112" type="curve" smooth="yes"/>
      <point x="1203" y="112"/>
      <point x="1083" y="139"/>
      <point x="1083" y="194" type="curve" smooth="yes"/>
      <point x="1083" y="803" type="line" smooth="yes"/>
      <point x="1083" y="903"/>
      <point x="898" y="979"/>
      <point x="711" y="985" type="curve"/>
      <point x="706" y="1026"/>
      <point x="645" y="1055"/>
      <point x="569" y="1092" type="curve" smooth="yes"/>
      <point x="521" y="1115"/>
      <point x="473" y="1138"/>
      <point x="473" y="1193" type="curve" smooth="yes"/>
      <point x="473" y="1242"/>
      <point x="501" y="1282"/>
      <point x="537" y="1282" type="curve" smooth="yes"/>
      <point x="548" y="1282"/>
      <point x="569" y="1276"/>
      <point x="599" y="1253" type="curve" smooth="yes"/>
      <point x="627" y="1231"/>
      <point x="666" y="1204"/>
      <point x="730" y="1204" type="curve" smooth="yes"/>
      <point x="827" y="1204"/>
      <point x="880" y="1257"/>
      <point x="884" y="1374" type="curve"/>
      <point x="861" y="1354"/>
      <point x="838" y="1346"/>
      <point x="823" y="1346" type="curve" smooth="yes"/>
      <point x="782" y="1346"/>
      <point x="741" y="1370"/>
      <point x="703" y="1396" type="curve" smooth="yes"/>
      <point x="669" y="1418"/>
      <point x="635" y="1440"/>
      <point x="587" y="1440" type="curve" smooth="yes"/>
      <point x="473" y="1440"/>
      <point x="350" y="1306"/>
      <point x="350" y="1189" type="curve" smooth="yes"/>
      <point x="350" y="1118"/>
      <point x="373" y="1063"/>
      <point x="455" y="1016" type="curve"/>
      <point x="480" y="1006"/>
      <point x="503" y="992"/>
      <point x="515" y="964" type="curve"/>
      <point x="391" y="934"/>
      <point x="295" y="874"/>
      <point x="295" y="803" type="curve" smooth="yes"/>
      <point x="295" y="79" type="line"/>
      <point x="320" y="16"/>
      <point x="401" y="0"/>
      <point x="466" y="0" type="curve"/>
      <point x="632" y="31"/>
      <point x="710" y="169"/>
      <point x="710" y="248" type="curve" smooth="yes"/>
      <point x="710" y="376"/>
      <point x="610" y="444"/>
      <point x="483" y="451" type="curve"/>
      <point x="483" y="795" type="line" smooth="yes"/>
      <point x="483" y="850"/>
      <point x="603" y="873"/>
      <point x="689" y="873" type="curve" smooth="yes"/>
      <point x="775" y="873"/>
      <point x="895" y="850"/>
      <point x="895" y="795" type="curve" smooth="yes"/>
      <point x="895" y="187" type="line" smooth="yes"/>
      <point x="895" y="87"/>
      <point x="1093" y="0"/>
      <point x="1289" y="0" type="curve" smooth="yes"/>
      <point x="1485" y="0"/>
      <point x="1683" y="87"/>
      <point x="1683" y="187" type="curve" smooth="yes"/>
      <point x="1683" y="980" type="line" smooth="yes"/>
      <point x="1683" y="1024"/>
      <point x="1620" y="1054"/>
      <point x="1541" y="1092" type="curve" smooth="yes"/>
      <point x="1493" y="1115"/>
      <point x="1445" y="1138"/>
      <point x="1445" y="1193" type="curve" smooth="yes"/>
      <point x="1445" y="1242"/>
      <point x="1473" y="1282"/>
      <point x="1509" y="1282" type="curve" smooth="yes"/>
      <point x="1520" y="1282"/>
      <point x="1541" y="1276"/>
      <point x="1571" y="1253" type="curve" smooth="yes"/>
      <point x="1599" y="1231"/>
      <point x="1638" y="1204"/>
      <point x="1702" y="1204" type="curve" smooth="yes"/>
      <point x="1799" y="1204"/>
      <point x="1852" y="1257"/>
      <point x="1856" y="1374" type="curve"/>
      <point x="1833" y="1354"/>
      <point x="1810" y="1346"/>
      <point x="1795" y="1346" type="curve" smooth="yes"/>
      <point x="1754" y="1346"/>
      <point x="1713" y="1370"/>
      <point x="1675" y="1396" type="curve" smooth="yes"/>
      <point x="1641" y="1418"/>
      <point x="1607" y="1440"/>
      <point x="1559" y="1440" type="curve" smooth="yes"/>
      <point x="1445" y="1440"/>
      <point x="1322" y="1306"/>
      <point x="1322" y="1189" type="curve" smooth="yes"/>
      <point x="1322" y="1118"/>
      <point x="1345" y="1063"/>
      <point x="1427" y="1016" type="curve"/>
      <point x="1462" y="1002"/>
      <point x="1495" y="980"/>
    </contour>
    <contour>
      <point x="588" y="257" type="curve" smooth="yes"/>
      <point x="588" y="196"/>
      <point x="534" y="159"/>
      <point x="483" y="137" type="curve"/>
      <point x="483" y="345" type="line"/>
      <point x="531" y="338"/>
      <point x="588" y="307"/>
    </contour>
  </outline>
  <guideline angle="90" x="1683" y="0"/>
  <guideline angle="90" x="295" y="0"/>
</glyph>
<glyph name="uni17A8" format="2">
  <advance width="1358"/>
  <unicode hex="17A8"/>
  <anchor x="1192" y="1747" name="U"/>
  <anchor x="1192" y="-230" name="L"/>
  <anchor x="671" y="1747" name="um"/>
  <anchor x="704" y="-230" name="lm"/>
  <outline>
    <contour>
      <point x="425" y="322" type="curve"/>
      <point x="631" y="394"/>
      <point x="1192" y="676"/>
      <point x="1192" y="1024" type="curve" smooth="yes"/>
      <point x="1192" y="1295"/>
      <point x="983" y="1440"/>
      <point x="671" y="1440" type="curve" smooth="yes"/>
      <point x="475" y="1440"/>
      <point x="217" y="1332"/>
      <point x="217" y="1118" type="curve" smooth="yes"/>
      <point x="217" y="1016"/>
      <point x="253" y="949"/>
      <point x="332" y="888" type="curve"/>
      <point x="370" y="863"/>
      <point x="412" y="852"/>
      <point x="468" y="852" type="curve" smooth="yes"/>
      <point x="557" y="852"/>
      <point x="633" y="905"/>
      <point x="633" y="984" type="curve" smooth="yes"/>
      <point x="633" y="1039"/>
      <point x="580" y="1078"/>
      <point x="514" y="1078" type="curve" smooth="yes"/>
      <point x="472" y="1078"/>
      <point x="443" y="1067"/>
      <point x="416" y="1046" type="curve"/>
      <point x="409" y="1063"/>
      <point x="405" y="1088"/>
      <point x="405" y="1125" type="curve" smooth="yes"/>
      <point x="405" y="1231"/>
      <point x="517" y="1310"/>
      <point x="689" y="1310" type="curve" smooth="yes"/>
      <point x="869" y="1310"/>
      <point x="1004" y="1235"/>
      <point x="1004" y="1024" type="curve" smooth="yes"/>
      <point x="1004" y="720"/>
      <point x="370" y="467"/>
      <point x="217" y="425" type="curve"/>
      <point x="217" y="256"/>
      <point x="372" y="0"/>
      <point x="597" y="0" type="curve" smooth="yes"/>
      <point x="796" y="0"/>
      <point x="934" y="134"/>
      <point x="1004" y="209" type="curve"/>
      <point x="1004" y="-170" type="line" smooth="yes"/>
      <point x="1004" y="-197"/>
      <point x="1017" y="-230"/>
      <point x="1043" y="-230" type="curve" smooth="yes"/>
      <point x="1225" y="-230" type="line"/>
      <point x="1201" y="-227"/>
      <point x="1192" y="-196"/>
      <point x="1192" y="-170" type="curve" smooth="yes"/>
      <point x="1192" y="584" type="line"/>
      <point x="1004" y="584" type="line"/>
      <point x="1004" y="409" type="line"/>
      <point x="974" y="339"/>
      <point x="789" y="130"/>
      <point x="604" y="130" type="curve" smooth="yes"/>
      <point x="498" y="130"/>
      <point x="425" y="269"/>
    </contour>
    <contour>
      <point x="671" y="1629" type="curve"/>
      <point x="611" y="1700"/>
      <point x="575" y="1747"/>
      <point x="439" y="1747" type="curve" smooth="yes"/>
      <point x="371" y="1747"/>
      <point x="299" y="1726"/>
      <point x="243" y="1681" type="curve" smooth="yes"/>
      <point x="213" y="1658"/>
      <point x="180" y="1640"/>
      <point x="145" y="1640" type="curve" smooth="yes"/>
      <point x="128" y="1640"/>
      <point x="109" y="1647"/>
      <point x="88" y="1666" type="curve"/>
      <point x="92" y="1550"/>
      <point x="141" y="1515"/>
      <point x="228" y="1515" type="curve" smooth="yes"/>
      <point x="284" y="1515"/>
      <point x="314" y="1538"/>
      <point x="345" y="1562" type="curve" smooth="yes"/>
      <point x="367" y="1579"/>
      <point x="416" y="1598"/>
      <point x="450" y="1598" type="curve" smooth="yes"/>
      <point x="535" y="1598"/>
      <point x="607" y="1546"/>
      <point x="671" y="1485" type="curve"/>
      <point x="735" y="1546"/>
      <point x="807" y="1598"/>
      <point x="892" y="1598" type="curve" smooth="yes"/>
      <point x="926" y="1598"/>
      <point x="975" y="1579"/>
      <point x="997" y="1562" type="curve" smooth="yes"/>
      <point x="1028" y="1538"/>
      <point x="1058" y="1515"/>
      <point x="1114" y="1515" type="curve" smooth="yes"/>
      <point x="1201" y="1515"/>
      <point x="1250" y="1550"/>
      <point x="1254" y="1666" type="curve"/>
      <point x="1233" y="1647"/>
      <point x="1214" y="1640"/>
      <point x="1197" y="1640" type="curve" smooth="yes"/>
      <point x="1162" y="1640"/>
      <point x="1129" y="1658"/>
      <point x="1099" y="1681" type="curve" smooth="yes"/>
      <point x="1043" y="1726"/>
      <point x="971" y="1747"/>
      <point x="903" y="1747" type="curve" smooth="yes"/>
      <point x="767" y="1747"/>
      <point x="731" y="1700"/>
    </contour>
  </outline>
</glyph>
<glyph name="uni17A9" format="2">
  <advance width="1586"/>
  <unicode hex="17A9"/>
  <anchor x="1192" y="1440" name="U"/>
  <anchor x="1488" y="0" name="L"/>
  <anchor x="680" y="1440" name="um"/>
  <anchor x="852" y="0" name="lm"/>
  <outline>
    <contour>
      <point x="1300" y="0" type="line"/>
      <point x="1488" y="0" type="line"/>
      <point x="1488" y="584" type="line"/>
      <point x="1300" y="584" type="line"/>
    </contour>
    <contour>
      <point x="425" y="322" type="curve"/>
      <point x="631" y="394"/>
      <point x="1192" y="676"/>
      <point x="1192" y="1024" type="curve" smooth="yes"/>
      <point x="1192" y="1295"/>
      <point x="983" y="1440"/>
      <point x="671" y="1440" type="curve" smooth="yes"/>
      <point x="475" y="1440"/>
      <point x="217" y="1332"/>
      <point x="217" y="1118" type="curve" smooth="yes"/>
      <point x="217" y="1016"/>
      <point x="253" y="949"/>
      <point x="332" y="888" type="curve"/>
      <point x="370" y="863"/>
      <point x="412" y="852"/>
      <point x="468" y="852" type="curve" smooth="yes"/>
      <point x="557" y="852"/>
      <point x="633" y="905"/>
      <point x="633" y="984" type="curve" smooth="yes"/>
      <point x="633" y="1039"/>
      <point x="580" y="1078"/>
      <point x="514" y="1078" type="curve" smooth="yes"/>
      <point x="472" y="1078"/>
      <point x="443" y="1067"/>
      <point x="416" y="1046" type="curve"/>
      <point x="409" y="1063"/>
      <point x="405" y="1088"/>
      <point x="405" y="1125" type="curve" smooth="yes"/>
      <point x="405" y="1231"/>
      <point x="517" y="1310"/>
      <point x="689" y="1310" type="curve" smooth="yes"/>
      <point x="869" y="1310"/>
      <point x="1004" y="1235"/>
      <point x="1004" y="1024" type="curve" smooth="yes"/>
      <point x="1004" y="720"/>
      <point x="370" y="467"/>
      <point x="217" y="425" type="curve"/>
      <point x="217" y="256"/>
      <point x="372" y="0"/>
      <point x="597" y="0" type="curve" smooth="yes"/>
      <point x="796" y="0"/>
      <point x="934" y="134"/>
      <point x="1004" y="209" type="curve"/>
      <point x="1004" y="60" type="line" smooth="yes"/>
      <point x="1004" y="33"/>
      <point x="1017" y="0"/>
      <point x="1043" y="0" type="curve" smooth="yes"/>
      <point x="1225" y="0" type="line"/>
      <point x="1201" y="3"/>
      <point x="1192" y="34"/>
      <point x="1192" y="60" type="curve" smooth="yes"/>
      <point x="1192" y="584" type="line"/>
      <point x="1004" y="584" type="line"/>
      <point x="1004" y="409" type="line"/>
      <point x="974" y="339"/>
      <point x="789" y="130"/>
      <point x="604" y="130" type="curve" smooth="yes"/>
      <point x="498" y="130"/>
      <point x="425" y="269"/>
    </contour>
  </outline>
</glyph>
<glyph name="uni17AD" format="2">
  <advance width="1476"/>
  <unicode hex="17AD"/>
  <anchor x="1231" y="-598" name="L"/>
  <anchor x="1231" y="1440" name="U"/>
  <anchor x="763" y="1440" name="um"/>
  <anchor x="763" y="-598" name="lm"/>
  <outline>
    <contour>
      <point x="1231" y="0" type="line"/>
      <point x="1231" y="1182" type="line" smooth="yes"/>
      <point x="1231" y="1242"/>
      <point x="1085" y="1440"/>
      <point x="984" y="1440" type="curve" smooth="yes"/>
      <point x="931" y="1440"/>
      <point x="887" y="1396"/>
      <point x="846" y="1350" type="curve" smooth="yes"/>
      <point x="813" y="1313"/>
      <point x="774" y="1276"/>
      <point x="763" y="1276" type="curve" smooth="yes"/>
      <point x="752" y="1276"/>
      <point x="713" y="1313"/>
      <point x="680" y="1350" type="curve" smooth="yes"/>
      <point x="639" y="1396"/>
      <point x="595" y="1440"/>
      <point x="542" y="1440" type="curve" smooth="yes"/>
      <point x="441" y="1440"/>
      <point x="295" y="1242"/>
      <point x="295" y="1182" type="curve" smooth="yes"/>
      <point x="295" y="79" type="line"/>
      <point x="320" y="16"/>
      <point x="401" y="0"/>
      <point x="466" y="0" type="curve"/>
      <point x="632" y="31"/>
      <point x="710" y="169"/>
      <point x="710" y="248" type="curve" smooth="yes"/>
      <point x="710" y="376"/>
      <point x="610" y="444"/>
      <point x="483" y="451" type="curve"/>
      <point x="483" y="1145" type="line" smooth="yes"/>
      <point x="483" y="1193"/>
      <point x="539" y="1272"/>
      <point x="564" y="1272" type="curve" smooth="yes"/>
      <point x="568" y="1272"/>
      <point x="604" y="1238"/>
      <point x="636" y="1204" type="curve" smooth="yes"/>
      <point x="673" y="1163"/>
      <point x="714" y="1121"/>
      <point x="763" y="1121" type="curve" smooth="yes"/>
      <point x="812" y="1121"/>
      <point x="853" y="1163"/>
      <point x="890" y="1204" type="curve" smooth="yes"/>
      <point x="922" y="1238"/>
      <point x="958" y="1272"/>
      <point x="962" y="1272" type="curve" smooth="yes"/>
      <point x="987" y="1272"/>
      <point x="1043" y="1193"/>
      <point x="1043" y="1145" type="curve" smooth="yes"/>
      <point x="1043" y="0" type="line"/>
    </contour>
    <contour>
      <point x="913" y="-262" type="curve" smooth="yes"/>
      <point x="913" y="-332"/>
      <point x="977" y="-371"/>
      <point x="1032" y="-375" type="curve"/>
      <point x="1032" y="-401" type="line" smooth="yes"/>
      <point x="1032" y="-461"/>
      <point x="977" y="-487"/>
      <point x="935" y="-487" type="curve" smooth="yes"/>
      <point x="863" y="-487"/>
      <point x="799" y="-428"/>
      <point x="729" y="-349" type="curve" smooth="yes"/>
      <point x="649" y="-258"/>
      <point x="534" y="-179"/>
      <point x="417" y="-179" type="curve" smooth="yes"/>
      <point x="219" y="-179"/>
      <point x="162" y="-364"/>
      <point x="162" y="-405" type="curve"/>
      <point x="262" y="-303"/>
      <point x="315" y="-288"/>
      <point x="394" y="-288" type="curve" smooth="yes"/>
      <point x="484" y="-288"/>
      <point x="587" y="-386"/>
      <point x="645" y="-458" type="curve"/>
      <point x="717" y="-537"/>
      <point x="826" y="-605"/>
      <point x="924" y="-605" type="curve" smooth="yes"/>
      <point x="1142" y="-605"/>
      <point x="1231" y="-484"/>
      <point x="1231" y="-303" type="curve" smooth="yes"/>
      <point x="1231" y="-203"/>
      <point x="1135" y="-150"/>
      <point x="1052" y="-150" type="curve" smooth="yes"/>
      <point x="978" y="-150"/>
      <point x="913" y="-199"/>
    </contour>
    <contour>
      <point x="588" y="257" type="curve" smooth="yes"/>
      <point x="588" y="196"/>
      <point x="534" y="159"/>
      <point x="483" y="137" type="curve"/>
      <point x="483" y="345" type="line"/>
      <point x="531" y="338"/>
      <point x="588" y="307"/>
    </contour>
  </outline>
</glyph>
<glyph name="uni17B1" format="2">
  <advance width="1358"/>
  <unicode hex="17B1"/>
  <anchor x="1192" y="1812" name="U"/>
  <anchor x="1192" y="-230" name="L"/>
  <anchor x="704" y="1812" name="um"/>
  <anchor x="704" y="-230" name="lm"/>
  <outline>
    <contour>
      <point x="334" y="1389" type="curve"/>
      <point x="458" y="1421" type="line"/>
      <point x="416" y="1421"/>
      <point x="287" y="1485"/>
      <point x="287" y="1561" type="curve" smooth="yes"/>
      <point x="287" y="1632"/>
      <point x="348" y="1662"/>
      <point x="424" y="1662" type="curve" smooth="yes"/>
      <point x="469" y="1662"/>
      <point x="533" y="1625"/>
      <point x="612" y="1564" type="curve"/>
      <point x="684" y="1515"/>
      <point x="739" y="1478"/>
      <point x="882" y="1478" type="curve" smooth="yes"/>
      <point x="1014" y="1478"/>
      <point x="1092" y="1561"/>
      <point x="1110" y="1610" type="curve"/>
      <point x="1059" y="1594"/>
      <point x="1031" y="1594"/>
      <point x="1010" y="1594" type="curve" smooth="yes"/>
      <point x="896" y="1594"/>
      <point x="777" y="1647"/>
      <point x="701" y="1701" type="curve" smooth="yes"/>
      <point x="612" y="1764"/>
      <point x="541" y="1812"/>
      <point x="409" y="1812" type="curve" smooth="yes"/>
      <point x="258" y="1812"/>
      <point x="151" y="1719"/>
      <point x="151" y="1587" type="curve" smooth="yes"/>
      <point x="151" y="1468"/>
      <point x="282" y="1400"/>
    </contour>
    <contour>
      <point x="425" y="322" type="curve"/>
      <point x="631" y="394"/>
      <point x="1192" y="676"/>
      <point x="1192" y="1024" type="curve" smooth="yes"/>
      <point x="1192" y="1295"/>
      <point x="983" y="1440"/>
      <point x="671" y="1440" type="curve" smooth="yes"/>
      <point x="475" y="1440"/>
      <point x="217" y="1332"/>
      <point x="217" y="1118" type="curve" smooth="yes"/>
      <point x="217" y="1016"/>
      <point x="253" y="949"/>
      <point x="332" y="888" type="curve"/>
      <point x="370" y="863"/>
      <point x="412" y="852"/>
      <point x="468" y="852" type="curve" smooth="yes"/>
      <point x="557" y="852"/>
      <point x="633" y="905"/>
      <point x="633" y="984" type="curve" smooth="yes"/>
      <point x="633" y="1039"/>
      <point x="580" y="1078"/>
      <point x="514" y="1078" type="curve" smooth="yes"/>
      <point x="472" y="1078"/>
      <point x="443" y="1067"/>
      <point x="416" y="1046" type="curve"/>
      <point x="409" y="1063"/>
      <point x="405" y="1088"/>
      <point x="405" y="1125" type="curve" smooth="yes"/>
      <point x="405" y="1231"/>
      <point x="517" y="1310"/>
      <point x="689" y="1310" type="curve" smooth="yes"/>
      <point x="869" y="1310"/>
      <point x="1004" y="1235"/>
      <point x="1004" y="1024" type="curve" smooth="yes"/>
      <point x="1004" y="720"/>
      <point x="370" y="467"/>
      <point x="217" y="425" type="curve"/>
      <point x="217" y="256"/>
      <point x="372" y="0"/>
      <point x="597" y="0" type="curve" smooth="yes"/>
      <point x="796" y="0"/>
      <point x="934" y="134"/>
      <point x="1004" y="209" type="curve"/>
      <point x="1004" y="-170" type="line" smooth="yes"/>
      <point x="1004" y="-197"/>
      <point x="1017" y="-230"/>
      <point x="1043" y="-230" type="curve" smooth="yes"/>
      <point x="1225" y="-230" type="line"/>
      <point x="1201" y="-227"/>
      <point x="1192" y="-196"/>
      <point x="1192" y="-170" type="curve" smooth="yes"/>
      <point x="1192" y="584" type="line"/>
      <point x="1004" y="584" type="line"/>
      <point x="1004" y="409" type="line"/>
      <point x="974" y="339"/>
      <point x="789" y="130"/>
      <point x="604" y="130" type="curve" smooth="yes"/>
      <point x="498" y="130"/>
      <point x="425" y="269"/>
    </contour>
  </outline>
</glyph>
<glyph name="uni17B2" format="2">
  <advance width="1595"/>
  <unicode hex="17B2"/>
  <anchor x="1350" y="1440" name="U"/>
  <anchor x="1350" y="0" name="L"/>
  <anchor x="822" y="1440" name="um"/>
  <anchor x="822" y="0" name="lm"/>
  <outline>
    <contour>
      <point x="1274" y="1440" type="curve" smooth="yes"/>
      <point x="530" y="1440" type="line" smooth="yes"/>
      <point x="406" y="1440"/>
      <point x="295" y="1348"/>
      <point x="295" y="1257" type="curve" smooth="yes"/>
      <point x="295" y="183" type="line" smooth="yes"/>
      <point x="295" y="88"/>
      <point x="416" y="0"/>
      <point x="530" y="0" type="curve" smooth="yes"/>
      <point x="965" y="0" type="line" smooth="yes"/>
      <point x="1181" y="0"/>
      <point x="1350" y="139"/>
      <point x="1350" y="330" type="curve" smooth="yes"/>
      <point x="1350" y="454"/>
      <point x="1295" y="498"/>
      <point x="1295" y="513" type="curve" smooth="yes"/>
      <point x="1295" y="528"/>
      <point x="1350" y="586"/>
      <point x="1350" y="696" type="curve" smooth="yes"/>
      <point x="1350" y="886"/>
      <point x="1181" y="1030"/>
      <point x="974" y="1030" type="curve" smooth="yes"/>
      <point x="787" y="1030"/>
      <point x="645" y="885"/>
      <point x="645" y="791" type="curve" smooth="yes"/>
      <point x="645" y="757"/>
      <point x="688" y="728"/>
      <point x="728" y="728" type="curve" smooth="yes"/>
      <point x="771" y="728"/>
      <point x="809" y="748"/>
      <point x="824" y="773" type="curve" smooth="yes"/>
      <point x="847" y="810"/>
      <point x="891" y="880"/>
      <point x="974" y="880" type="curve" smooth="yes"/>
      <point x="1080" y="880"/>
      <point x="1162" y="806"/>
      <point x="1162" y="696" type="curve" smooth="yes"/>
      <point x="1162" y="586"/>
      <point x="1071" y="528"/>
      <point x="998" y="517" type="curve"/>
      <point x="995" y="517"/>
      <point x="994" y="515"/>
      <point x="994" y="513" type="curve" smooth="yes"/>
      <point x="994" y="511"/>
      <point x="995" y="509"/>
      <point x="998" y="509" type="curve"/>
      <point x="1071" y="498"/>
      <point x="1162" y="439"/>
      <point x="1162" y="330" type="curve" smooth="yes"/>
      <point x="1162" y="220"/>
      <point x="1076" y="150"/>
      <point x="960" y="150" type="curve" smooth="yes"/>
      <point x="575" y="150" type="line" smooth="yes"/>
      <point x="530" y="150"/>
      <point x="483" y="186"/>
      <point x="483" y="223" type="curve" smooth="yes"/>
      <point x="483" y="1216" type="line" smooth="yes"/>
      <point x="483" y="1253"/>
      <point x="530" y="1290"/>
      <point x="575" y="1290" type="curve" smooth="yes"/>
      <point x="1274" y="1290" type="line" smooth="yes"/>
      <point x="1329" y="1290"/>
      <point x="1350" y="1305"/>
      <point x="1350" y="1327" type="curve" smooth="yes"/>
      <point x="1350" y="1459" type="line"/>
      <point x="1338" y="1440"/>
      <point x="1291" y="1440"/>
    </contour>
  </outline>
</glyph>
<glyph name="uni17CC" format="2">
  <unicode hex="17CC"/>
  <anchor x="-719" y="1440" name="_um"/>
  <anchor x="-719" y="2056" name="um"/>
  <anchor x="-245" y="2056" name="U"/>
  <outline>
    <contour>
      <point x="-934" y="1500" type="curve"/>
      <point x="-812" y="1556" type="line"/>
      <point x="-841" y="1645"/>
      <point x="-912" y="1684"/>
      <point x="-976" y="1706" type="curve"/>
      <point x="-1002" y="1713"/>
      <point x="-1028" y="1724"/>
      <point x="-1028" y="1752" type="curve" smooth="yes"/>
      <point x="-1028" y="1830"/>
      <point x="-950" y="1878"/>
      <point x="-872" y="1878" type="curve" smooth="yes"/>
      <point x="-833" y="1878"/>
      <point x="-773" y="1841"/>
      <point x="-725" y="1803" type="curve" smooth="yes"/>
      <point x="-665" y="1756"/>
      <point x="-579" y="1719"/>
      <point x="-486" y="1719" type="curve" smooth="yes"/>
      <point x="-293" y="1719"/>
      <point x="-239" y="1894"/>
      <point x="-239" y="1969" type="curve" smooth="yes"/>
      <point x="-239" y="1999"/>
      <point x="-256" y="2056"/>
      <point x="-328" y="2056" type="curve" smooth="yes"/>
      <point x="-379" y="2056"/>
      <point x="-409" y="2014"/>
      <point x="-409" y="1984" type="curve" smooth="yes"/>
      <point x="-409" y="1931"/>
      <point x="-435" y="1849"/>
      <point x="-486" y="1849" type="curve" smooth="yes"/>
      <point x="-522" y="1849"/>
      <point x="-567" y="1878"/>
      <point x="-616" y="1916" type="curve" smooth="yes"/>
      <point x="-672" y="1960"/>
      <point x="-751" y="2018"/>
      <point x="-859" y="2018" type="curve" smooth="yes"/>
      <point x="-1084" y="2018"/>
      <point x="-1198" y="1860"/>
      <point x="-1198" y="1752" type="curve" smooth="yes"/>
      <point x="-1198" y="1638"/>
      <point x="-1127" y="1620"/>
      <point x="-1051" y="1597" type="curve" smooth="yes"/>
      <point x="-1006" y="1583"/>
      <point x="-958" y="1556"/>
    </contour>
  </outline>
</glyph>
<glyph name="uni17D1" format="2">
  <unicode hex="17D1"/>
  <anchor x="-719" y="1440" name="_um"/>
  <anchor x="-719" y="1750" name="um"/>
  <anchor x="-245" y="1800" name="U"/>
  <outline>
    <contour>
      <point x="-1181" y="1630" type="line"/>
      <point x="-245" y="1630" type="line"/>
      <point x="-245" y="1800" type="line"/>
      <point x="-1181" y="1800" type="line"/>
    </contour>
  </outline>
</glyph>
<glyph name="uni17D4" format="2">
  <advance width="2265"/>
  <unicode hex="17D4"/>
  <outline>
    <contour>
      <point x="1674" y="0" type="line"/>
      <point x="1674" y="1440" type="line"/>
      <point x="1448" y="1440" type="line"/>
      <point x="1448" y="1354"/>
      <point x="1314" y="1095"/>
      <point x="1179" y="1095" type="curve" smooth="yes"/>
      <point x="1093" y="1095"/>
      <point x="1093" y="1204"/>
      <point x="1093" y="1238" type="curve"/>
      <point x="1155" y="1250"/>
      <point x="1222" y="1314"/>
      <point x="1222" y="1370" type="curve" smooth="yes"/>
      <point x="1222" y="1425"/>
      <point x="1182" y="1478"/>
      <point x="1073" y="1478" type="curve" smooth="yes"/>
      <point x="949" y="1478"/>
      <point x="867" y="1378"/>
      <point x="867" y="1238" type="curve" smooth="yes"/>
      <point x="867" y="1125"/>
      <point x="979" y="983"/>
      <point x="1144" y="983" type="curve" smooth="yes"/>
      <point x="1279" y="983"/>
      <point x="1388" y="1084"/>
      <point x="1448" y="1182" type="curve"/>
      <point x="1448" y="0" type="line"/>
    </contour>
  </outline>
</glyph>
<glyph name="uni17D6" format="2">
  <advance width="1502"/>
  <unicode hex="17D6"/>
  <outline>
    <contour>
      <point x="1251" y="805" type="line"/>
      <point x="763" y="805" type="line"/>
      <point x="763" y="635" type="line"/>
      <point x="1251" y="635" type="line"/>
    </contour>
    <contour>
      <point x="761" y="1135" type="curve" smooth="yes"/>
      <point x="761" y="1013"/>
      <point x="868" y="910"/>
      <point x="1004" y="910" type="curve" smooth="yes"/>
      <point x="1140" y="910"/>
      <point x="1247" y="1013"/>
      <point x="1247" y="1135" type="curve" smooth="yes"/>
      <point x="1247" y="1257"/>
      <point x="1140" y="1360"/>
      <point x="1004" y="1360" type="curve" smooth="yes"/>
      <point x="868" y="1360"/>
      <point x="761" y="1257"/>
    </contour>
    <contour>
      <point x="929" y="1135" type="curve" smooth="yes"/>
      <point x="929" y="1177"/>
      <point x="962" y="1210"/>
      <point x="1004" y="1210" type="curve" smooth="yes"/>
      <point x="1046" y="1210"/>
      <point x="1079" y="1177"/>
      <point x="1079" y="1135" type="curve" smooth="yes"/>
      <point x="1079" y="1093"/>
      <point x="1046" y="1060"/>
      <point x="1004" y="1060" type="curve" smooth="yes"/>
      <point x="962" y="1060"/>
      <point x="929" y="1093"/>
    </contour>
    <contour>
      <point x="761" y="305" type="curve" smooth="yes"/>
      <point x="761" y="183"/>
      <point x="868" y="80"/>
      <point x="1004" y="80" type="curve" smooth="yes"/>
      <point x="1140" y="80"/>
      <point x="1247" y="183"/>
      <point x="1247" y="305" type="curve" smooth="yes"/>
      <point x="1247" y="427"/>
      <point x="1140" y="530"/>
      <point x="1004" y="530" type="curve" smooth="yes"/>
      <point x="868" y="530"/>
      <point x="761" y="427"/>
    </contour>
    <contour>
      <point x="929" y="305" type="curve" smooth="yes"/>
      <point x="929" y="347"/>
      <point x="962" y="380"/>
      <point x="1004" y="380" type="curve" smooth="yes"/>
      <point x="1046" y="380"/>
      <point x="1079" y="347"/>
      <point x="1079" y="305" type="curve" smooth="yes"/>
      <point x="1079" y="263"/>
      <point x="1046" y="230"/>
      <point x="1004" y="230" type="curve" smooth="yes"/>
      <point x="962" y="230"/>
      <point x="929" y="263"/>
    </contour>
  </outline>
</glyph>
<glyph name="uni17DC" format="2">
  <advance width="1355"/>
  <unicode hex="17DC"/>
  <anchor x="1192" y="1440" name="U"/>
  <anchor x="1192" y="0" name="L"/>
  <anchor x="696" y="1440" name="um"/>
  <anchor x="680" y="0" name="lm"/>
  <outline>
    <contour>
      <point x="1192" y="416" type="curve" smooth="yes"/>
      <point x="1192" y="764"/>
      <point x="631" y="1046"/>
      <point x="425" y="1118" type="curve"/>
      <point x="456" y="1208"/>
      <point x="545" y="1310"/>
      <point x="705" y="1310" type="curve" smooth="yes"/>
      <point x="867" y="1310"/>
      <point x="1064" y="1218"/>
      <point x="1064" y="1028" type="curve" smooth="yes"/>
      <point x="1064" y="949"/>
      <point x="1057" y="892"/>
      <point x="1034" y="839" type="curve"/>
      <point x="1128" y="882"/>
      <point x="1192" y="986"/>
      <point x="1192" y="1065" type="curve" smooth="yes"/>
      <point x="1192" y="1118"/>
      <point x="1185" y="1218"/>
      <point x="1121" y="1286" type="curve" smooth="yes"/>
      <point x="1034" y="1380"/>
      <point x="920" y="1440"/>
      <point x="687" y="1440" type="curve" smooth="yes"/>
      <point x="431" y="1440"/>
      <point x="217" y="1233"/>
      <point x="217" y="1015" type="curve"/>
      <point x="370" y="973"/>
      <point x="1004" y="720"/>
      <point x="1004" y="416" type="curve" smooth="yes"/>
      <point x="1004" y="205"/>
      <point x="869" y="130"/>
      <point x="689" y="130" type="curve" smooth="yes"/>
      <point x="517" y="130"/>
      <point x="405" y="209"/>
      <point x="405" y="315" type="curve" smooth="yes"/>
      <point x="405" y="352"/>
      <point x="409" y="377"/>
      <point x="416" y="394" type="curve"/>
      <point x="443" y="373"/>
      <point x="472" y="362"/>
      <point x="514" y="362" type="curve" smooth="yes"/>
      <point x="580" y="362"/>
      <point x="633" y="401"/>
      <point x="633" y="456" type="curve" smooth="yes"/>
      <point x="633" y="535"/>
      <point x="557" y="588"/>
      <point x="468" y="588" type="curve" smooth="yes"/>
      <point x="412" y="588"/>
      <point x="370" y="577"/>
      <point x="332" y="552" type="curve"/>
      <point x="253" y="491"/>
      <point x="217" y="424"/>
      <point x="217" y="322" type="curve" smooth="yes"/>
      <point x="217" y="108"/>
      <point x="475" y="0"/>
      <point x="671" y="0" type="curve" smooth="yes"/>
      <point x="983" y="0"/>
      <point x="1192" y="145"/>
    </contour>
  </outline>
</glyph>
<glyph name="uni17E2" format="2">
  <advance width="1622"/>
  <unicode hex="17E2"/>
  <outline>
    <contour>
      <point x="1279" y="203" type="line" smooth="yes"/>
      <point x="1279" y="148"/>
      <point x="973" y="111"/>
      <point x="845" y="111" type="curve" smooth="yes"/>
      <point x="717" y="111"/>
      <point x="411" y="148"/>
      <point x="411" y="203" type="curve" smooth="yes"/>
      <point x="411" y="1385" type="line" smooth="yes"/>
      <point x="411" y="1536"/>
      <point x="331" y="1646"/>
      <point x="283" y="1692" type="curve"/>
      <point x="252" y="1718"/>
      <point x="208" y="1743"/>
      <point x="105" y="1743" type="curve" smooth="yes"/>
      <point x="23" y="1743"/>
      <point x="-52" y="1675"/>
      <point x="-63" y="1632" type="curve"/>
      <point x="8" y="1658"/>
      <point x="37" y="1658"/>
      <point x="61" y="1658" type="curve" smooth="yes"/>
      <point x="177" y="1658"/>
      <point x="223" y="1457"/>
      <point x="223" y="1365" type="curve" smooth="yes"/>
      <point x="223" y="164" type="line" smooth="yes"/>
      <point x="223" y="64"/>
      <point x="597" y="0"/>
      <point x="845" y="0" type="curve" smooth="yes"/>
      <point x="1093" y="0"/>
      <point x="1467" y="64"/>
      <point x="1467" y="164" type="curve" smooth="yes"/>
      <point x="1467" y="1182" type="line" smooth="yes"/>
      <point x="1467" y="1242"/>
      <point x="1321" y="1440"/>
      <point x="1220" y="1440" type="curve" smooth="yes"/>
      <point x="1167" y="1440"/>
      <point x="1123" y="1396"/>
      <point x="1082" y="1350" type="curve" smooth="yes"/>
      <point x="1049" y="1313"/>
      <point x="1010" y="1276"/>
      <point x="999" y="1276" type="curve" smooth="yes"/>
      <point x="988" y="1276"/>
      <point x="949" y="1313"/>
      <point x="916" y="1350" type="curve" smooth="yes"/>
      <point x="875" y="1396"/>
      <point x="831" y="1440"/>
      <point x="778" y="1440" type="curve" smooth="yes"/>
      <point x="677" y="1440"/>
      <point x="531" y="1242"/>
      <point x="531" y="1182" type="curve" smooth="yes"/>
      <point x="531" y="599" type="line"/>
      <point x="556" y="536"/>
      <point x="637" y="520"/>
      <point x="702" y="520" type="curve"/>
      <point x="868" y="551"/>
      <point x="946" y="689"/>
      <point x="946" y="768" type="curve" smooth="yes"/>
      <point x="946" y="896"/>
      <point x="846" y="964"/>
      <point x="719" y="971" type="curve"/>
      <point x="719" y="1145" type="line" smooth="yes"/>
      <point x="719" y="1193"/>
      <point x="775" y="1272"/>
      <point x="800" y="1272" type="curve" smooth="yes"/>
      <point x="804" y="1272"/>
      <point x="840" y="1238"/>
      <point x="872" y="1204" type="curve" smooth="yes"/>
      <point x="909" y="1163"/>
      <point x="950" y="1121"/>
      <point x="999" y="1121" type="curve" smooth="yes"/>
      <point x="1048" y="1121"/>
      <point x="1089" y="1163"/>
      <point x="1126" y="1204" type="curve" smooth="yes"/>
      <point x="1158" y="1238"/>
      <point x="1194" y="1272"/>
      <point x="1198" y="1272" type="curve" smooth="yes"/>
      <point x="1223" y="1272"/>
      <point x="1279" y="1193"/>
      <point x="1279" y="1145" type="curve" smooth="yes"/>
    </contour>
    <contour>
      <point x="824" y="777" type="curve" smooth="yes"/>
      <point x="824" y="716"/>
      <point x="770" y="679"/>
      <point x="719" y="657" type="curve"/>
      <point x="719" y="865" type="line"/>
      <point x="767" y="858"/>
      <point x="824" y="827"/>
    </contour>
  </outline>
</glyph>
<glyph name="uni17F0" format="2">
  <advance width="1172"/>
  <unicode hex="17F0"/>
  <outline>
    <contour>
      <point x="220" y="740" type="curve" smooth="yes"/>
      <point x="220" y="484"/>
      <point x="366" y="294"/>
      <point x="586" y="294" type="curve" smooth="yes"/>
      <point x="806" y="294"/>
      <point x="952" y="484"/>
      <point x="952" y="740" type="curve" smooth="yes"/>
      <point x="952" y="997"/>
      <point x="806" y="1187"/>
      <point x="586" y="1187" type="curve" smooth="yes"/>
      <point x="366" y="1187"/>
      <point x="220" y="997"/>
    </contour>
    <contour>
      <point x="403" y="740" type="curve" smooth="yes"/>
      <point x="403" y="942"/>
      <point x="494" y="1078"/>
      <point x="586" y="1078" type="curve" smooth="yes"/>
      <point x="682" y="1078"/>
      <point x="769" y="942"/>
      <point x="769" y="740" type="curve" smooth="yes"/>
      <point x="769" y="539"/>
      <point x="682" y="403"/>
      <point x="586" y="403" type="curve" smooth="yes"/>
      <point x="491" y="403"/>
      <point x="403" y="539"/>
    </contour>
  </outline>
</glyph>
<glyph name="uni19E0" format="2">
  <advance width="1390"/>
  <unicode hex="19E0"/>
  <outline>
    <component base="uni17E8" xOffset="76" yOffset="-1200"/>
    <contour>
      <point x="437" y="1206" type="curve" smooth="yes"/>
      <point x="437" y="1347"/>
      <point x="554" y="1463"/>
      <point x="694" y="1463" type="curve" smooth="yes"/>
      <point x="835" y="1463"/>
      <point x="950" y="1347"/>
      <point x="950" y="1206" type="curve" smooth="yes"/>
      <point x="950" y="1065"/>
      <point x="835" y="950"/>
      <point x="694" y="950" type="curve" smooth="yes"/>
      <point x="554" y="950"/>
      <point x="437" y="1065"/>
    </contour>
    <contour>
      <point x="273" y="1212" type="curve" smooth="yes"/>
      <point x="273" y="979"/>
      <point x="462" y="790"/>
      <point x="694" y="790" type="curve" smooth="yes"/>
      <point x="927" y="790"/>
      <point x="1116" y="979"/>
      <point x="1116" y="1212" type="curve" smooth="yes"/>
      <point x="1116" y="1444"/>
      <point x="927" y="1633"/>
      <point x="694" y="1633" type="curve" smooth="yes"/>
      <point x="462" y="1633"/>
      <point x="273" y="1444"/>
    </contour>
  </outline>
</glyph>
<glyph name="uni1EA1" format="2">
  <advance width="940"/>
  <unicode hex="1EA1"/>
  <outline>
    <contour>
      <point x="771" y="734" type="line"/>
      <point x="771" y="890"/>
      <point x="688" y="992"/>
      <point x="460" y="992" type="curve" smooth="yes"/>
      <point x="266" y="992"/>
      <point x="101" y="894"/>
      <point x="101" y="763" type="curve" smooth="yes"/>
      <point x="101" y="700"/>
      <point x="139" y="651"/>
      <point x="195" y="651" type="curve" smooth="yes"/>
      <point x="266" y="651"/>
      <point x="281" y="711"/>
      <point x="281" y="778" type="curve" smooth="yes"/>
      <point x="281" y="853"/>
      <point x="307" y="928"/>
      <point x="426" y="928" type="curve" smooth="yes"/>
      <point x="532" y="928"/>
      <point x="595" y="869"/>
      <point x="595" y="688" type="curve" smooth="yes"/>
      <point x="595" y="628" type="line"/>
      <point x="366" y="557"/>
      <point x="67" y="472"/>
      <point x="67" y="221" type="curve" smooth="yes"/>
      <point x="67" y="86"/>
      <point x="154" y="-23"/>
      <point x="292" y="-23" type="curve" smooth="yes"/>
      <point x="445" y="-23"/>
      <point x="513" y="64"/>
      <point x="595" y="135" type="curve"/>
      <point x="595" y="67"/>
      <point x="628" y="-23"/>
      <point x="700" y="-23" type="curve" smooth="yes"/>
      <point x="809" y="-23"/>
      <point x="884" y="45"/>
      <point x="928" y="123" type="curve"/>
      <point x="928" y="195" type="line"/>
      <point x="898" y="150"/>
      <point x="869" y="108"/>
      <point x="819" y="108" type="curve" smooth="yes"/>
      <point x="786" y="108"/>
      <point x="771" y="142"/>
      <point x="771" y="183" type="curve" smooth="yes"/>
    </contour>
    <contour>
      <point x="595" y="202" type="line"/>
      <point x="528" y="146"/>
      <point x="464" y="98"/>
      <point x="385" y="98" type="curve" smooth="yes"/>
      <point x="314" y="98"/>
      <point x="243" y="176"/>
      <point x="243" y="273" type="curve" smooth="yes"/>
      <point x="243" y="412"/>
      <point x="445" y="513"/>
      <point x="595" y="565" type="curve"/>
    </contour>
    <contour>
      <point x="322" y="-312" type="curve" smooth="yes"/>
      <point x="322" y="-368"/>
      <point x="378" y="-424"/>
      <point x="434" y="-424" type="curve" smooth="yes"/>
      <point x="490" y="-424"/>
      <point x="546" y="-368"/>
      <point x="546" y="-312" type="curve" smooth="yes"/>
      <point x="546" y="-256"/>
      <point x="490" y="-200"/>
      <point x="434" y="-200" type="curve" smooth="yes"/>
      <point x="378" y="-200"/>
      <point x="322" y="-256"/>
    </contour>
  </outline>
</glyph>
<glyph name="uni1EC5" format="2">
  <advance width="977"/>
  <unicode hex="1EC5"/>
  <outline>
    <contour>
      <point x="501" y="-23" type="curve" smooth="yes"/>
      <point x="682" y="-23"/>
      <point x="869" y="142"/>
      <point x="921" y="341" type="curve"/>
      <point x="880" y="348" type="line"/>
      <point x="850" y="225"/>
      <point x="700" y="127"/>
      <point x="551" y="127" type="curve" smooth="yes"/>
      <point x="366" y="127"/>
      <point x="235" y="337"/>
      <point x="235" y="599" type="curve"/>
      <point x="894" y="599" type="line"/>
      <point x="894" y="816"/>
      <point x="734" y="992"/>
      <point x="501" y="992" type="curve" smooth="yes"/>
      <point x="239" y="992"/>
      <point x="67" y="763"/>
      <point x="67" y="449" type="curve" smooth="yes"/>
      <point x="67" y="191"/>
      <point x="262" y="-23"/>
    </contour>
    <contour>
      <point x="235" y="651" type="line"/>
      <point x="247" y="797"/>
      <point x="341" y="921"/>
      <point x="449" y="921" type="curve" smooth="yes"/>
      <point x="576" y="921"/>
      <point x="678" y="797"/>
      <point x="678" y="651" type="curve"/>
    </contour>
    <contour>
      <point x="393" y="1471" type="line"/>
      <point x="183" y="1119" type="line"/>
      <point x="217" y="1119" type="line"/>
      <point x="494" y="1343" type="line"/>
      <point x="771" y="1119" type="line"/>
      <point x="809" y="1119" type="line"/>
      <point x="595" y="1471" type="line"/>
    </contour>
    <contour>
      <point x="181" y="1580" type="line"/>
      <point x="192" y="1640"/>
      <point x="214" y="1730"/>
      <point x="289" y="1730" type="curve" smooth="yes"/>
      <point x="335" y="1730"/>
      <point x="391" y="1694"/>
      <point x="451" y="1655" type="curve" smooth="yes"/>
      <point x="510" y="1617"/>
      <point x="574" y="1580"/>
      <point x="645" y="1580" type="curve" smooth="yes"/>
      <point x="803" y="1580"/>
      <point x="855" y="1730"/>
      <point x="855" y="1861" type="curve"/>
      <point x="825" y="1861" type="line"/>
      <point x="813" y="1801"/>
      <point x="791" y="1715"/>
      <point x="716" y="1715" type="curve" smooth="yes"/>
      <point x="672" y="1715"/>
      <point x="615" y="1748"/>
      <point x="555" y="1786" type="curve" smooth="yes"/>
      <point x="495" y="1823"/>
      <point x="432" y="1861"/>
      <point x="360" y="1861" type="curve" smooth="yes"/>
      <point x="204" y="1861"/>
      <point x="148" y="1715"/>
      <point x="148" y="1580" type="curve"/>
    </contour>
  </outline>
</glyph>
<glyph name="uni1EE8" format="2">
  <advance width="1742"/>
  <unicode hex="1EE8"/>
  <outline>
    <contour>
      <point x="1742" y="1601" type="curve" smooth="yes"/>
      <point x="1742" y="1749"/>
      <point x="1632" y="1842"/>
      <point x="1535" y="1842" type="curve" smooth="yes"/>
      <point x="1468" y="1842"/>
      <point x="1375" y="1797"/>
      <point x="1375" y="1702" type="curve" smooth="yes"/>
      <point x="1375" y="1621"/>
      <point x="1443" y="1574"/>
      <point x="1496" y="1574" type="curve" smooth="yes"/>
      <point x="1528" y="1574"/>
      <point x="1565" y="1594"/>
      <point x="1586" y="1594" type="curve" smooth="yes"/>
      <point x="1598" y="1594"/>
      <point x="1632" y="1580"/>
      <point x="1632" y="1519" type="curve" smooth="yes"/>
      <point x="1632" y="1370"/>
      <point x="1470" y="1255"/>
      <point x="1367" y="1237" type="curve"/>
      <point x="1374" y="1366"/>
      <point x="1431" y="1400"/>
      <point x="1572" y="1400" type="curve"/>
      <point x="1572" y="1437" type="line"/>
      <point x="1067" y="1437" type="line"/>
      <point x="1067" y="1400" type="line"/>
      <point x="1216" y="1400"/>
      <point x="1269" y="1362"/>
      <point x="1269" y="1209" type="curve" smooth="yes"/>
      <point x="1269" y="505" type="line" smooth="yes"/>
      <point x="1269" y="258"/>
      <point x="1115" y="60"/>
      <point x="865" y="60" type="curve" smooth="yes"/>
      <point x="618" y="60"/>
      <point x="460" y="258"/>
      <point x="460" y="505" type="curve" smooth="yes"/>
      <point x="460" y="1209" type="line" smooth="yes"/>
      <point x="460" y="1362"/>
      <point x="513" y="1400"/>
      <point x="663" y="1400" type="curve"/>
      <point x="663" y="1437" type="line"/>
      <point x="37" y="1437" type="line"/>
      <point x="37" y="1400" type="line"/>
      <point x="183" y="1400"/>
      <point x="239" y="1362"/>
      <point x="239" y="1209" type="curve" smooth="yes"/>
      <point x="239" y="509" type="line" smooth="yes"/>
      <point x="239" y="210"/>
      <point x="434" y="-33"/>
      <point x="794" y="-33" type="curve" smooth="yes"/>
      <point x="1202" y="-33"/>
      <point x="1366" y="210"/>
      <point x="1366" y="505" type="curve" smooth="yes"/>
      <point x="1366" y="1179" type="line"/>
      <point x="1498" y="1198"/>
      <point x="1742" y="1340"/>
    </contour>
    <contour>
      <point x="1208" y="1857" type="line"/>
      <point x="942" y="1857" type="line"/>
      <point x="755" y="1558" type="line"/>
      <point x="811" y="1558" type="line"/>
    </contour>
  </outline>
</glyph>
<glyph name="quotesinglbase" format="2">
  <advance width="569"/>
  <unicode hex="201A"/>
  <outline>
    <contour>
      <point x="139" y="-356" type="line"/>
      <point x="318" y="-341"/>
      <point x="476" y="-202"/>
      <point x="476" y="-8" type="curve" smooth="yes"/>
      <point x="476" y="120"/>
      <point x="389" y="221"/>
      <point x="285" y="221" type="curve" smooth="yes"/>
      <point x="202" y="221"/>
      <point x="139" y="161"/>
      <point x="139" y="90" type="curve" smooth="yes"/>
      <point x="139" y="19"/>
      <point x="187" y="-33"/>
      <point x="243" y="-33" type="curve" smooth="yes"/>
      <point x="299" y="-33"/>
      <point x="303" y="0"/>
      <point x="341" y="0" type="curve" smooth="yes"/>
      <point x="360" y="0"/>
      <point x="374" y="-27"/>
      <point x="374" y="-60" type="curve" smooth="yes"/>
      <point x="374" y="-164"/>
      <point x="270" y="-270"/>
      <point x="139" y="-303" type="curve"/>
    </contour>
  </outline>
</glyph>
<glyph name="Omega" format="2">
  <advance width="1569"/>
  <unicode hex="2126"/>
  <outline>
    <contour>
      <point x="1502" y="856" type="curve" smooth="yes"/>
      <point x="1502" y="1213"/>
      <point x="1235" y="1452"/>
      <point x="784" y="1452" type="curve"/>
      <point x="335" y="1452"/>
      <point x="67" y="1213"/>
      <point x="67" y="856" type="curve" smooth="yes"/>
      <point x="67" y="521"/>
      <point x="349" y="331"/>
      <point x="599" y="312" type="curve"/>
      <point x="599" y="185" type="line"/>
      <point x="309" y="185" type="line"/>
      <point x="254" y="185"/>
      <point x="170" y="221"/>
      <point x="140" y="327" type="curve"/>
      <point x="95" y="327" type="line"/>
      <point x="175" y="0" type="line"/>
      <point x="676" y="0" type="line"/>
      <point x="676" y="362" type="line"/>
      <point x="441" y="434"/>
      <point x="292" y="610"/>
      <point x="292" y="854" type="curve"/>
      <point x="291" y="1126"/>
      <point x="487" y="1398"/>
      <point x="784" y="1399" type="curve" smooth="yes"/>
      <point x="1081" y="1398"/>
      <point x="1278" y="1126"/>
      <point x="1277" y="854" type="curve"/>
      <point x="1277" y="610"/>
      <point x="1127" y="434"/>
      <point x="893" y="362" type="curve"/>
      <point x="893" y="0" type="line"/>
      <point x="1393" y="0" type="line"/>
      <point x="1473" y="327" type="line"/>
      <point x="1428" y="327" type="line"/>
      <point x="1398" y="221"/>
      <point x="1314" y="185"/>
      <point x="1261" y="185" type="curve"/>
      <point x="971" y="185" type="line"/>
      <point x="971" y="312" type="line"/>
      <point x="1219" y="331"/>
      <point x="1502" y="521"/>
    </contour>
  </outline>
</glyph>
<glyph name="uni25CC" format="2">
  <advance width="1393"/>
  <unicode hex="25CC"/>
  <anchor x="1181" y="1440" name="U"/>
  <anchor x="1181" y="0" name="L"/>
  <anchor x="740" y="0" name="lm"/>
  <anchor x="740" y="1440" name="um"/>
  <outline>
    <contour>
      <point x="667" y="73" type="curve" smooth="yes"/>
      <point x="667" y="32"/>
      <point x="699" y="0"/>
      <point x="740" y="0" type="curve"/>
      <point x="781" y="0"/>
      <point x="814" y="32"/>
      <point x="814" y="73" type="curve" smooth="yes"/>
      <point x="814" y="113"/>
      <point x="781" y="147"/>
      <point x="740" y="147" type="curve" smooth="yes"/>
      <point x="699" y="147"/>
      <point x="667" y="113"/>
    </contour>
    <contour>
      <point x="301" y="661" type="curve" smooth="yes"/>
      <point x="301" y="620"/>
      <point x="333" y="586"/>
      <point x="374" y="586" type="curve" smooth="yes"/>
      <point x="414" y="586"/>
      <point x="447" y="620"/>
      <point x="447" y="661" type="curve" smooth="yes"/>
      <point x="447" y="700"/>
      <point x="414" y="733"/>
      <point x="374" y="733" type="curve" smooth="yes"/>
      <point x="333" y="733"/>
      <point x="301" y="700"/>
    </contour>
    <contour>
      <point x="484" y="410" type="curve" smooth="yes"/>
      <point x="484" y="450"/>
      <point x="451" y="483"/>
      <point x="411" y="483" type="curve" smooth="yes"/>
      <point x="371" y="483"/>
      <point x="337" y="450"/>
      <point x="337" y="410" type="curve" smooth="yes"/>
      <point x="337" y="371"/>
      <point x="371" y="336"/>
      <point x="411" y="336" type="curve" smooth="yes"/>
      <point x="451" y="336"/>
      <point x="484" y="371"/>
    </contour>
    <contour>
      <point x="1034" y="661" type="curve" smooth="yes"/>
      <point x="1034" y="620"/>
      <point x="1066" y="586"/>
      <point x="1106" y="586" type="curve" smooth="yes"/>
      <point x="1148" y="586"/>
      <point x="1181" y="620"/>
      <point x="1181" y="661" type="curve" smooth="yes"/>
      <point x="1181" y="700"/>
      <point x="1148" y="733"/>
      <point x="1106" y="733" type="curve" smooth="yes"/>
      <point x="1066" y="733"/>
      <point x="1034" y="700"/>
    </contour>
    <contour>
      <point x="582" y="176" type="curve" smooth="yes"/>
      <point x="582" y="215"/>
      <point x="550" y="249"/>
      <point x="509" y="249" type="curve" smooth="yes"/>
      <point x="469" y="249"/>
      <point x="437" y="215"/>
      <point x="437" y="176" type="curve" smooth="yes"/>
      <point x="437" y="136"/>
      <point x="469" y="103"/>
      <point x="509" y="103" type="curve" smooth="yes"/>
      <point x="550" y="103"/>
      <point x="582" y="136"/>
    </contour>
    <contour>
      <point x="998" y="410" type="curve" smooth="yes"/>
      <point x="998" y="371"/>
      <point x="1031" y="336"/>
      <point x="1071" y="336" type="curve"/>
      <point x="1110" y="336"/>
      <point x="1145" y="371"/>
      <point x="1145" y="410" type="curve" smooth="yes"/>
      <point x="1145" y="450"/>
      <point x="1110" y="483"/>
      <point x="1071" y="483" type="curve" smooth="yes"/>
      <point x="1031" y="483"/>
      <point x="998" y="450"/>
    </contour>
    <contour>
      <point x="901" y="176" type="curve" smooth="yes"/>
      <point x="901" y="136"/>
      <point x="934" y="103"/>
      <point x="976" y="103" type="curve"/>
      <point x="1016" y="103"/>
      <point x="1049" y="136"/>
      <point x="1049" y="176" type="curve" smooth="yes"/>
      <point x="1049" y="215"/>
      <point x="1016" y="249"/>
      <point x="976" y="249" type="curve" smooth="yes"/>
      <point x="934" y="249"/>
      <point x="901" y="215"/>
    </contour>
    <contour>
      <point x="667" y="1246" type="curve" smooth="yes"/>
      <point x="667" y="1205"/>
      <point x="699" y="1172"/>
      <point x="740" y="1172" type="curve" smooth="yes"/>
      <point x="781" y="1172"/>
      <point x="814" y="1205"/>
      <point x="814" y="1246" type="curve" smooth="yes"/>
      <point x="814" y="1287"/>
      <point x="781" y="1319"/>
      <point x="740" y="1319" type="curve" smooth="yes"/>
      <point x="699" y="1319"/>
      <point x="667" y="1287"/>
    </contour>
    <contour>
      <point x="484" y="910" type="curve" smooth="yes"/>
      <point x="484" y="948"/>
      <point x="451" y="983"/>
      <point x="411" y="983" type="curve"/>
      <point x="371" y="983"/>
      <point x="337" y="948"/>
      <point x="337" y="910" type="curve" smooth="yes"/>
      <point x="337" y="870"/>
      <point x="371" y="836"/>
      <point x="411" y="836" type="curve" smooth="yes"/>
      <point x="451" y="836"/>
      <point x="484" y="870"/>
    </contour>
    <contour>
      <point x="582" y="1144" type="curve" smooth="yes"/>
      <point x="582" y="1183"/>
      <point x="550" y="1216"/>
      <point x="509" y="1216" type="curve"/>
      <point x="469" y="1216"/>
      <point x="437" y="1183"/>
      <point x="437" y="1144" type="curve" smooth="yes"/>
      <point x="437" y="1104"/>
      <point x="469" y="1070"/>
      <point x="509" y="1070" type="curve" smooth="yes"/>
      <point x="550" y="1070"/>
      <point x="582" y="1104"/>
    </contour>
    <contour>
      <point x="998" y="910" type="curve" smooth="yes"/>
      <point x="998" y="870"/>
      <point x="1031" y="836"/>
      <point x="1071" y="836" type="curve" smooth="yes"/>
      <point x="1110" y="836"/>
      <point x="1145" y="870"/>
      <point x="1145" y="910" type="curve" smooth="yes"/>
      <point x="1145" y="948"/>
      <point x="1110" y="983"/>
      <point x="1071" y="983" type="curve" smooth="yes"/>
      <point x="1031" y="983"/>
      <point x="998" y="948"/>
    </contour>
    <contour>
      <point x="898" y="1144" type="curve" smooth="yes"/>
      <point x="898" y="1104"/>
      <point x="931" y="1070"/>
      <point x="973" y="1070" type="curve" smooth="yes"/>
      <point x="1012" y="1070"/>
      <point x="1045" y="1104"/>
      <point x="1045" y="1144" type="curve" smooth="yes"/>
      <point x="1045" y="1183"/>
      <point x="1012" y="1216"/>
      <point x="973" y="1216" type="curve" smooth="yes"/>
      <point x="931" y="1216"/>
      <point x="898" y="1183"/>
    </contour>
  </outline>
</glyph>
<glyph name="uniEF01" format="2">
  <advance width="2640"/>
  <unicode hex="EF01"/>
  <anchor x="1172" y="1407" name="U"/>
  <anchor x="1172" y="0" name="L"/>
  <outline>
    <contour>
      <point x="1683" y="-16" type="curve"/>
      <point x="1690" y="-21"/>
      <point x="1698" y="-24"/>
      <point x="1706" y="-24" type="curve" smooth="yes"/>
      <point x="1730" y="-24"/>
      <point x="1754" y="-8"/>
      <point x="1754" y="10" type="curve" smooth="yes"/>
      <point x="1754" y="38"/>
      <point x="1675" y="56"/>
      <point x="1616" y="56" type="curve" smooth="yes"/>
      <point x="1530" y="56"/>
      <point x="1459" y="19"/>
      <point x="1416" y="19" type="curve" smooth="yes"/>
      <point x="1398" y="19"/>
      <point x="1376" y="24"/>
      <point x="1360" y="40" type="curve"/>
      <point x="1470" y="56"/>
      <point x="1522" y="64"/>
      <point x="1600" y="64" type="curve" smooth="yes"/>
      <point x="1680" y="64"/>
      <point x="1790" y="50"/>
      <point x="1821" y="32" type="curve"/>
      <point x="1832" y="51"/>
      <point x="1856" y="59"/>
      <point x="1872" y="59" type="curve" smooth="yes"/>
      <point x="2600" y="72" type="line"/>
      <point x="1872" y="85" type="line" smooth="yes"/>
      <point x="1856" y="85"/>
      <point x="1832" y="93"/>
      <point x="1821" y="112" type="curve"/>
      <point x="1790" y="94"/>
      <point x="1680" y="80"/>
      <point x="1600" y="80" type="curve" smooth="yes"/>
      <point x="1518" y="80"/>
      <point x="1470" y="88"/>
      <point x="1360" y="104" type="curve"/>
      <point x="1376" y="120"/>
      <point x="1398" y="125"/>
      <point x="1416" y="125" type="curve" smooth="yes"/>
      <point x="1459" y="125"/>
      <point x="1530" y="88"/>
      <point x="1616" y="88" type="curve" smooth="yes"/>
      <point x="1675" y="88"/>
      <point x="1754" y="94"/>
      <point x="1754" y="123" type="curve" smooth="yes"/>
      <point x="1754" y="138"/>
      <point x="1730" y="168"/>
      <point x="1706" y="168" type="curve" smooth="yes"/>
      <point x="1698" y="168"/>
      <point x="1690" y="165"/>
      <point x="1683" y="160" type="curve"/>
      <point x="1691" y="154"/>
      <point x="1698" y="144"/>
      <point x="1698" y="133" type="curve" smooth="yes"/>
      <point x="1698" y="114"/>
      <point x="1648" y="104"/>
      <point x="1616" y="104" type="curve" smooth="yes"/>
      <point x="1557" y="104"/>
      <point x="1464" y="131"/>
      <point x="1448" y="147" type="curve" smooth="yes"/>
      <point x="1437" y="158"/>
      <point x="1432" y="162"/>
      <point x="1421" y="162" type="curve" smooth="yes"/>
      <point x="1400" y="162"/>
      <point x="1341" y="104"/>
      <point x="1320" y="104" type="curve" smooth="yes"/>
      <point x="1299" y="104"/>
      <point x="1240" y="162"/>
      <point x="1219" y="162" type="curve" smooth="yes"/>
      <point x="1208" y="162"/>
      <point x="1203" y="158"/>
      <point x="1192" y="147" type="curve" smooth="yes"/>
      <point x="1176" y="131"/>
      <point x="1083" y="104"/>
      <point x="1024" y="104" type="curve" smooth="yes"/>
      <point x="992" y="104"/>
      <point x="942" y="114"/>
      <point x="942" y="133" type="curve" smooth="yes"/>
      <point x="942" y="144"/>
      <point x="949" y="154"/>
      <point x="957" y="160" type="curve"/>
      <point x="950" y="165"/>
      <point x="942" y="168"/>
      <point x="934" y="168" type="curve" smooth="yes"/>
      <point x="910" y="168"/>
      <point x="886" y="155"/>
      <point x="886" y="134" type="curve"/>
      <point x="886" y="106"/>
      <point x="965" y="88"/>
      <point x="1024" y="88" type="curve" smooth="yes"/>
      <point x="1110" y="88"/>
      <point x="1181" y="125"/>
      <point x="1224" y="125" type="curve" smooth="yes"/>
      <point x="1242" y="125"/>
      <point x="1264" y="120"/>
      <point x="1280" y="104" type="curve"/>
      <point x="1170" y="88"/>
      <point x="1122" y="80"/>
      <point x="1040" y="80" type="curve" smooth="yes"/>
      <point x="960" y="80"/>
      <point x="850" y="94"/>
      <point x="819" y="112" type="curve"/>
      <point x="808" y="93"/>
      <point x="784" y="85"/>
      <point x="768" y="85" type="curve" smooth="yes"/>
      <point x="40" y="72" type="line"/>
      <point x="768" y="59" type="line" smooth="yes"/>
      <point x="784" y="59"/>
      <point x="808" y="51"/>
      <point x="819" y="32" type="curve"/>
      <point x="850" y="50"/>
      <point x="960" y="64"/>
      <point x="1040" y="64" type="curve" smooth="yes"/>
      <point x="1118" y="64"/>
      <point x="1170" y="56"/>
      <point x="1280" y="40" type="curve"/>
      <point x="1264" y="24"/>
      <point x="1242" y="19"/>
      <point x="1224" y="19" type="curve" smooth="yes"/>
      <point x="1181" y="19"/>
      <point x="1110" y="56"/>
      <point x="1024" y="56" type="curve" smooth="yes"/>
      <point x="965" y="56"/>
      <point x="886" y="38"/>
      <point x="886" y="10" type="curve" smooth="yes"/>
      <point x="886" y="-8"/>
      <point x="910" y="-24"/>
      <point x="934" y="-24" type="curve" smooth="yes"/>
      <point x="942" y="-24"/>
      <point x="950" y="-21"/>
      <point x="957" y="-16" type="curve"/>
      <point x="949" y="-10"/>
      <point x="942" y="0"/>
      <point x="942" y="11" type="curve" smooth="yes"/>
      <point x="942" y="30"/>
      <point x="992" y="40"/>
      <point x="1024" y="40" type="curve" smooth="yes"/>
      <point x="1083" y="40"/>
      <point x="1176" y="13"/>
      <point x="1192" y="-3" type="curve" smooth="yes"/>
      <point x="1203" y="-14"/>
      <point x="1208" y="-18"/>
      <point x="1219" y="-18" type="curve" smooth="yes"/>
      <point x="1240" y="-18"/>
      <point x="1299" y="40"/>
      <point x="1320" y="40" type="curve" smooth="yes"/>
      <point x="1341" y="40"/>
      <point x="1400" y="-18"/>
      <point x="1421" y="-18" type="curve" smooth="yes"/>
      <point x="1432" y="-18"/>
      <point x="1437" y="-14"/>
      <point x="1448" y="-3" type="curve" smooth="yes"/>
      <point x="1464" y="13"/>
      <point x="1557" y="40"/>
      <point x="1616" y="40" type="curve" smooth="yes"/>
      <point x="1648" y="40"/>
      <point x="1698" y="30"/>
      <point x="1698" y="11" type="curve" smooth="yes"/>
      <point x="1698" y="0"/>
      <point x="1691" y="-10"/>
    </contour>
    <contour>
      <point x="1256" y="72" type="curve" smooth="yes"/>
      <point x="1256" y="82"/>
      <point x="1285" y="88"/>
      <point x="1320" y="88" type="curve" smooth="yes"/>
      <point x="1355" y="88"/>
      <point x="1384" y="82"/>
      <point x="1384" y="72" type="curve" smooth="yes"/>
      <point x="1384" y="62"/>
      <point x="1355" y="56"/>
      <point x="1320" y="56" type="curve" smooth="yes"/>
      <point x="1285" y="56"/>
      <point x="1256" y="62"/>
    </contour>
    <contour>
      <point x="1320" y="120" type="curve"/>
      <point x="1331" y="127"/>
      <point x="1350" y="140"/>
      <point x="1350" y="154" type="curve" smooth="yes"/>
      <point x="1350" y="166"/>
      <point x="1334" y="171"/>
      <point x="1320" y="171" type="curve" smooth="yes"/>
      <point x="1306" y="171"/>
      <point x="1290" y="166"/>
      <point x="1290" y="154" type="curve" smooth="yes"/>
      <point x="1290" y="140"/>
      <point x="1309" y="127"/>
    </contour>
    <contour>
      <point x="1320" y="24" type="curve"/>
      <point x="1309" y="17"/>
      <point x="1290" y="4"/>
      <point x="1290" y="-10" type="curve" smooth="yes"/>
      <point x="1290" y="-22"/>
      <point x="1306" y="-27"/>
      <point x="1320" y="-27" type="curve" smooth="yes"/>
      <point x="1334" y="-27"/>
      <point x="1350" y="-22"/>
      <point x="1350" y="-10" type="curve" smooth="yes"/>
      <point x="1350" y="4"/>
      <point x="1331" y="17"/>
    </contour>
  </outline>
</glyph>
<glyph name="uniEF04" format="2">
  <advance width="2640"/>
  <unicode hex="EF04"/>
  <anchor x="1172" y="1407" name="U"/>
  <anchor x="1172" y="0" name="L"/>
  <outline>
    <contour>
      <point x="1320" y="136" type="curve"/>
      <point x="1280" y="85"/>
      <point x="840" y="80"/>
      <point x="40" y="72" type="curve"/>
      <point x="840" y="64"/>
      <point x="1280" y="59"/>
      <point x="1320" y="8" type="curve"/>
      <point x="1360" y="59"/>
      <point x="1800" y="64"/>
      <point x="2600" y="72" type="curve"/>
      <point x="1800" y="80"/>
      <point x="1360" y="85"/>
    </contour>
  </outline>
</glyph>
<glyph name="uniEF07" format="2">
  <advance width="2581"/>
  <unicode hex="EF07"/>
  <anchor x="1172" y="1407" name="U"/>
  <anchor x="1172" y="0" name="L"/>
  <outline>
    <contour>
      <point x="1291" y="-40" type="curve"/>
      <point x="1309" y="-8"/>
      <point x="1425" y="24"/>
      <point x="1579" y="24" type="curve" smooth="yes"/>
      <point x="1662" y="24"/>
      <point x="1814" y="14"/>
      <point x="1851" y="-8" type="curve"/>
      <point x="1894" y="37"/>
      <point x="2157" y="67"/>
      <point x="2541" y="72" type="curve"/>
      <point x="2157" y="77"/>
      <point x="1896" y="106"/>
      <point x="1853" y="152" type="curve"/>
      <point x="1816" y="130"/>
      <point x="1662" y="120"/>
      <point x="1579" y="120" type="curve" smooth="yes"/>
      <point x="1425" y="120"/>
      <point x="1317" y="152"/>
      <point x="1291" y="184" type="curve"/>
      <point x="1273" y="152"/>
      <point x="1157" y="120"/>
      <point x="1003" y="120" type="curve" smooth="yes"/>
      <point x="920" y="120"/>
      <point x="768" y="130"/>
      <point x="731" y="152" type="curve"/>
      <point x="686" y="106"/>
      <point x="424" y="77"/>
      <point x="40" y="72" type="curve"/>
      <point x="424" y="67"/>
      <point x="685" y="37"/>
      <point x="729" y="-8" type="curve"/>
      <point x="766" y="14"/>
      <point x="920" y="24"/>
      <point x="1003" y="24" type="curve" smooth="yes"/>
      <point x="1157" y="24"/>
      <point x="1265" y="-8"/>
    </contour>
  </outline>
</glyph>
<glyph name="KrungSpecial" format="2">
  <advance width="422"/>
  <outline>
    <contour>
      <point x="212" y="1342" type="curve" smooth="yes"/>
      <point x="212" y="1262"/>
      <point x="265" y="1127"/>
      <point x="365" y="1027" type="curve" smooth="yes"/>
      <point x="376" y="1016"/>
      <point x="395" y="1009"/>
      <point x="414" y="1009" type="curve" smooth="yes"/>
      <point x="450" y="1009"/>
      <point x="468" y="1019"/>
      <point x="468" y="1042" type="curve" smooth="yes"/>
      <point x="468" y="1046"/>
      <point x="464" y="1054"/>
      <point x="453" y="1073" type="curve"/>
      <point x="432" y="1106"/>
      <point x="395" y="1183"/>
      <point x="395" y="1302" type="curve" smooth="yes"/>
      <point x="395" y="1345"/>
      <point x="395" y="1353"/>
      <point x="399" y="1364" type="curve"/>
      <point x="432" y="1367"/>
      <point x="497" y="1395"/>
      <point x="497" y="1452" type="curve" smooth="yes"/>
      <point x="497" y="1519"/>
      <point x="461" y="1547"/>
      <point x="387" y="1547" type="curve" smooth="yes"/>
      <point x="270" y="1547"/>
      <point x="212" y="1491"/>
    </contour>
    <contour>
      <point x="-2660" y="635" type="line"/>
      <point x="-2680" y="635" type="line"/>
      <point x="-2680" y="615" type="line"/>
      <point x="-2660" y="615" type="line"/>
    </contour>
    <contour>
      <point x="4670" y="3170" type="line"/>
      <point x="4650" y="3170" type="line"/>
      <point x="4650" y="3150" type="line"/>
      <point x="4670" y="3150" type="line"/>
    </contour>
  </outline>
</glyph>
<glyph name="uni178017B6" format="2">
  <advance width="2204"/>
  <anchor x="1231" y="1440" name="U"/>
  <anchor x="1231" y="0" name="L"/>
  <anchor x="1959" y="1440" name="U2"/>
  <anchor x="1959" y="0" name="L2"/>
  <anchor x="763" y="1440" name="um"/>
  <anchor x="1501" y="1440" name="um2"/>
  <anchor x="763" y="0" name="lm"/>
  <outline>
    <contour>
      <point x="1414" y="1312" type="curve" smooth="yes"/>
      <point x="1650" y="1312"/>
      <point x="1771" y="1208"/>
      <point x="1771" y="1145" type="curve" smooth="yes"/>
      <point x="1771" y="0" type="line"/>
      <point x="1959" y="0" type="line"/>
      <point x="1959" y="1163" type="line" smooth="yes"/>
      <point x="1959" y="1264"/>
      <point x="1734" y="1440"/>
      <point x="1418" y="1440" type="curve" smooth="yes"/>
      <point x="1251" y="1440"/>
      <point x="1129" y="1354"/>
      <point x="1044" y="1282" type="curve"/>
      <point x="892" y="1377"/>
      <point x="777" y="1440"/>
      <point x="515" y="1440" type="curve" smooth="yes"/>
      <point x="315" y="1440"/>
      <point x="163" y="1318"/>
      <point x="163" y="1179" type="curve" smooth="yes"/>
      <point x="163" y="1077"/>
      <point x="238" y="1001"/>
      <point x="302" y="960" type="curve"/>
      <point x="299" y="952"/>
      <point x="295" y="946"/>
      <point x="295" y="938" type="curve" smooth="yes"/>
      <point x="295" y="0" type="line"/>
      <point x="483" y="0" type="line"/>
      <point x="483" y="920" type="line" smooth="yes"/>
      <point x="483" y="983"/>
      <point x="685" y="1011"/>
      <point x="763" y="1011" type="curve" smooth="yes"/>
      <point x="841" y="1011"/>
      <point x="1043" y="983"/>
      <point x="1043" y="920" type="curve" smooth="yes"/>
      <point x="1043" y="0" type="line"/>
      <point x="1231" y="0" type="line"/>
      <point x="1231" y="938" type="line" smooth="yes"/>
      <point x="1231" y="1039"/>
      <point x="959" y="1123"/>
      <point x="763" y="1123" type="curve" smooth="yes"/>
      <point x="625" y="1123"/>
      <point x="450" y="1078"/>
      <point x="360" y="1016" type="curve"/>
      <point x="325" y="1047"/>
      <point x="299" y="1084"/>
      <point x="299" y="1125" type="curve" smooth="yes"/>
      <point x="299" y="1231"/>
      <point x="424" y="1286"/>
      <point x="548" y="1286" type="curve" smooth="yes"/>
      <point x="786" y="1286"/>
      <point x="926" y="1225"/>
      <point x="1044" y="1148" type="curve"/>
      <point x="1106" y="1209"/>
      <point x="1220" y="1312"/>
    </contour>
  </outline>
</glyph>
<glyph name="uni178017C5.dash.right" format="2">
  <advance width="2204"/>
  <anchor x="1231" y="1440" name="U"/>
  <anchor x="1231" y="0" name="L"/>
  <anchor x="763" y="1440" name="um"/>
  <anchor x="763" y="0" name="lm"/>
  <anchor x="1546" y="1922" name="um2"/>
  <anchor x="1959" y="1922" name="U2"/>
  <anchor x="1959" y="0" name="L2"/>
  <outline>
    <contour>
      <point x="1220" y="1233" type="line"/>
      <point x="1264" y="1270"/>
      <point x="1396" y="1328"/>
      <point x="1546" y="1328" type="curve" smooth="yes"/>
      <point x="1693" y="1328"/>
      <point x="1771" y="1208"/>
      <point x="1771" y="1145" type="curve" smooth="yes"/>
      <point x="1771" y="0" type="line"/>
      <point x="1959" y="0" type="line"/>
      <point x="1959" y="1163" type="line" smooth="yes"/>
      <point x="1959" y="1205"/>
      <point x="1928" y="1260"/>
      <point x="1875" y="1310" type="curve"/>
      <point x="1932" y="1407"/>
      <point x="1959" y="1513"/>
      <point x="1959" y="1610" type="curve" smooth="yes"/>
      <point x="1959" y="1704"/>
      <point x="1930" y="1800"/>
      <point x="1818" y="1894" type="curve" smooth="yes"/>
      <point x="1795" y="1913"/>
      <point x="1758" y="1922"/>
      <point x="1734" y="1922" type="curve" smooth="yes"/>
      <point x="1676" y="1922"/>
      <point x="1626" y="1898"/>
      <point x="1626" y="1834" type="curve" smooth="yes"/>
      <point x="1626" y="1794"/>
      <point x="1637" y="1772"/>
      <point x="1672" y="1740" type="curve"/>
      <point x="1740" y="1689"/>
      <point x="1759" y="1614"/>
      <point x="1759" y="1538" type="curve" smooth="yes"/>
      <point x="1759" y="1490"/>
      <point x="1747" y="1437"/>
      <point x="1734" y="1401" type="curve"/>
      <point x="1678" y="1425"/>
      <point x="1614" y="1440"/>
      <point x="1546" y="1440" type="curve" smooth="yes"/>
      <point x="1371" y="1440"/>
      <point x="1212" y="1360"/>
      <point x="1155" y="1304" type="curve"/>
    </contour>
    <contour>
      <point x="389" y="700" type="line"/>
      <point x="389" y="563" type="line"/>
      <point x="1137" y="563" type="line"/>
      <point x="1137" y="700" type="line"/>
    </contour>
  </outline>
</glyph>
<glyph name="uni178417C5.right" format="2">
  <advance width="2244"/>
  <anchor x="1271" y="1743" name="U"/>
  <anchor x="1271" y="0" name="L"/>
  <anchor x="1541" y="1922" name="um2"/>
  <anchor x="803" y="1743" name="um"/>
  <anchor x="803" y="0" name="lm"/>
  <anchor x="1999" y="1922" name="U2"/>
  <anchor x="1999" y="0" name="L2"/>
  <outline>
    <contour>
      <point x="1083" y="870" type="curve" smooth="yes"/>
      <point x="1083" y="215" type="line" smooth="yes"/>
      <point x="1083" y="172"/>
      <point x="1078" y="150"/>
      <point x="1054" y="150" type="curve" smooth="yes"/>
      <point x="1043" y="150"/>
      <point x="984" y="191"/>
      <point x="913" y="247" type="curve" smooth="yes"/>
      <point x="877" y="275"/>
      <point x="839" y="300"/>
      <point x="803" y="300" type="curve" smooth="yes"/>
      <point x="767" y="300"/>
      <point x="729" y="275"/>
      <point x="693" y="247" type="curve" smooth="yes"/>
      <point x="622" y="191"/>
      <point x="563" y="150"/>
      <point x="552" y="150" type="curve" smooth="yes"/>
      <point x="528" y="150"/>
      <point x="523" y="172"/>
      <point x="523" y="215" type="curve" smooth="yes"/>
      <point x="523" y="818" type="line"/>
      <point x="498" y="881"/>
      <point x="417" y="896"/>
      <point x="352" y="896" type="curve"/>
      <point x="186" y="865"/>
      <point x="108" y="727"/>
      <point x="108" y="648" type="curve" smooth="yes"/>
      <point x="108" y="533"/>
      <point x="188" y="491"/>
      <point x="241" y="491" type="curve" smooth="yes"/>
      <point x="288" y="491"/>
      <point x="305" y="511"/>
      <point x="305" y="533" type="curve" smooth="yes"/>
      <point x="305" y="555"/>
      <point x="294" y="562"/>
      <point x="274" y="573" type="curve" smooth="yes"/>
      <point x="256" y="583"/>
      <point x="230" y="606"/>
      <point x="230" y="639" type="curve" smooth="yes"/>
      <point x="230" y="700"/>
      <point x="284" y="737"/>
      <point x="335" y="759" type="curve"/>
      <point x="335" y="68" type="line" smooth="yes"/>
      <point x="335" y="33"/>
      <point x="378" y="0"/>
      <point x="422" y="0" type="curve" smooth="yes"/>
      <point x="503" y="0" type="line" smooth="yes"/>
      <point x="556" y="0"/>
      <point x="621" y="46"/>
      <point x="653" y="72" type="curve" smooth="yes"/>
      <point x="723" y="128"/>
      <point x="777" y="168"/>
      <point x="803" y="168" type="curve" smooth="yes"/>
      <point x="829" y="168"/>
      <point x="883" y="128"/>
      <point x="953" y="72" type="curve" smooth="yes"/>
      <point x="985" y="46"/>
      <point x="1050" y="0"/>
      <point x="1103" y="0" type="curve" smooth="yes"/>
      <point x="1184" y="0" type="line" smooth="yes"/>
      <point x="1226" y="0"/>
      <point x="1271" y="33"/>
      <point x="1271" y="68" type="curve" smooth="yes"/>
      <point x="1271" y="892" type="line" smooth="yes"/>
      <point x="1271" y="938"/>
      <point x="1176" y="1014"/>
      <point x="1140" y="1035" type="curve"/>
      <point x="1206" y="1084"/>
      <point x="1240" y="1145"/>
      <point x="1240" y="1216" type="curve" smooth="yes"/>
      <point x="1240" y="1340"/>
      <point x="1130" y="1440"/>
      <point x="997" y="1440" type="curve" smooth="yes"/>
      <point x="861" y="1440"/>
      <point x="753" y="1340"/>
      <point x="753" y="1216" type="curve" smooth="yes"/>
      <point x="753" y="1148"/>
      <point x="782" y="1088"/>
      <point x="850" y="1035" type="curve"/>
      <point x="808" y="1010"/>
      <point x="760" y="1008"/>
      <point x="707" y="1008" type="curve" smooth="yes"/>
      <point x="624" y="1008"/>
      <point x="503" y="1088"/>
      <point x="503" y="1216" type="curve" smooth="yes"/>
      <point x="503" y="1278"/>
      <point x="531" y="1346"/>
      <point x="560" y="1410" type="curve" smooth="yes"/>
      <point x="588" y="1474"/>
      <point x="618" y="1541"/>
      <point x="618" y="1609" type="curve" smooth="yes"/>
      <point x="618" y="1679"/>
      <point x="550" y="1743"/>
      <point x="467" y="1743" type="curve" smooth="yes"/>
      <point x="396" y="1743"/>
      <point x="366" y="1729"/>
      <point x="339" y="1714" type="curve"/>
      <point x="414" y="1714"/>
      <point x="450" y="1646"/>
      <point x="450" y="1613" type="curve" smooth="yes"/>
      <point x="450" y="1549"/>
      <point x="418" y="1472"/>
      <point x="388" y="1400" type="curve" smooth="yes"/>
      <point x="359" y="1332"/>
      <point x="335" y="1268"/>
      <point x="335" y="1216" type="curve" smooth="yes"/>
      <point x="335" y="1050"/>
      <point x="516" y="896"/>
      <point x="725" y="896" type="curve" smooth="yes"/>
      <point x="808" y="896"/>
      <point x="940" y="931"/>
      <point x="993" y="956" type="curve"/>
      <point x="1033" y="938"/>
      <point x="1083" y="910"/>
    </contour>
    <contour>
      <point x="921" y="1220" type="curve" smooth="yes"/>
      <point x="921" y="1275"/>
      <point x="952" y="1308"/>
      <point x="997" y="1308" type="curve" smooth="yes"/>
      <point x="1041" y="1308"/>
      <point x="1072" y="1275"/>
      <point x="1072" y="1220" type="curve" smooth="yes"/>
      <point x="1072" y="1171"/>
      <point x="1033" y="1138"/>
      <point x="997" y="1114" type="curve"/>
      <point x="958" y="1138"/>
      <point x="921" y="1171"/>
    </contour>
    <contour>
      <point x="1253" y="833" type="line"/>
      <point x="1320" y="1040"/>
      <point x="1486" y="1328"/>
      <point x="1626" y="1328" type="curve" smooth="yes"/>
      <point x="1743" y="1328"/>
      <point x="1811" y="1228"/>
      <point x="1811" y="1135" type="curve" smooth="yes"/>
      <point x="1811" y="0" type="line"/>
      <point x="1999" y="0" type="line"/>
      <point x="1999" y="1153" type="line" smooth="yes"/>
      <point x="1999" y="1211"/>
      <point x="1969" y="1270"/>
      <point x="1920" y="1319" type="curve"/>
      <point x="1973" y="1413"/>
      <point x="1999" y="1516"/>
      <point x="1999" y="1610" type="curve" smooth="yes"/>
      <point x="1999" y="1704"/>
      <point x="1970" y="1800"/>
      <point x="1858" y="1894" type="curve" smooth="yes"/>
      <point x="1835" y="1913"/>
      <point x="1798" y="1922"/>
      <point x="1774" y="1922" type="curve" smooth="yes"/>
      <point x="1716" y="1922"/>
      <point x="1666" y="1898"/>
      <point x="1666" y="1834" type="curve" smooth="yes"/>
      <point x="1666" y="1794"/>
      <point x="1677" y="1772"/>
      <point x="1712" y="1740" type="curve"/>
      <point x="1780" y="1689"/>
      <point x="1799" y="1614"/>
      <point x="1799" y="1538" type="curve" smooth="yes"/>
      <point x="1799" y="1494"/>
      <point x="1789" y="1446"/>
      <point x="1777" y="1411" type="curve"/>
      <point x="1730" y="1429"/>
      <point x="1679" y="1440"/>
      <point x="1626" y="1440" type="curve" smooth="yes"/>
      <point x="1431" y="1440"/>
      <point x="1262" y="1140"/>
      <point x="1185" y="924" type="curve"/>
    </contour>
  </outline>
</glyph>
<glyph name="uni178917B6.alt" format="2">
  <advance width="2844"/>
  <anchor x="1871" y="1440" name="U"/>
  <anchor x="1871" y="0" name="L"/>
  <anchor x="1457" y="1440" name="um"/>
  <anchor x="2599" y="1440" name="U2"/>
  <anchor x="2599" y="0" name="L2"/>
  <anchor x="1083" y="0" name="lm"/>
  <anchor x="2141" y="1440" name="um2"/>
  <outline>
    <contour>
      <point x="1231" y="0" type="line"/>
      <point x="1231" y="1171" type="line"/>
      <point x="1243" y="1261"/>
      <point x="1347" y="1328"/>
      <point x="1457" y="1328" type="curve" smooth="yes"/>
      <point x="1567" y="1328"/>
      <point x="1683" y="1257"/>
      <point x="1683" y="1163" type="curve" smooth="yes"/>
      <point x="1683" y="0" type="line"/>
      <point x="1871" y="0" type="line"/>
      <point x="1871" y="1200" type="line"/>
      <point x="1916" y="1246"/>
      <point x="2038" y="1328"/>
      <point x="2188" y="1328" type="curve" smooth="yes"/>
      <point x="2334" y="1328"/>
      <point x="2411" y="1208"/>
      <point x="2411" y="1145" type="curve" smooth="yes"/>
      <point x="2411" y="0" type="line"/>
      <point x="2599" y="0" type="line"/>
      <point x="2599" y="1163" type="line" smooth="yes"/>
      <point x="2599" y="1264"/>
      <point x="2424" y="1440"/>
      <point x="2188" y="1440" type="curve" smooth="yes"/>
      <point x="2032" y="1440"/>
      <point x="1893" y="1363"/>
      <point x="1823" y="1306" type="curve"/>
      <point x="1748" y="1386"/>
      <point x="1597" y="1440"/>
      <point x="1457" y="1440" type="curve" smooth="yes"/>
      <point x="1341" y="1440"/>
      <point x="1218" y="1404"/>
      <point x="1137" y="1343" type="curve"/>
      <point x="1089" y="1396"/>
      <point x="1031" y="1440"/>
      <point x="984" y="1440" type="curve" smooth="yes"/>
      <point x="931" y="1440"/>
      <point x="887" y="1396"/>
      <point x="846" y="1350" type="curve" smooth="yes"/>
      <point x="813" y="1313"/>
      <point x="774" y="1276"/>
      <point x="763" y="1276" type="curve" smooth="yes"/>
      <point x="752" y="1276"/>
      <point x="713" y="1313"/>
      <point x="680" y="1350" type="curve" smooth="yes"/>
      <point x="639" y="1396"/>
      <point x="595" y="1440"/>
      <point x="542" y="1440" type="curve" smooth="yes"/>
      <point x="441" y="1440"/>
      <point x="295" y="1242"/>
      <point x="295" y="1182" type="curve" smooth="yes"/>
      <point x="295" y="79" type="line"/>
      <point x="320" y="16"/>
      <point x="401" y="0"/>
      <point x="466" y="0" type="curve"/>
      <point x="632" y="31"/>
      <point x="710" y="169"/>
      <point x="710" y="248" type="curve" smooth="yes"/>
      <point x="710" y="376"/>
      <point x="610" y="444"/>
      <point x="483" y="451" type="curve"/>
      <point x="483" y="1145" type="line" smooth="yes"/>
      <point x="483" y="1193"/>
      <point x="539" y="1272"/>
      <point x="564" y="1272" type="curve" smooth="yes"/>
      <point x="568" y="1272"/>
      <point x="604" y="1238"/>
      <point x="636" y="1204" type="curve" smooth="yes"/>
      <point x="673" y="1163"/>
      <point x="714" y="1121"/>
      <point x="763" y="1121" type="curve" smooth="yes"/>
      <point x="812" y="1121"/>
      <point x="853" y="1163"/>
      <point x="890" y="1204" type="curve" smooth="yes"/>
      <point x="922" y="1238"/>
      <point x="958" y="1272"/>
      <point x="962" y="1272" type="curve" smooth="yes"/>
      <point x="987" y="1272"/>
      <point x="1043" y="1193"/>
      <point x="1043" y="1145" type="curve" smooth="yes"/>
      <point x="1043" y="0" type="line"/>
    </contour>
    <contour>
      <point x="588" y="257" type="curve" smooth="yes"/>
      <point x="588" y="196"/>
      <point x="534" y="159"/>
      <point x="483" y="137" type="curve"/>
      <point x="483" y="345" type="line"/>
      <point x="531" y="338"/>
      <point x="588" y="307"/>
    </contour>
  </outline>
</glyph>
<glyph name="uni178A17C5.right" format="2">
  <advance width="2204"/>
  <anchor x="1231" y="0" name="L"/>
  <anchor x="1231" y="1743" name="U"/>
  <anchor x="763" y="1743" name="um"/>
  <anchor x="763" y="0" name="lm"/>
  <anchor x="1959" y="1922" name="U2"/>
  <anchor x="1959" y="0" name="L2"/>
  <anchor x="1501" y="1922" name="um2"/>
  <outline>
    <contour>
      <point x="295" y="1231" type="curve" smooth="yes"/>
      <point x="295" y="1031"/>
      <point x="486" y="935"/>
      <point x="669" y="935" type="curve" smooth="yes"/>
      <point x="971" y="935"/>
      <point x="1191" y="1183"/>
      <point x="1191" y="1374" type="curve" smooth="yes"/>
      <point x="1191" y="1468"/>
      <point x="1180" y="1523"/>
      <point x="1122" y="1603" type="curve" smooth="yes"/>
      <point x="1059" y="1689"/>
      <point x="984" y="1743"/>
      <point x="888" y="1743" type="curve" smooth="yes"/>
      <point x="801" y="1743"/>
      <point x="771" y="1704"/>
      <point x="771" y="1658" type="curve" smooth="yes"/>
      <point x="771" y="1602"/>
      <point x="849" y="1557"/>
      <point x="913" y="1531" type="curve" smooth="yes"/>
      <point x="988" y="1500"/>
      <point x="1041" y="1449"/>
      <point x="1041" y="1374" type="curve" smooth="yes"/>
      <point x="1041" y="1223"/>
      <point x="877" y="1051"/>
      <point x="688" y="1051" type="curve" smooth="yes"/>
      <point x="562" y="1051"/>
      <point x="445" y="1118"/>
      <point x="445" y="1208" type="curve" smooth="yes"/>
      <point x="445" y="1246"/>
      <point x="449" y="1277"/>
      <point x="460" y="1297" type="curve"/>
      <point x="483" y="1274"/>
      <point x="517" y="1261"/>
      <point x="561" y="1261" type="curve" smooth="yes"/>
      <point x="629" y="1261"/>
      <point x="682" y="1301"/>
      <point x="682" y="1356" type="curve" smooth="yes"/>
      <point x="682" y="1435"/>
      <point x="596" y="1487"/>
      <point x="517" y="1487" type="curve" smooth="yes"/>
      <point x="475" y="1487"/>
      <point x="434" y="1476"/>
      <point x="407" y="1459" type="curve"/>
      <point x="321" y="1398"/>
      <point x="295" y="1314"/>
    </contour>
    <contour>
      <point x="1043" y="686" type="line"/>
      <point x="1043" y="215" type="line" smooth="yes"/>
      <point x="1043" y="172"/>
      <point x="1038" y="150"/>
      <point x="1014" y="150" type="curve" smooth="yes"/>
      <point x="1003" y="150"/>
      <point x="944" y="191"/>
      <point x="873" y="247" type="curve" smooth="yes"/>
      <point x="837" y="275"/>
      <point x="799" y="300"/>
      <point x="763" y="300" type="curve" smooth="yes"/>
      <point x="727" y="300"/>
      <point x="689" y="275"/>
      <point x="653" y="247" type="curve" smooth="yes"/>
      <point x="582" y="191"/>
      <point x="523" y="150"/>
      <point x="512" y="150" type="curve" smooth="yes"/>
      <point x="488" y="150"/>
      <point x="483" y="172"/>
      <point x="483" y="215" type="curve" smooth="yes"/>
      <point x="483" y="896" type="line"/>
      <point x="295" y="896" type="line"/>
      <point x="295" y="68" type="line" smooth="yes"/>
      <point x="295" y="33"/>
      <point x="338" y="0"/>
      <point x="382" y="0" type="curve" smooth="yes"/>
      <point x="463" y="0" type="line" smooth="yes"/>
      <point x="516" y="0"/>
      <point x="581" y="46"/>
      <point x="613" y="72" type="curve" smooth="yes"/>
      <point x="683" y="128"/>
      <point x="737" y="168"/>
      <point x="763" y="168" type="curve" smooth="yes"/>
      <point x="789" y="168"/>
      <point x="843" y="128"/>
      <point x="913" y="72" type="curve" smooth="yes"/>
      <point x="945" y="46"/>
      <point x="1010" y="0"/>
      <point x="1063" y="0" type="curve" smooth="yes"/>
      <point x="1144" y="0" type="line" smooth="yes"/>
      <point x="1186" y="0"/>
      <point x="1231" y="33"/>
      <point x="1231" y="68" type="curve" smooth="yes"/>
      <point x="1231" y="686" type="line"/>
    </contour>
    <contour>
      <point x="1231" y="571" type="line"/>
      <point x="1231" y="725" type="line" smooth="yes"/>
      <point x="1231" y="791"/>
      <point x="1126" y="809"/>
      <point x="1126" y="864" type="curve" smooth="yes"/>
      <point x="1126" y="923"/>
      <point x="1405" y="1328"/>
      <point x="1558" y="1328" type="curve" smooth="yes"/>
      <point x="1713" y="1328"/>
      <point x="1771" y="1228"/>
      <point x="1771" y="1135" type="curve" smooth="yes"/>
      <point x="1771" y="0" type="line"/>
      <point x="1959" y="0" type="line"/>
      <point x="1959" y="1153" type="line" smooth="yes"/>
      <point x="1959" y="1211"/>
      <point x="1929" y="1270"/>
      <point x="1880" y="1319" type="curve"/>
      <point x="1933" y="1413"/>
      <point x="1959" y="1516"/>
      <point x="1959" y="1610" type="curve" smooth="yes"/>
      <point x="1959" y="1704"/>
      <point x="1930" y="1800"/>
      <point x="1818" y="1894" type="curve" smooth="yes"/>
      <point x="1795" y="1913"/>
      <point x="1758" y="1922"/>
      <point x="1734" y="1922" type="curve" smooth="yes"/>
      <point x="1676" y="1922"/>
      <point x="1626" y="1898"/>
      <point x="1626" y="1834" type="curve" smooth="yes"/>
      <point x="1626" y="1794"/>
      <point x="1637" y="1772"/>
      <point x="1672" y="1740" type="curve"/>
      <point x="1740" y="1689"/>
      <point x="1759" y="1614"/>
      <point x="1759" y="1538" type="curve" smooth="yes"/>
      <point x="1759" y="1494"/>
      <point x="1749" y="1446"/>
      <point x="1737" y="1411" type="curve"/>
      <point x="1690" y="1429"/>
      <point x="1639" y="1440"/>
      <point x="1586" y="1440" type="curve" smooth="yes"/>
      <point x="1367" y="1440"/>
      <point x="1013" y="941"/>
      <point x="1013" y="844" type="curve" smooth="yes"/>
      <point x="1013" y="794"/>
      <point x="1043" y="789"/>
      <point x="1043" y="738" type="curve" smooth="yes"/>
      <point x="1043" y="571" type="line"/>
    </contour>
  </outline>
</glyph>
<glyph name="uni178A17CF" format="2">
  <advance width="1476"/>
  <anchor x="1231" y="2500" name="U"/>
  <anchor x="763" y="2500" name="um"/>
  <outline>
    <contour>
      <point x="295" y="1231" type="curve" smooth="yes"/>
      <point x="295" y="1031"/>
      <point x="486" y="935"/>
      <point x="689" y="935" type="curve" smooth="yes"/>
      <point x="1001" y="935"/>
      <point x="1231" y="1088"/>
      <point x="1231" y="1374" type="curve" smooth="yes"/>
      <point x="1231" y="1468"/>
      <point x="1220" y="1523"/>
      <point x="1162" y="1603" type="curve" smooth="yes"/>
      <point x="1099" y="1689"/>
      <point x="1024" y="1743"/>
      <point x="928" y="1743" type="curve" smooth="yes"/>
      <point x="841" y="1743"/>
      <point x="811" y="1704"/>
      <point x="811" y="1658" type="curve" smooth="yes"/>
      <point x="811" y="1602"/>
      <point x="889" y="1557"/>
      <point x="953" y="1531" type="curve" smooth="yes"/>
      <point x="1028" y="1500"/>
      <point x="1081" y="1449"/>
      <point x="1081" y="1374" type="curve" smooth="yes"/>
      <point x="1081" y="1163"/>
      <point x="907" y="1051"/>
      <point x="708" y="1051" type="curve" smooth="yes"/>
      <point x="572" y="1051"/>
      <point x="445" y="1118"/>
      <point x="445" y="1208" type="curve" smooth="yes"/>
      <point x="445" y="1246"/>
      <point x="449" y="1277"/>
      <point x="460" y="1297" type="curve"/>
      <point x="483" y="1274"/>
      <point x="517" y="1261"/>
      <point x="561" y="1261" type="curve" smooth="yes"/>
      <point x="629" y="1261"/>
      <point x="682" y="1301"/>
      <point x="682" y="1356" type="curve" smooth="yes"/>
      <point x="682" y="1435"/>
      <point x="596" y="1487"/>
      <point x="517" y="1487" type="curve" smooth="yes"/>
      <point x="475" y="1487"/>
      <point x="434" y="1476"/>
      <point x="407" y="1459" type="curve"/>
      <point x="321" y="1398"/>
      <point x="295" y="1314"/>
    </contour>
    <contour>
      <point x="1043" y="896" type="line"/>
      <point x="1043" y="215" type="line" smooth="yes"/>
      <point x="1043" y="172"/>
      <point x="1038" y="150"/>
      <point x="1014" y="150" type="curve" smooth="yes"/>
      <point x="1003" y="150"/>
      <point x="944" y="191"/>
      <point x="873" y="247" type="curve" smooth="yes"/>
      <point x="837" y="275"/>
      <point x="799" y="300"/>
      <point x="763" y="300" type="curve" smooth="yes"/>
      <point x="727" y="300"/>
      <point x="689" y="275"/>
      <point x="653" y="247" type="curve" smooth="yes"/>
      <point x="582" y="191"/>
      <point x="523" y="150"/>
      <point x="512" y="150" type="curve" smooth="yes"/>
      <point x="488" y="150"/>
      <point x="483" y="172"/>
      <point x="483" y="215" type="curve" smooth="yes"/>
      <point x="483" y="896" type="line"/>
      <point x="295" y="896" type="line"/>
      <point x="295" y="68" type="line" smooth="yes"/>
      <point x="295" y="33"/>
      <point x="338" y="0"/>
      <point x="382" y="0" type="curve" smooth="yes"/>
      <point x="463" y="0" type="line" smooth="yes"/>
      <point x="516" y="0"/>
      <point x="581" y="46"/>
      <point x="613" y="72" type="curve" smooth="yes"/>
      <point x="683" y="128"/>
      <point x="737" y="168"/>
      <point x="763" y="168" type="curve" smooth="yes"/>
      <point x="789" y="168"/>
      <point x="843" y="128"/>
      <point x="913" y="72" type="curve" smooth="yes"/>
      <point x="945" y="46"/>
      <point x="1010" y="0"/>
      <point x="1063" y="0" type="curve" smooth="yes"/>
      <point x="1144" y="0" type="line" smooth="yes"/>
      <point x="1186" y="0"/>
      <point x="1231" y="33"/>
      <point x="1231" y="68" type="curve" smooth="yes"/>
      <point x="1231" y="896" type="line"/>
    </contour>
    <contour>
      <point x="369" y="2066" type="curve" smooth="yes"/>
      <point x="369" y="1949"/>
      <point x="467" y="1862"/>
      <point x="580" y="1862" type="curve" smooth="yes"/>
      <point x="633" y="1862"/>
      <point x="662" y="1877"/>
      <point x="687" y="1898" type="curve"/>
      <point x="712" y="1911"/>
      <point x="740" y="1930"/>
      <point x="763" y="1930" type="curve" smooth="yes"/>
      <point x="776" y="1930"/>
      <point x="798" y="1916"/>
      <point x="819" y="1900" type="curve" smooth="yes"/>
      <point x="845" y="1881"/>
      <point x="876" y="1862"/>
      <point x="936" y="1862" type="curve" smooth="yes"/>
      <point x="1098" y="1862"/>
      <point x="1157" y="1960"/>
      <point x="1157" y="2038" type="curve" smooth="yes"/>
      <point x="1157" y="2081"/>
      <point x="1131" y="2162"/>
      <point x="1053" y="2162" type="curve" smooth="yes"/>
      <point x="988" y="2162"/>
      <point x="970" y="2134"/>
      <point x="970" y="2102" type="curve" smooth="yes"/>
      <point x="970" y="2095"/>
      <point x="974" y="2084"/>
      <point x="981" y="2073" type="curve" smooth="yes"/>
      <point x="985" y="2066"/>
      <point x="989" y="2061"/>
      <point x="989" y="2047" type="curve" smooth="yes"/>
      <point x="989" y="2020"/>
      <point x="966" y="2004"/>
      <point x="921" y="2004" type="curve" smooth="yes"/>
      <point x="909" y="2004"/>
      <point x="887" y="2020"/>
      <point x="865" y="2034" type="curve"/>
      <point x="838" y="2055"/>
      <point x="808" y="2073"/>
      <point x="763" y="2073" type="curve" smooth="yes"/>
      <point x="726" y="2073"/>
      <point x="691" y="2058"/>
      <point x="665" y="2038" type="curve"/>
      <point x="644" y="2024"/>
      <point x="612" y="2004"/>
      <point x="598" y="2004" type="curve" smooth="yes"/>
      <point x="561" y="2004"/>
      <point x="537" y="2043"/>
      <point x="537" y="2084" type="curve" smooth="yes"/>
      <point x="537" y="2148"/>
      <point x="598" y="2181"/>
      <point x="647" y="2181" type="curve" smooth="yes"/>
      <point x="712" y="2181"/>
      <point x="744" y="2171"/>
      <point x="776" y="2160" type="curve" smooth="yes"/>
      <point x="797" y="2153"/>
      <point x="816" y="2144"/>
      <point x="849" y="2144" type="curve" smooth="yes"/>
      <point x="1006" y="2144"/>
      <point x="1098" y="2227"/>
      <point x="1098" y="2320" type="curve" smooth="yes"/>
      <point x="1098" y="2414"/>
      <point x="1127" y="2460"/>
      <point x="1149" y="2486" type="curve"/>
      <point x="1127" y="2496"/>
      <point x="1102" y="2500"/>
      <point x="1074" y="2500" type="curve" smooth="yes"/>
      <point x="999" y="2500"/>
      <point x="938" y="2437"/>
      <point x="938" y="2381" type="curve" smooth="yes"/>
      <point x="938" y="2305"/>
      <point x="913" y="2291"/>
      <point x="838" y="2291" type="curve" smooth="yes"/>
      <point x="819" y="2291"/>
      <point x="797" y="2298"/>
      <point x="776" y="2305" type="curve" smooth="yes"/>
      <point x="740" y="2317"/>
      <point x="704" y="2328"/>
      <point x="629" y="2328" type="curve" smooth="yes"/>
      <point x="493" y="2328"/>
      <point x="369" y="2213"/>
    </contour>
  </outline>
</glyph>
<glyph name="uni178B17B6" format="2">
  <advance width="2244"/>
  <anchor x="1271" y="0" name="L"/>
  <anchor x="1271" y="1793" name="U"/>
  <anchor x="803" y="1793" name="um"/>
  <anchor x="1999" y="1440" name="U2"/>
  <anchor x="1999" y="0" name="L2"/>
  <anchor x="803" y="0" name="lm"/>
  <anchor x="1586" y="1650" name="um2"/>
  <outline>
    <contour>
      <point x="335" y="1049" type="curve"/>
      <point x="335" y="187" type="line" smooth="yes"/>
      <point x="335" y="87"/>
      <point x="607" y="0"/>
      <point x="803" y="0" type="curve" smooth="yes"/>
      <point x="999" y="0"/>
      <point x="1271" y="87"/>
      <point x="1271" y="187" type="curve" smooth="yes"/>
      <point x="1271" y="980" type="line" smooth="yes"/>
      <point x="1271" y="1024"/>
      <point x="1208" y="1053"/>
      <point x="1127" y="1092" type="curve" smooth="yes"/>
      <point x="1080" y="1114"/>
      <point x="1034" y="1138"/>
      <point x="1034" y="1193" type="curve" smooth="yes"/>
      <point x="1034" y="1242"/>
      <point x="1062" y="1282"/>
      <point x="1098" y="1282" type="curve" smooth="yes"/>
      <point x="1113" y="1282"/>
      <point x="1140" y="1268"/>
      <point x="1158" y="1253" type="curve"/>
      <point x="1188" y="1231"/>
      <point x="1226" y="1204"/>
      <point x="1290" y="1204" type="curve" smooth="yes"/>
      <point x="1356" y="1204"/>
      <point x="1403" y="1228"/>
      <point x="1426" y="1304" type="curve"/>
      <point x="1474" y="1318"/>
      <point x="1529" y="1328"/>
      <point x="1586" y="1328" type="curve" smooth="yes"/>
      <point x="1733" y="1328"/>
      <point x="1811" y="1208"/>
      <point x="1811" y="1145" type="curve" smooth="yes"/>
      <point x="1811" y="0" type="line"/>
      <point x="1999" y="0" type="line"/>
      <point x="1999" y="1163" type="line" smooth="yes"/>
      <point x="1999" y="1264"/>
      <point x="1822" y="1440"/>
      <point x="1586" y="1440" type="curve" smooth="yes"/>
      <point x="1537" y="1440"/>
      <point x="1489" y="1434"/>
      <point x="1443" y="1425" type="curve"/>
      <point x="1444" y="1434"/>
      <point x="1444" y="1443"/>
      <point x="1444" y="1453" type="curve" smooth="yes"/>
      <point x="1444" y="1610"/>
      <point x="1316" y="1793"/>
      <point x="1116" y="1793" type="curve" smooth="yes"/>
      <point x="1048" y="1793"/>
      <point x="1009" y="1767"/>
      <point x="1009" y="1721" type="curve" smooth="yes"/>
      <point x="1009" y="1654"/>
      <point x="1083" y="1616"/>
      <point x="1169" y="1589" type="curve" smooth="yes"/>
      <point x="1263" y="1560"/>
      <point x="1332" y="1519"/>
      <point x="1332" y="1421" type="curve" smooth="yes"/>
      <point x="1332" y="1385"/>
      <point x="1328" y="1365"/>
      <point x="1321" y="1365" type="curve" smooth="yes"/>
      <point x="1313" y="1365"/>
      <point x="1290" y="1381"/>
      <point x="1267" y="1396" type="curve"/>
      <point x="1237" y="1418"/>
      <point x="1199" y="1440"/>
      <point x="1147" y="1440" type="curve" smooth="yes"/>
      <point x="1034" y="1440"/>
      <point x="911" y="1306"/>
      <point x="911" y="1189" type="curve" smooth="yes"/>
      <point x="911" y="1118"/>
      <point x="933" y="1063"/>
      <point x="1015" y="1016" type="curve"/>
      <point x="1048" y="1002"/>
      <point x="1083" y="980"/>
      <point x="1083" y="923" type="curve" smooth="yes"/>
      <point x="1083" y="207" type="line" smooth="yes"/>
      <point x="1083" y="143"/>
      <point x="881" y="112"/>
      <point x="803" y="112" type="curve" smooth="yes"/>
      <point x="725" y="112"/>
      <point x="523" y="143"/>
      <point x="523" y="207" type="curve" smooth="yes"/>
      <point x="523" y="1108" type="line"/>
      <point x="498" y="1171"/>
      <point x="417" y="1186"/>
      <point x="352" y="1186" type="curve"/>
      <point x="186" y="1155"/>
      <point x="108" y="1017"/>
      <point x="108" y="938" type="curve" smooth="yes"/>
      <point x="108" y="823"/>
      <point x="188" y="781"/>
      <point x="241" y="781" type="curve" smooth="yes"/>
      <point x="288" y="781"/>
      <point x="305" y="801"/>
      <point x="305" y="823" type="curve" smooth="yes"/>
      <point x="305" y="845"/>
      <point x="294" y="852"/>
      <point x="274" y="863" type="curve" smooth="yes"/>
      <point x="256" y="873"/>
      <point x="230" y="896"/>
      <point x="230" y="929" type="curve" smooth="yes"/>
      <point x="230" y="990"/>
      <point x="284" y="1027"/>
    </contour>
  </outline>
</glyph>
<glyph name="uni178B17C5.right" format="2">
  <advance width="2244"/>
  <anchor x="1271" y="0" name="L"/>
  <anchor x="1271" y="1793" name="U"/>
  <anchor x="803" y="1793" name="um"/>
  <anchor x="1541" y="1922" name="um2"/>
  <anchor x="1999" y="1922" name="U2"/>
  <anchor x="1999" y="0" name="L2"/>
  <anchor x="803" y="0" name="lm"/>
  <outline>
    <contour>
      <point x="523" y="207" type="curve" smooth="yes"/>
      <point x="523" y="1108" type="line"/>
      <point x="498" y="1171"/>
      <point x="417" y="1186"/>
      <point x="352" y="1186" type="curve"/>
      <point x="186" y="1155"/>
      <point x="108" y="1017"/>
      <point x="108" y="938" type="curve" smooth="yes"/>
      <point x="108" y="823"/>
      <point x="188" y="781"/>
      <point x="241" y="781" type="curve" smooth="yes"/>
      <point x="288" y="781"/>
      <point x="305" y="801"/>
      <point x="305" y="823" type="curve" smooth="yes"/>
      <point x="305" y="845"/>
      <point x="294" y="852"/>
      <point x="274" y="863" type="curve" smooth="yes"/>
      <point x="256" y="873"/>
      <point x="230" y="896"/>
      <point x="230" y="929" type="curve" smooth="yes"/>
      <point x="230" y="990"/>
      <point x="284" y="1027"/>
      <point x="335" y="1049" type="curve"/>
      <point x="335" y="187" type="line" smooth="yes"/>
      <point x="335" y="87"/>
      <point x="607" y="0"/>
      <point x="803" y="0" type="curve" smooth="yes"/>
      <point x="999" y="0"/>
      <point x="1271" y="87"/>
      <point x="1271" y="187" type="curve" smooth="yes"/>
      <point x="1271" y="980" type="line" smooth="yes"/>
      <point x="1271" y="1024"/>
      <point x="1208" y="1053"/>
      <point x="1127" y="1092" type="curve" smooth="yes"/>
      <point x="1080" y="1114"/>
      <point x="1034" y="1138"/>
      <point x="1034" y="1193" type="curve" smooth="yes"/>
      <point x="1034" y="1242"/>
      <point x="1062" y="1282"/>
      <point x="1098" y="1282" type="curve" smooth="yes"/>
      <point x="1113" y="1282"/>
      <point x="1140" y="1268"/>
      <point x="1158" y="1253" type="curve"/>
      <point x="1188" y="1231"/>
      <point x="1226" y="1204"/>
      <point x="1290" y="1204" type="curve" smooth="yes"/>
      <point x="1356" y="1204"/>
      <point x="1403" y="1228"/>
      <point x="1426" y="1304" type="curve"/>
      <point x="1474" y="1318"/>
      <point x="1529" y="1328"/>
      <point x="1586" y="1328" type="curve" smooth="yes"/>
      <point x="1733" y="1328"/>
      <point x="1811" y="1208"/>
      <point x="1811" y="1145" type="curve" smooth="yes"/>
      <point x="1811" y="0" type="line"/>
      <point x="1999" y="0" type="line"/>
      <point x="1999" y="1163" type="line" smooth="yes"/>
      <point x="1999" y="1205"/>
      <point x="1968" y="1260"/>
      <point x="1915" y="1310" type="curve"/>
      <point x="1973" y="1407"/>
      <point x="1999" y="1513"/>
      <point x="1999" y="1610" type="curve" smooth="yes"/>
      <point x="1999" y="1704"/>
      <point x="1970" y="1800"/>
      <point x="1858" y="1894" type="curve" smooth="yes"/>
      <point x="1835" y="1913"/>
      <point x="1798" y="1922"/>
      <point x="1774" y="1922" type="curve" smooth="yes"/>
      <point x="1716" y="1922"/>
      <point x="1666" y="1898"/>
      <point x="1666" y="1834" type="curve" smooth="yes"/>
      <point x="1666" y="1794"/>
      <point x="1677" y="1772"/>
      <point x="1712" y="1740" type="curve"/>
      <point x="1780" y="1689"/>
      <point x="1799" y="1614"/>
      <point x="1799" y="1538" type="curve" smooth="yes"/>
      <point x="1799" y="1490"/>
      <point x="1787" y="1437"/>
      <point x="1774" y="1401" type="curve"/>
      <point x="1718" y="1425"/>
      <point x="1655" y="1440"/>
      <point x="1586" y="1440" type="curve" smooth="yes"/>
      <point x="1537" y="1440"/>
      <point x="1489" y="1434"/>
      <point x="1443" y="1425" type="curve"/>
      <point x="1444" y="1434"/>
      <point x="1444" y="1443"/>
      <point x="1444" y="1453" type="curve" smooth="yes"/>
      <point x="1444" y="1610"/>
      <point x="1316" y="1793"/>
      <point x="1116" y="1793" type="curve" smooth="yes"/>
      <point x="1048" y="1793"/>
      <point x="1009" y="1767"/>
      <point x="1009" y="1721" type="curve" smooth="yes"/>
      <point x="1009" y="1654"/>
      <point x="1083" y="1616"/>
      <point x="1169" y="1589" type="curve" smooth="yes"/>
      <point x="1263" y="1560"/>
      <point x="1332" y="1519"/>
      <point x="1332" y="1421" type="curve" smooth="yes"/>
      <point x="1332" y="1385"/>
      <point x="1328" y="1365"/>
      <point x="1321" y="1365" type="curve" smooth="yes"/>
      <point x="1313" y="1365"/>
      <point x="1290" y="1381"/>
      <point x="1267" y="1396" type="curve"/>
      <point x="1237" y="1418"/>
      <point x="1199" y="1440"/>
      <point x="1147" y="1440" type="curve" smooth="yes"/>
      <point x="1034" y="1440"/>
      <point x="911" y="1306"/>
      <point x="911" y="1189" type="curve" smooth="yes"/>
      <point x="911" y="1118"/>
      <point x="933" y="1063"/>
      <point x="1015" y="1016" type="curve"/>
      <point x="1048" y="1002"/>
      <point x="1083" y="980"/>
      <point x="1083" y="923" type="curve" smooth="yes"/>
      <point x="1083" y="207" type="line" smooth="yes"/>
      <point x="1083" y="143"/>
      <point x="881" y="112"/>
      <point x="803" y="112" type="curve" smooth="yes"/>
      <point x="725" y="112"/>
      <point x="523" y="143"/>
    </contour>
  </outline>
</glyph>
<glyph name="uni178E17C5.right" format="2">
  <advance width="3256"/>
  <anchor x="2283" y="1440" name="U"/>
  <anchor x="2283" y="0" name="L"/>
  <anchor x="3011" y="1922" name="U2"/>
  <anchor x="3011" y="0" name="L2"/>
  <anchor x="1289" y="0" name="lm"/>
  <anchor x="1889" y="1440" name="um"/>
  <anchor x="2553" y="1922" name="um2"/>
  <outline>
    <contour>
      <point x="295" y="1253" type="curve" smooth="yes"/>
      <point x="295" y="79" type="line"/>
      <point x="320" y="16"/>
      <point x="401" y="0"/>
      <point x="466" y="0" type="curve"/>
      <point x="632" y="31"/>
      <point x="710" y="169"/>
      <point x="710" y="248" type="curve" smooth="yes"/>
      <point x="710" y="376"/>
      <point x="610" y="444"/>
      <point x="483" y="451" type="curve"/>
      <point x="483" y="1246" type="line" smooth="yes"/>
      <point x="483" y="1301"/>
      <point x="603" y="1328"/>
      <point x="689" y="1328" type="curve" smooth="yes"/>
      <point x="775" y="1328"/>
      <point x="895" y="1301"/>
      <point x="895" y="1246" type="curve" smooth="yes"/>
      <point x="895" y="68" type="line" smooth="yes"/>
      <point x="895" y="33"/>
      <point x="936" y="0"/>
      <point x="982" y="0" type="curve" smooth="yes"/>
      <point x="1061" y="0" type="line" smooth="yes"/>
      <point x="1135" y="0"/>
      <point x="1205" y="94"/>
      <point x="1251" y="154" type="curve" smooth="yes"/>
      <point x="1268" y="177"/>
      <point x="1285" y="203"/>
      <point x="1289" y="211" type="curve"/>
      <point x="1293" y="203"/>
      <point x="1309" y="176"/>
      <point x="1327" y="154" type="curve"/>
      <point x="1373" y="94"/>
      <point x="1443" y="0"/>
      <point x="1517" y="0" type="curve" smooth="yes"/>
      <point x="1596" y="0" type="line" smooth="yes"/>
      <point x="1641" y="0"/>
      <point x="1683" y="33"/>
      <point x="1683" y="68" type="curve" smooth="yes"/>
      <point x="1683" y="1246" type="line" smooth="yes"/>
      <point x="1683" y="1301"/>
      <point x="1803" y="1328"/>
      <point x="1889" y="1328" type="curve" smooth="yes"/>
      <point x="1975" y="1328"/>
      <point x="2095" y="1301"/>
      <point x="2095" y="1246" type="curve" smooth="yes"/>
      <point x="2095" y="0" type="line"/>
      <point x="2283" y="0" type="line"/>
      <point x="2283" y="1253" type="line" smooth="yes"/>
      <point x="2283" y="1353"/>
      <point x="2085" y="1440"/>
      <point x="1889" y="1440" type="curve" smooth="yes"/>
      <point x="1693" y="1440"/>
      <point x="1495" y="1353"/>
      <point x="1495" y="1253" type="curve" smooth="yes"/>
      <point x="1495" y="215" type="line" smooth="yes"/>
      <point x="1495" y="172"/>
      <point x="1488" y="150"/>
      <point x="1473" y="150" type="curve" smooth="yes"/>
      <point x="1459" y="150"/>
      <point x="1415" y="207"/>
      <point x="1383" y="262" type="curve" smooth="yes"/>
      <point x="1353" y="314"/>
      <point x="1319" y="361"/>
      <point x="1289" y="361" type="curve" smooth="yes"/>
      <point x="1259" y="361"/>
      <point x="1224" y="314"/>
      <point x="1194" y="262" type="curve" smooth="yes"/>
      <point x="1162" y="207"/>
      <point x="1119" y="150"/>
      <point x="1105" y="150" type="curve" smooth="yes"/>
      <point x="1090" y="150"/>
      <point x="1083" y="172"/>
      <point x="1083" y="215" type="curve" smooth="yes"/>
      <point x="1083" y="1253" type="line" smooth="yes"/>
      <point x="1083" y="1353"/>
      <point x="885" y="1440"/>
      <point x="689" y="1440" type="curve" smooth="yes"/>
      <point x="493" y="1440"/>
      <point x="295" y="1353"/>
    </contour>
    <contour>
      <point x="588" y="257" type="curve" smooth="yes"/>
      <point x="588" y="196"/>
      <point x="534" y="159"/>
      <point x="483" y="137" type="curve"/>
      <point x="483" y="345" type="line"/>
      <point x="531" y="338"/>
      <point x="588" y="307"/>
    </contour>
    <contour>
      <point x="2272" y="1233" type="line"/>
      <point x="2316" y="1270"/>
      <point x="2448" y="1328"/>
      <point x="2598" y="1328" type="curve" smooth="yes"/>
      <point x="2745" y="1328"/>
      <point x="2823" y="1208"/>
      <point x="2823" y="1145" type="curve" smooth="yes"/>
      <point x="2823" y="0" type="line"/>
      <point x="3011" y="0" type="line"/>
      <point x="3011" y="1163" type="line" smooth="yes"/>
      <point x="3011" y="1205"/>
      <point x="2980" y="1260"/>
      <point x="2927" y="1310" type="curve"/>
      <point x="2984" y="1407"/>
      <point x="3011" y="1513"/>
      <point x="3011" y="1610" type="curve" smooth="yes"/>
      <point x="3011" y="1704"/>
      <point x="2982" y="1800"/>
      <point x="2870" y="1894" type="curve" smooth="yes"/>
      <point x="2847" y="1913"/>
      <point x="2810" y="1922"/>
      <point x="2786" y="1922" type="curve" smooth="yes"/>
      <point x="2728" y="1922"/>
      <point x="2678" y="1898"/>
      <point x="2678" y="1834" type="curve" smooth="yes"/>
      <point x="2678" y="1794"/>
      <point x="2689" y="1772"/>
      <point x="2724" y="1740" type="curve"/>
      <point x="2792" y="1689"/>
      <point x="2811" y="1614"/>
      <point x="2811" y="1538" type="curve" smooth="yes"/>
      <point x="2811" y="1490"/>
      <point x="2799" y="1437"/>
      <point x="2786" y="1401" type="curve"/>
      <point x="2730" y="1425"/>
      <point x="2666" y="1440"/>
      <point x="2598" y="1440" type="curve" smooth="yes"/>
      <point x="2423" y="1440"/>
      <point x="2264" y="1360"/>
      <point x="2207" y="1304" type="curve"/>
    </contour>
  </outline>
</glyph>
<glyph name="uni179117C5.right" format="2">
  <advance width="2008"/>
  <anchor x="1131" y="0" name="L"/>
  <anchor x="1131" y="1440" name="U"/>
  <anchor x="654" y="0" name="lm"/>
  <anchor x="1763" y="0" name="L2"/>
  <anchor x="1763" y="1922" name="U2"/>
  <anchor x="654" y="1440" name="um"/>
  <anchor x="1350" y="1922" name="um2"/>
  <outline>
    <contour>
      <point x="681" y="502" type="curve"/>
      <point x="681" y="214" type="line" smooth="yes"/>
      <point x="681" y="158"/>
      <point x="651" y="112"/>
      <point x="587" y="112" type="curve" smooth="yes"/>
      <point x="523" y="112"/>
      <point x="493" y="158"/>
      <point x="493" y="214" type="curve" smooth="yes"/>
      <point x="493" y="449" type="line"/>
      <point x="305" y="449" type="line"/>
      <point x="305" y="217" type="line" smooth="yes"/>
      <point x="305" y="117"/>
      <point x="383" y="0"/>
      <point x="587" y="0" type="curve" smooth="yes"/>
      <point x="791" y="0"/>
      <point x="869" y="117"/>
      <point x="869" y="217" type="curve" smooth="yes"/>
      <point x="869" y="502" type="line"/>
      <point x="1042" y="505"/>
      <point x="1131" y="606"/>
      <point x="1131" y="709" type="curve" smooth="yes"/>
      <point x="1131" y="818"/>
      <point x="1027" y="896"/>
      <point x="906" y="896" type="curve" smooth="yes"/>
      <point x="759" y="896"/>
      <point x="681" y="803"/>
      <point x="681" y="652" type="curve"/>
      <point x="488" y="660"/>
      <point x="365" y="818"/>
      <point x="365" y="991" type="curve" smooth="yes"/>
      <point x="365" y="1172"/>
      <point x="461" y="1310"/>
      <point x="718" y="1310" type="curve" smooth="yes"/>
      <point x="880" y="1310"/>
      <point x="945" y="1250"/>
      <point x="945" y="1208" type="curve" smooth="yes"/>
      <point x="945" y="1177"/>
      <point x="942" y="1167"/>
      <point x="931" y="1156" type="curve"/>
      <point x="904" y="1179"/>
      <point x="875" y="1193"/>
      <point x="829" y="1193" type="curve" smooth="yes"/>
      <point x="761" y="1193"/>
      <point x="710" y="1158"/>
      <point x="710" y="1099" type="curve" smooth="yes"/>
      <point x="710" y="1020"/>
      <point x="795" y="967"/>
      <point x="874" y="967" type="curve" smooth="yes"/>
      <point x="1000" y="967"/>
      <point x="1113" y="1057"/>
      <point x="1113" y="1189" type="curve" smooth="yes"/>
      <point x="1113" y="1320"/>
      <point x="1016" y="1440"/>
      <point x="718" y="1440" type="curve" smooth="yes"/>
      <point x="365" y="1440"/>
      <point x="177" y="1256"/>
      <point x="177" y="991" type="curve" smooth="yes"/>
      <point x="177" y="711"/>
      <point x="399" y="510"/>
    </contour>
    <contour>
      <point x="869" y="701" type="line" smooth="yes"/>
      <point x="869" y="744"/>
      <point x="882" y="766"/>
      <point x="908" y="766" type="curve" smooth="yes"/>
      <point x="936" y="766"/>
      <point x="953" y="748"/>
      <point x="953" y="709" type="curve" smooth="yes"/>
      <point x="953" y="675"/>
      <point x="925" y="652"/>
      <point x="903" y="652" type="curve" smooth="yes"/>
      <point x="869" y="652" type="line"/>
    </contour>
    <contour>
      <point x="1024" y="1233" type="line"/>
      <point x="1068" y="1270"/>
      <point x="1200" y="1328"/>
      <point x="1350" y="1328" type="curve" smooth="yes"/>
      <point x="1497" y="1328"/>
      <point x="1575" y="1208"/>
      <point x="1575" y="1145" type="curve" smooth="yes"/>
      <point x="1575" y="0" type="line"/>
      <point x="1763" y="0" type="line"/>
      <point x="1763" y="1163" type="line" smooth="yes"/>
      <point x="1763" y="1205"/>
      <point x="1732" y="1260"/>
      <point x="1679" y="1310" type="curve"/>
      <point x="1736" y="1407"/>
      <point x="1763" y="1513"/>
      <point x="1763" y="1610" type="curve" smooth="yes"/>
      <point x="1763" y="1704"/>
      <point x="1734" y="1800"/>
      <point x="1622" y="1894" type="curve" smooth="yes"/>
      <point x="1599" y="1913"/>
      <point x="1562" y="1922"/>
      <point x="1538" y="1922" type="curve" smooth="yes"/>
      <point x="1480" y="1922"/>
      <point x="1430" y="1898"/>
      <point x="1430" y="1834" type="curve" smooth="yes"/>
      <point x="1430" y="1794"/>
      <point x="1441" y="1772"/>
      <point x="1476" y="1740" type="curve"/>
      <point x="1544" y="1689"/>
      <point x="1563" y="1614"/>
      <point x="1563" y="1538" type="curve" smooth="yes"/>
      <point x="1563" y="1490"/>
      <point x="1551" y="1437"/>
      <point x="1538" y="1401" type="curve"/>
      <point x="1482" y="1425"/>
      <point x="1418" y="1440"/>
      <point x="1350" y="1440" type="curve" smooth="yes"/>
      <point x="1175" y="1440"/>
      <point x="1016" y="1360"/>
      <point x="959" y="1304" type="curve"/>
    </contour>
  </outline>
</glyph>
<glyph name="uni179717B6" format="2">
  <advance width="2244"/>
  <anchor x="1271" y="1440" name="U"/>
  <anchor x="1271" y="0" name="L"/>
  <anchor x="803" y="1440" name="um"/>
  <anchor x="803" y="0" name="lm"/>
  <anchor x="1541" y="1440" name="um2"/>
  <anchor x="1999" y="1440" name="U2"/>
  <anchor x="1999" y="0" name="L2"/>
  <outline>
    <contour>
      <point x="335" y="938" type="curve"/>
      <point x="335" y="137" type="line"/>
      <point x="284" y="159"/>
      <point x="230" y="196"/>
      <point x="230" y="257" type="curve" smooth="yes"/>
      <point x="230" y="290"/>
      <point x="256" y="313"/>
      <point x="274" y="323" type="curve" smooth="yes"/>
      <point x="294" y="334"/>
      <point x="305" y="341"/>
      <point x="305" y="363" type="curve" smooth="yes"/>
      <point x="305" y="385"/>
      <point x="288" y="405"/>
      <point x="241" y="405" type="curve" smooth="yes"/>
      <point x="188" y="405"/>
      <point x="108" y="363"/>
      <point x="108" y="248" type="curve" smooth="yes"/>
      <point x="108" y="169"/>
      <point x="186" y="31"/>
      <point x="352" y="0" type="curve"/>
      <point x="417" y="0"/>
      <point x="498" y="15"/>
      <point x="523" y="78" type="curve"/>
      <point x="523" y="920" type="line" smooth="yes"/>
      <point x="523" y="984"/>
      <point x="725" y="1011"/>
      <point x="803" y="1011" type="curve" smooth="yes"/>
      <point x="881" y="1011"/>
      <point x="1083" y="984"/>
      <point x="1083" y="920" type="curve" smooth="yes"/>
      <point x="1083" y="0" type="line"/>
      <point x="1271" y="0" type="line"/>
      <point x="1271" y="938" type="line" smooth="yes"/>
      <point x="1271" y="1038"/>
      <point x="999" y="1123"/>
      <point x="803" y="1123" type="curve" smooth="yes"/>
      <point x="665" y="1123"/>
      <point x="490" y="1078"/>
      <point x="400" y="1016" type="curve"/>
      <point x="365" y="1047"/>
      <point x="339" y="1084"/>
      <point x="339" y="1125" type="curve" smooth="yes"/>
      <point x="339" y="1231"/>
      <point x="464" y="1286"/>
      <point x="588" y="1286" type="curve" smooth="yes"/>
      <point x="826" y="1286"/>
      <point x="966" y="1225"/>
      <point x="1084" y="1148" type="curve"/>
      <point x="1146" y="1209"/>
      <point x="1260" y="1312"/>
      <point x="1454" y="1312" type="curve" smooth="yes"/>
      <point x="1690" y="1312"/>
      <point x="1811" y="1208"/>
      <point x="1811" y="1145" type="curve" smooth="yes"/>
      <point x="1811" y="0" type="line"/>
      <point x="1999" y="0" type="line"/>
      <point x="1999" y="1163" type="line" smooth="yes"/>
      <point x="1999" y="1264"/>
      <point x="1774" y="1440"/>
      <point x="1458" y="1440" type="curve" smooth="yes"/>
      <point x="1291" y="1440"/>
      <point x="1159" y="1354"/>
      <point x="1084" y="1282" type="curve"/>
      <point x="942" y="1377"/>
      <point x="817" y="1440"/>
      <point x="555" y="1440" type="curve" smooth="yes"/>
      <point x="355" y="1440"/>
      <point x="203" y="1318"/>
      <point x="203" y="1179" type="curve" smooth="yes"/>
      <point x="203" y="1077"/>
      <point x="278" y="1001"/>
      <point x="342" y="960" type="curve"/>
      <point x="339" y="952"/>
      <point x="335" y="946"/>
    </contour>
  </outline>
</glyph>
<glyph name="uni179817C5.right" format="2">
  <advance width="2204"/>
  <anchor x="1231" y="0" name="L"/>
  <anchor x="1231" y="1440" name="U"/>
  <anchor x="763" y="1440" name="um"/>
  <anchor x="1501" y="1922" name="um2"/>
  <anchor x="1959" y="1922" name="U2"/>
  <anchor x="1959" y="0" name="L2"/>
  <anchor x="763" y="0" name="lm"/>
  <outline>
    <contour>
      <point x="1231" y="187" type="curve" smooth="yes"/>
      <point x="1231" y="980" type="line" smooth="yes"/>
      <point x="1231" y="1024"/>
      <point x="1166" y="1054"/>
      <point x="1088" y="1091" type="curve" smooth="yes"/>
      <point x="1040" y="1114"/>
      <point x="994" y="1138"/>
      <point x="994" y="1193" type="curve" smooth="yes"/>
      <point x="994" y="1222"/>
      <point x="1027" y="1328"/>
      <point x="1371" y="1328" type="curve" smooth="yes"/>
      <point x="1646" y="1328"/>
      <point x="1771" y="1208"/>
      <point x="1771" y="1145" type="curve" smooth="yes"/>
      <point x="1771" y="0" type="line"/>
      <point x="1959" y="0" type="line"/>
      <point x="1959" y="1163" type="line" smooth="yes"/>
      <point x="1959" y="1202"/>
      <point x="1923" y="1252"/>
      <point x="1860" y="1298" type="curve"/>
      <point x="1866" y="1295" type="line"/>
      <point x="1930" y="1396"/>
      <point x="1959" y="1508"/>
      <point x="1959" y="1610" type="curve" smooth="yes"/>
      <point x="1959" y="1704"/>
      <point x="1930" y="1800"/>
      <point x="1818" y="1894" type="curve" smooth="yes"/>
      <point x="1795" y="1913"/>
      <point x="1758" y="1922"/>
      <point x="1734" y="1922" type="curve" smooth="yes"/>
      <point x="1676" y="1922"/>
      <point x="1626" y="1898"/>
      <point x="1626" y="1834" type="curve" smooth="yes"/>
      <point x="1626" y="1794"/>
      <point x="1637" y="1772"/>
      <point x="1672" y="1740" type="curve"/>
      <point x="1740" y="1689"/>
      <point x="1759" y="1614"/>
      <point x="1759" y="1538" type="curve" smooth="yes"/>
      <point x="1759" y="1476"/>
      <point x="1740" y="1405"/>
      <point x="1723" y="1374" type="curve"/>
      <point x="1630" y="1413"/>
      <point x="1516" y="1440"/>
      <point x="1389" y="1440" type="curve" smooth="yes"/>
      <point x="1030" y="1440"/>
      <point x="871" y="1326"/>
      <point x="871" y="1189" type="curve" smooth="yes"/>
      <point x="871" y="1118"/>
      <point x="892" y="1063"/>
      <point x="975" y="1016" type="curve"/>
      <point x="1007" y="1002"/>
      <point x="1043" y="980"/>
      <point x="1043" y="923" type="curve" smooth="yes"/>
      <point x="1043" y="600" type="line"/>
      <point x="483" y="600" type="line"/>
      <point x="483" y="980" type="line" smooth="yes"/>
      <point x="483" y="1024"/>
      <point x="420" y="1054"/>
      <point x="341" y="1092" type="curve" smooth="yes"/>
      <point x="293" y="1115"/>
      <point x="245" y="1138"/>
      <point x="245" y="1193" type="curve" smooth="yes"/>
      <point x="245" y="1242"/>
      <point x="273" y="1282"/>
      <point x="309" y="1282" type="curve" smooth="yes"/>
      <point x="320" y="1282"/>
      <point x="341" y="1276"/>
      <point x="371" y="1253" type="curve" smooth="yes"/>
      <point x="399" y="1231"/>
      <point x="438" y="1204"/>
      <point x="502" y="1204" type="curve" smooth="yes"/>
      <point x="599" y="1204"/>
      <point x="652" y="1257"/>
      <point x="656" y="1374" type="curve"/>
      <point x="633" y="1354"/>
      <point x="610" y="1346"/>
      <point x="595" y="1346" type="curve" smooth="yes"/>
      <point x="554" y="1346"/>
      <point x="513" y="1370"/>
      <point x="475" y="1396" type="curve" smooth="yes"/>
      <point x="441" y="1418"/>
      <point x="407" y="1440"/>
      <point x="359" y="1440" type="curve" smooth="yes"/>
      <point x="245" y="1440"/>
      <point x="122" y="1306"/>
      <point x="122" y="1189" type="curve" smooth="yes"/>
      <point x="122" y="1118"/>
      <point x="145" y="1063"/>
      <point x="227" y="1016" type="curve"/>
      <point x="262" y="1002"/>
      <point x="295" y="980"/>
      <point x="295" y="923" type="curve" smooth="yes"/>
      <point x="295" y="187" type="line" smooth="yes"/>
      <point x="295" y="87"/>
      <point x="567" y="0"/>
      <point x="763" y="0" type="curve" smooth="yes"/>
      <point x="959" y="0"/>
      <point x="1231" y="87"/>
    </contour>
    <contour>
      <point x="763" y="112" type="curve" smooth="yes"/>
      <point x="685" y="112"/>
      <point x="483" y="143"/>
      <point x="483" y="207" type="curve" smooth="yes"/>
      <point x="483" y="470" type="line"/>
      <point x="1043" y="470" type="line"/>
      <point x="1043" y="207" type="line" smooth="yes"/>
      <point x="1043" y="143"/>
      <point x="841" y="112"/>
    </contour>
  </outline>
</glyph>
<glyph name="uni179A.spc" format="2">
  <advance width="918"/>
  <anchor x="549" y="1440" name="um"/>
  <anchor x="523" y="0" name="lm"/>
  <anchor x="673" y="1440" name="U2"/>
  <outline>
    <contour>
      <point x="673" y="980" type="line" smooth="yes"/>
      <point x="673" y="1024"/>
      <point x="610" y="1054"/>
      <point x="531" y="1092" type="curve" smooth="yes"/>
      <point x="483" y="1115"/>
      <point x="435" y="1138"/>
      <point x="435" y="1193" type="curve" smooth="yes"/>
      <point x="435" y="1242"/>
      <point x="463" y="1282"/>
      <point x="499" y="1282" type="curve" smooth="yes"/>
      <point x="510" y="1282"/>
      <point x="531" y="1276"/>
      <point x="561" y="1253" type="curve" smooth="yes"/>
      <point x="589" y="1231"/>
      <point x="628" y="1204"/>
      <point x="692" y="1204" type="curve" smooth="yes"/>
      <point x="789" y="1204"/>
      <point x="842" y="1257"/>
      <point x="846" y="1374" type="curve"/>
      <point x="823" y="1354"/>
      <point x="800" y="1346"/>
      <point x="785" y="1346" type="curve" smooth="yes"/>
      <point x="744" y="1346"/>
      <point x="703" y="1370"/>
      <point x="665" y="1396" type="curve" smooth="yes"/>
      <point x="631" y="1418"/>
      <point x="597" y="1440"/>
      <point x="549" y="1440" type="curve" smooth="yes"/>
      <point x="435" y="1440"/>
      <point x="312" y="1306"/>
      <point x="312" y="1189" type="curve" smooth="yes"/>
      <point x="312" y="1118"/>
      <point x="335" y="1063"/>
      <point x="417" y="1016" type="curve"/>
      <point x="452" y="1002"/>
      <point x="485" y="980"/>
      <point x="485" y="923" type="curve" smooth="yes"/>
      <point x="485" y="451" type="line"/>
      <point x="358" y="444"/>
      <point x="258" y="376"/>
      <point x="258" y="248" type="curve" smooth="yes"/>
      <point x="258" y="169"/>
      <point x="336" y="31"/>
      <point x="502" y="0" type="curve"/>
      <point x="567" y="0"/>
      <point x="648" y="16"/>
      <point x="673" y="79" type="curve"/>
    </contour>
    <contour>
      <point x="380" y="257" type="curve" smooth="yes"/>
      <point x="380" y="307"/>
      <point x="437" y="338"/>
      <point x="485" y="345" type="curve"/>
      <point x="485" y="137" type="line"/>
      <point x="434" y="159"/>
      <point x="380" y="196"/>
    </contour>
  </outline>
</glyph>
<glyph name="uni179B17B6" format="2">
  <advance width="2656"/>
  <anchor x="1683" y="0" name="L"/>
  <anchor x="1683" y="1440" name="U"/>
  <anchor x="1289" y="1440" name="um"/>
  <anchor x="989" y="0" name="lm"/>
  <anchor x="1953" y="1440" name="um2"/>
  <anchor x="2411" y="1440" name="U2"/>
  <anchor x="2411" y="0" name="L2"/>
  <outline>
    <contour>
      <point x="1683" y="980" type="line" smooth="yes"/>
      <point x="1683" y="1024"/>
      <point x="1618" y="1054"/>
      <point x="1540" y="1091" type="curve" smooth="yes"/>
      <point x="1492" y="1114"/>
      <point x="1446" y="1138"/>
      <point x="1446" y="1193" type="curve" smooth="yes"/>
      <point x="1446" y="1222"/>
      <point x="1479" y="1328"/>
      <point x="1823" y="1328" type="curve" smooth="yes"/>
      <point x="2098" y="1328"/>
      <point x="2223" y="1208"/>
      <point x="2223" y="1145" type="curve" smooth="yes"/>
      <point x="2223" y="0" type="line"/>
      <point x="2411" y="0" type="line"/>
      <point x="2411" y="1163" type="line" smooth="yes"/>
      <point x="2411" y="1264"/>
      <point x="2166" y="1440"/>
      <point x="1841" y="1440" type="curve" smooth="yes"/>
      <point x="1482" y="1440"/>
      <point x="1323" y="1326"/>
      <point x="1323" y="1189" type="curve" smooth="yes"/>
      <point x="1323" y="1118"/>
      <point x="1344" y="1063"/>
      <point x="1427" y="1016" type="curve"/>
      <point x="1459" y="1002"/>
      <point x="1495" y="980"/>
      <point x="1495" y="923" type="curve" smooth="yes"/>
      <point x="1495" y="194" type="line" smooth="yes"/>
      <point x="1495" y="139"/>
      <point x="1375" y="112"/>
      <point x="1289" y="112" type="curve" smooth="yes"/>
      <point x="1203" y="112"/>
      <point x="1083" y="139"/>
      <point x="1083" y="194" type="curve" smooth="yes"/>
      <point x="1083" y="1253" type="line" smooth="yes"/>
      <point x="1083" y="1353"/>
      <point x="885" y="1440"/>
      <point x="689" y="1440" type="curve" smooth="yes"/>
      <point x="493" y="1440"/>
      <point x="295" y="1353"/>
      <point x="295" y="1253" type="curve" smooth="yes"/>
      <point x="295" y="79" type="line"/>
      <point x="320" y="16"/>
      <point x="401" y="0"/>
      <point x="466" y="0" type="curve"/>
      <point x="632" y="31"/>
      <point x="710" y="169"/>
      <point x="710" y="248" type="curve" smooth="yes"/>
      <point x="710" y="376"/>
      <point x="610" y="444"/>
      <point x="483" y="451" type="curve"/>
      <point x="483" y="1246" type="line" smooth="yes"/>
      <point x="483" y="1301"/>
      <point x="603" y="1328"/>
      <point x="689" y="1328" type="curve" smooth="yes"/>
      <point x="775" y="1328"/>
      <point x="895" y="1301"/>
      <point x="895" y="1246" type="curve" smooth="yes"/>
      <point x="895" y="187" type="line" smooth="yes"/>
      <point x="895" y="87"/>
      <point x="1093" y="0"/>
      <point x="1289" y="0" type="curve" smooth="yes"/>
      <point x="1485" y="0"/>
      <point x="1683" y="87"/>
      <point x="1683" y="187" type="curve" smooth="yes"/>
    </contour>
    <contour>
      <point x="588" y="257" type="curve" smooth="yes"/>
      <point x="588" y="196"/>
      <point x="534" y="159"/>
      <point x="483" y="137" type="curve"/>
      <point x="483" y="345" type="line"/>
      <point x="531" y="338"/>
      <point x="588" y="307"/>
    </contour>
  </outline>
</glyph>
<glyph name="uni179C.spc" format="2">
  <advance width="918"/>
  <anchor x="523" y="0" name="lm"/>
  <anchor x="549" y="1793" name="um"/>
  <anchor x="706" y="1793" name="U"/>
  <outline>
    <contour>
      <point x="485" y="923" type="curve" smooth="yes"/>
      <point x="485" y="451" type="line"/>
      <point x="358" y="444"/>
      <point x="258" y="376"/>
      <point x="258" y="248" type="curve" smooth="yes"/>
      <point x="258" y="169"/>
      <point x="336" y="31"/>
      <point x="502" y="0" type="curve"/>
      <point x="567" y="0"/>
      <point x="648" y="16"/>
      <point x="673" y="79" type="curve"/>
      <point x="673" y="980" type="line" smooth="yes"/>
      <point x="673" y="1024"/>
      <point x="610" y="1053"/>
      <point x="529" y="1092" type="curve" smooth="yes"/>
      <point x="482" y="1114"/>
      <point x="436" y="1138"/>
      <point x="436" y="1193" type="curve" smooth="yes"/>
      <point x="436" y="1242"/>
      <point x="464" y="1282"/>
      <point x="500" y="1282" type="curve" smooth="yes"/>
      <point x="515" y="1282"/>
      <point x="542" y="1268"/>
      <point x="560" y="1253" type="curve"/>
      <point x="590" y="1231"/>
      <point x="628" y="1204"/>
      <point x="692" y="1204" type="curve" smooth="yes"/>
      <point x="790" y="1204"/>
      <point x="846" y="1257"/>
      <point x="846" y="1453" type="curve" smooth="yes"/>
      <point x="846" y="1610"/>
      <point x="718" y="1793"/>
      <point x="518" y="1793" type="curve" smooth="yes"/>
      <point x="450" y="1793"/>
      <point x="411" y="1767"/>
      <point x="411" y="1721" type="curve" smooth="yes"/>
      <point x="411" y="1654"/>
      <point x="485" y="1616"/>
      <point x="571" y="1589" type="curve" smooth="yes"/>
      <point x="665" y="1560"/>
      <point x="734" y="1519"/>
      <point x="734" y="1421" type="curve" smooth="yes"/>
      <point x="734" y="1385"/>
      <point x="730" y="1365"/>
      <point x="723" y="1365" type="curve" smooth="yes"/>
      <point x="715" y="1365"/>
      <point x="692" y="1381"/>
      <point x="669" y="1396" type="curve"/>
      <point x="639" y="1418"/>
      <point x="601" y="1440"/>
      <point x="549" y="1440" type="curve" smooth="yes"/>
      <point x="436" y="1440"/>
      <point x="313" y="1306"/>
      <point x="313" y="1189" type="curve" smooth="yes"/>
      <point x="313" y="1118"/>
      <point x="335" y="1063"/>
      <point x="417" y="1016" type="curve"/>
      <point x="450" y="1002"/>
      <point x="485" y="980"/>
    </contour>
    <contour>
      <point x="380" y="257" type="curve" smooth="yes"/>
      <point x="380" y="307"/>
      <point x="437" y="338"/>
      <point x="485" y="345" type="curve"/>
      <point x="485" y="137" type="line"/>
      <point x="434" y="159"/>
      <point x="380" y="196"/>
    </contour>
  </outline>
</glyph>
<glyph name="uni179D17B6" format="2">
  <advance width="2204"/>
  <anchor x="1231" y="0" name="L"/>
  <anchor x="1231" y="1440" name="U"/>
  <anchor x="763" y="1440" name="um"/>
  <anchor x="763" y="0" name="lm"/>
  <anchor x="1959" y="0" name="L2"/>
  <anchor x="1959" y="1440" name="U2"/>
  <anchor x="1501" y="1440" name="um2"/>
  <outline>
    <contour>
      <point x="483" y="266" type="curve"/>
      <point x="483" y="920" type="line" smooth="yes"/>
      <point x="483" y="984"/>
      <point x="685" y="1013"/>
      <point x="763" y="1013" type="curve" smooth="yes"/>
      <point x="841" y="1013"/>
      <point x="1043" y="984"/>
      <point x="1043" y="920" type="curve" smooth="yes"/>
      <point x="1043" y="473" type="line"/>
      <point x="1001" y="473"/>
      <point x="985" y="488"/>
      <point x="985" y="515" type="curve" smooth="yes"/>
      <point x="985" y="533"/>
      <point x="1007" y="558"/>
      <point x="1024" y="569" type="curve"/>
      <point x="1007" y="581"/>
      <point x="979" y="590"/>
      <point x="941" y="590" type="curve" smooth="yes"/>
      <point x="865" y="590"/>
      <point x="813" y="541"/>
      <point x="813" y="484" type="curve" smooth="yes"/>
      <point x="813" y="412"/>
      <point x="873" y="334"/>
      <point x="1043" y="334" type="curve"/>
      <point x="1043" y="0" type="line"/>
      <point x="1231" y="0" type="line"/>
      <point x="1231" y="373" type="line"/>
      <point x="1254" y="383"/>
      <point x="1278" y="395"/>
      <point x="1305" y="410" type="curve" smooth="yes"/>
      <point x="1406" y="465"/>
      <point x="1468" y="569"/>
      <point x="1468" y="597" type="curve" smooth="yes"/>
      <point x="1468" y="601"/>
      <point x="1463" y="605"/>
      <point x="1459" y="605" type="curve" smooth="yes"/>
      <point x="1439" y="605"/>
      <point x="1352" y="552"/>
      <point x="1297" y="533" type="curve"/>
      <point x="1282" y="527"/>
      <point x="1258" y="519"/>
      <point x="1231" y="512" type="curve"/>
      <point x="1231" y="938" type="line" smooth="yes"/>
      <point x="1231" y="1038"/>
      <point x="959" y="1123"/>
      <point x="763" y="1123" type="curve" smooth="yes"/>
      <point x="625" y="1123"/>
      <point x="450" y="1078"/>
      <point x="360" y="1016" type="curve"/>
      <point x="325" y="1047"/>
      <point x="299" y="1084"/>
      <point x="299" y="1125" type="curve" smooth="yes"/>
      <point x="299" y="1231"/>
      <point x="424" y="1286"/>
      <point x="548" y="1286" type="curve" smooth="yes"/>
      <point x="786" y="1286"/>
      <point x="926" y="1225"/>
      <point x="1044" y="1148" type="curve"/>
      <point x="1106" y="1209"/>
      <point x="1220" y="1312"/>
      <point x="1414" y="1312" type="curve" smooth="yes"/>
      <point x="1650" y="1312"/>
      <point x="1771" y="1208"/>
      <point x="1771" y="1145" type="curve" smooth="yes"/>
      <point x="1771" y="0" type="line"/>
      <point x="1959" y="0" type="line"/>
      <point x="1959" y="1163" type="line" smooth="yes"/>
      <point x="1959" y="1264"/>
      <point x="1734" y="1440"/>
      <point x="1418" y="1440" type="curve" smooth="yes"/>
      <point x="1251" y="1440"/>
      <point x="1119" y="1354"/>
      <point x="1044" y="1282" type="curve"/>
      <point x="902" y="1377"/>
      <point x="777" y="1440"/>
      <point x="515" y="1440" type="curve" smooth="yes"/>
      <point x="315" y="1440"/>
      <point x="163" y="1318"/>
      <point x="163" y="1179" type="curve" smooth="yes"/>
      <point x="163" y="1077"/>
      <point x="238" y="1001"/>
      <point x="302" y="960" type="curve"/>
      <point x="299" y="952"/>
      <point x="295" y="946"/>
      <point x="295" y="938" type="curve" smooth="yes"/>
      <point x="295" y="0" type="line"/>
      <point x="483" y="0" type="line"/>
      <point x="539" y="168"/>
      <point x="585" y="247"/>
      <point x="686" y="247" type="curve" smooth="yes"/>
      <point x="739" y="247"/>
      <point x="783" y="294"/>
      <point x="783" y="330" type="curve" smooth="yes"/>
      <point x="783" y="364"/>
      <point x="760" y="416"/>
      <point x="689" y="416" type="curve" smooth="yes"/>
      <point x="600" y="416"/>
      <point x="525" y="341"/>
    </contour>
  </outline>
</glyph>
<glyph name="uni17B717CD" format="2">
  <anchor x="-245" y="1440" name="_U"/>
  <anchor x="-245" y="2358" name="U"/>
  <anchor x="-719" y="2358" name="um"/>
  <outline>
    <contour>
      <point x="-194" y="1862" type="curve" smooth="yes"/>
      <point x="-90" y="1862"/>
      <point x="-11" y="1941"/>
      <point x="-11" y="2005" type="curve" smooth="yes"/>
      <point x="-11" y="2030"/>
      <point x="-42" y="2052"/>
      <point x="-86" y="2052" type="curve" smooth="yes"/>
      <point x="-128" y="2052"/>
      <point x="-154" y="2038"/>
      <point x="-162" y="2013" type="curve"/>
      <point x="-164" y="1992"/>
      <point x="-179" y="1986"/>
      <point x="-194" y="1986" type="curve" smooth="yes"/>
      <point x="-215" y="1986"/>
      <point x="-233" y="2001"/>
      <point x="-233" y="2030" type="curve" smooth="yes"/>
      <point x="-233" y="2060"/>
      <point x="-211" y="2098"/>
      <point x="-158" y="2109" type="curve"/>
      <point x="-11" y="2124"/>
      <point x="75" y="2199"/>
      <point x="75" y="2313" type="curve" smooth="yes"/>
      <point x="75" y="2375"/>
      <point x="30" y="2443"/>
      <point x="-111" y="2458" type="curve"/>
      <point x="-79" y="2431"/>
      <point x="-65" y="2392"/>
      <point x="-65" y="2339" type="curve" smooth="yes"/>
      <point x="-65" y="2271"/>
      <point x="-104" y="2237"/>
      <point x="-179" y="2224" type="curve"/>
      <point x="-330" y="2207"/>
      <point x="-383" y="2102"/>
      <point x="-383" y="2030" type="curve" smooth="yes"/>
      <point x="-383" y="1937"/>
      <point x="-300" y="1862"/>
    </contour>
    <contour>
      <point x="-838" y="1679" type="curve" smooth="yes"/>
      <point x="-694" y="1679"/>
      <point x="-568" y="1651"/>
      <point x="-466" y="1626" type="curve" smooth="yes"/>
      <point x="-391" y="1607"/>
      <point x="-332" y="1590"/>
      <point x="-276" y="1590" type="curve" smooth="yes"/>
      <point x="-229" y="1590"/>
      <point x="-197" y="1636"/>
      <point x="-197" y="1669" type="curve" smooth="yes"/>
      <point x="-197" y="1693"/>
      <point x="-204" y="1704"/>
      <point x="-208" y="1715" type="curve"/>
      <point x="-321" y="1905"/>
      <point x="-601" y="2063"/>
      <point x="-808" y="2063" type="curve" smooth="yes"/>
      <point x="-1013" y="2063"/>
      <point x="-1202" y="1937"/>
      <point x="-1202" y="1805" type="curve" smooth="yes"/>
      <point x="-1202" y="1719"/>
      <point x="-1141" y="1666"/>
      <point x="-1051" y="1666" type="curve" smooth="yes"/>
      <point x="-989" y="1666"/>
      <point x="-898" y="1679"/>
    </contour>
    <contour>
      <point x="-819" y="1809" type="curve" smooth="yes"/>
      <point x="-881" y="1809"/>
      <point x="-907" y="1800"/>
      <point x="-965" y="1800" type="curve" smooth="yes"/>
      <point x="-990" y="1800"/>
      <point x="-1005" y="1815"/>
      <point x="-1005" y="1829" type="curve" smooth="yes"/>
      <point x="-1005" y="1887"/>
      <point x="-897" y="1933"/>
      <point x="-808" y="1933" type="curve" smooth="yes"/>
      <point x="-676" y="1933"/>
      <point x="-497" y="1828"/>
      <point x="-429" y="1750" type="curve"/>
      <point x="-490" y="1770"/>
      <point x="-666" y="1809"/>
    </contour>
  </outline>
</glyph>
